<svg width="1004" height="250" viewBox="0 0 1004 250" fill="none" xmlns="http://www.w3.org/2000/svg">
<g clip-path="url(#clip0_70_19)">
<g filter="url(#filter0_d_70_19)">
<path d="M242.569 70.0759C257.566 59.0828 231.722 16.4408 265.677 9.49244C281.215 6.31292 308.605 45.4801 286.563 72.029C275.313 85.5789 255.97 95.4074 273.363 121.291C295.847 154.751 258.307 166.432 263.039 195.135C266.137 213.921 249.054 208.359 252 235.815C254.516 259.265 240.268 269.941 217.765 288.241C219.267 271.043 195.999 264.937 204.521 248.586C210.992 236.171 190.656 207.601 217.765 189.5C235.524 179.247 209.079 151.171 232.151 142.342C259.888 131.727 210.827 90.5584 242.569 70.0759Z" fill="#72B01E"/>
<path d="M265.677 9.49244L265.477 8.51275L265.677 9.49244ZM242.569 70.0759L243.111 70.9162C243.128 70.9054 243.144 70.8942 243.16 70.8825L242.569 70.0759ZM232.151 142.342L231.793 141.408L231.793 141.408L232.151 142.342ZM217.765 189.5L217.265 188.634C217.246 188.645 217.227 188.656 217.209 188.668L217.765 189.5ZM204.521 248.586L203.634 248.123L203.634 248.123L204.521 248.586ZM217.765 288.241L216.769 288.154C216.734 288.554 216.941 288.936 217.296 289.124C217.651 289.312 218.084 289.27 218.396 289.016L217.765 288.241ZM252 235.815L251.006 235.922L251.006 235.922L252 235.815ZM263.039 195.135L262.053 195.298L262.053 195.298L263.039 195.135ZM273.363 121.291L272.533 121.849L272.533 121.849L273.363 121.291ZM286.563 72.029L285.794 71.3902L285.794 71.3902L286.563 72.029ZM265.677 9.49244L265.477 8.51275C256.732 10.3023 251.7 14.4371 248.957 19.895C246.253 25.2764 245.842 31.8158 246.014 38.2939C246.1 41.541 246.336 44.8268 246.52 47.9666C246.705 51.1218 246.839 54.1373 246.732 56.9109C246.518 62.5061 245.334 66.8097 241.978 69.2694L242.569 70.0759L243.16 70.8825C247.303 67.8456 248.512 62.6965 248.731 56.9875C248.841 54.1089 248.702 51.0093 248.516 47.8495C248.33 44.6744 248.098 41.4454 248.013 38.2409C247.843 31.8159 248.276 25.7049 250.744 20.7931C253.174 15.9579 257.645 12.1568 265.878 10.4721L265.677 9.49244ZM242.569 70.0759L242.027 69.2357C233.81 74.5381 230.763 81.2539 230.451 88.4727C230.144 95.5922 232.502 103.16 234.911 110.232C237.355 117.405 239.821 124.003 240.017 129.488C240.114 132.192 239.65 134.534 238.414 136.496C237.181 138.452 235.111 140.138 231.793 141.408L232.151 142.342L232.508 143.276C236.125 141.892 238.589 139.969 240.106 137.562C241.62 135.161 242.122 132.385 242.016 129.417C241.806 123.557 239.191 116.593 236.804 109.587C234.383 102.479 232.161 95.2508 232.45 88.5588C232.734 81.9662 235.457 75.855 243.111 70.9162L242.569 70.0759ZM232.151 142.342L231.793 141.408C225.753 143.72 222.83 147.367 221.699 151.743C220.597 156.008 221.228 160.866 221.978 165.545C222.743 170.317 223.629 174.904 223.264 178.958C222.908 182.915 221.368 186.265 217.265 188.634L217.765 189.5L218.265 190.366C223.041 187.608 224.854 183.605 225.256 179.137C225.649 174.768 224.695 169.862 223.953 165.229C223.196 160.504 222.652 156.047 223.635 152.244C224.59 148.552 227.013 145.379 232.508 143.276L232.151 142.342ZM217.765 189.5L217.209 188.668C210.27 193.302 206.317 198.645 204.231 204.275C202.153 209.885 201.958 215.705 202.407 221.256C202.632 224.032 203.019 226.756 203.419 229.359C203.821 231.975 204.231 234.449 204.515 236.782C205.088 241.49 205.096 245.32 203.634 248.123L204.521 248.586L205.408 249.048C207.182 245.644 207.074 241.247 206.501 236.54C206.212 234.166 205.792 231.637 205.396 229.056C204.997 226.462 204.619 223.796 204.4 221.094C203.963 215.688 204.171 210.195 206.107 204.97C208.035 199.764 211.705 194.749 218.32 190.332L217.765 189.5ZM204.521 248.586L203.634 248.123C201.39 252.43 201.209 256.147 202.25 259.554C203.271 262.895 205.448 265.861 207.729 268.72C212.384 274.555 217.477 280.038 216.769 288.154L217.765 288.241L218.761 288.328C219.554 279.246 213.764 273.077 209.292 267.472C207.009 264.611 205.061 261.909 204.162 258.969C203.284 256.094 203.391 252.917 205.408 249.048L204.521 248.586ZM217.765 288.241L218.396 289.016C229.603 279.903 238.908 272.572 245.058 264.569C251.267 256.487 254.281 247.702 252.994 235.708L252 235.815L251.006 235.922C252.235 247.379 249.383 255.656 243.472 263.35C237.5 271.122 228.429 278.279 217.134 287.465L217.765 288.241ZM252 235.815L252.994 235.708C252.268 228.942 252.784 224.286 253.872 220.817C254.956 217.357 256.63 215.005 258.357 212.849C260.061 210.721 261.935 208.662 263.122 205.958C264.335 203.197 264.825 199.819 264.026 194.973L263.039 195.135L262.053 195.298C262.802 199.844 262.318 202.816 261.291 205.154C260.239 207.549 258.607 209.338 256.796 211.599C255.007 213.833 253.156 216.412 251.963 220.219C250.773 224.016 250.259 228.961 251.006 235.922L252 235.815ZM263.039 195.135L264.026 194.973C262.883 188.041 264.284 182.13 266.732 176.598C269.212 170.995 272.678 165.941 275.731 160.485C278.746 155.098 281.275 149.439 281.569 142.954C281.864 136.446 279.906 129.234 274.193 120.733L273.363 121.291L272.533 121.849C278.063 130.078 279.843 136.873 279.571 142.863C279.298 148.877 276.954 154.205 273.986 159.509C271.056 164.743 267.429 170.083 264.903 175.789C262.347 181.565 260.829 187.878 262.053 195.298L263.039 195.135ZM273.363 121.291L274.193 120.733C269.906 114.353 267.937 109.043 267.501 104.484C267.067 99.9434 268.144 96.0646 270.098 92.5173C272.064 88.9472 274.913 85.7189 278.027 82.4977C281.11 79.3084 284.488 76.0939 287.332 72.6678L286.563 72.029L285.794 71.3902C283.013 74.739 279.754 77.8342 276.589 81.1076C273.456 84.3491 270.448 87.7362 268.346 91.5524C266.232 95.3915 265.031 99.6698 265.51 104.675C265.987 109.662 268.124 115.287 272.533 121.849L273.363 121.291ZM286.563 72.029L287.332 72.6678C298.683 58.9968 297.256 42.118 291.116 29.1837C288.044 22.7118 283.767 17.1618 279.232 13.4178C274.734 9.70446 269.802 7.62777 265.477 8.51275L265.677 9.49244L265.878 10.4721C269.322 9.76736 273.64 11.3942 277.959 14.9601C282.241 18.4954 286.347 23.8004 289.309 30.0414C295.239 42.533 296.486 58.5122 285.794 71.3902L286.563 72.029Z" fill="#598918"/>
<path d="M265.677 9.49249C280.166 13.3747 283.519 37.5668 272.02 65.0264C265.218 81.271 255 85.4861 261.33 111C267.66 136.514 279.33 156 261.33 175.151C248.29 189.025 240.054 198.544 243 226C245.516 249.45 241.503 268.201 219 286.5" stroke="#598918" stroke-width="2" stroke-miterlimit="2.61313" stroke-linejoin="round"/>
<path d="M265.677 9.49255C275.293 21.904 269.744 56.1343 263.387 66.3366C252.584 83.6731 252.49 97.5099 261.5 131.5C270.51 165.49 245.247 161.454 238 188.5C233.072 206.891 231.054 208.544 234 236C236.946 263.456 227.419 262.74 219.5 286.5" stroke="#598918" stroke-width="2" stroke-miterlimit="2.61313" stroke-linejoin="round"/>
<path d="M265.677 9.4925C254.463 41.6868 255.972 45.7147 255.789 63.783C255.643 78.2377 239.176 85.2135 245.642 119.04C252.107 152.866 245.5 146.5 239.5 168C233.5 189.5 219.261 187.547 219 217.5C218.739 247.453 225.057 256.6 219 285" stroke="#598918" stroke-width="2" stroke-miterlimit="2.61313" stroke-linejoin="round"/>
<path d="M794 269.5C779.003 280.493 757.097 325.572 723.142 332.52C707.604 335.699 703.457 301.549 725.5 275C736.75 261.45 754.393 239.884 737 214C714.516 180.541 735.732 181.203 731 152.5C727.903 133.714 753.446 141.376 750.5 113.92C747.984 90.4697 760.997 67.2194 783.5 48.9201C786 66.9201 794 67.92 794 91.42C794 105.42 807.214 136.604 780.105 154.704C762.346 164.957 804.5 187.5 786.5 205C765.206 225.702 825.742 249.018 794 269.5Z" fill="#72B01E"/>
<path d="M723.142 332.52L722.941 331.54L722.941 331.54L723.142 332.52ZM794 269.5L793.458 268.66C793.441 268.67 793.425 268.682 793.409 268.693L794 269.5ZM786.5 205L785.803 204.283L785.803 204.283L786.5 205ZM780.105 154.704L780.605 155.57C780.624 155.559 780.642 155.548 780.66 155.536L780.105 154.704ZM794 91.42L795 91.42L795 91.42L794 91.42ZM783.5 48.9201L784.49 48.7825C784.441 48.4249 784.202 48.1218 783.866 47.9896C783.53 47.8573 783.149 47.9164 782.869 48.1442L783.5 48.9201ZM750.5 113.92L751.494 113.813L751.494 113.813L750.5 113.92ZM731 152.5L731.987 152.337L731.987 152.337L731 152.5ZM737 214L737.83 213.442L737.83 213.442L737 214ZM725.5 275L724.731 274.361L724.731 274.361L725.5 275ZM723.142 332.52L723.342 333.5C740.673 329.953 754.827 316.71 766.439 303.178C772.252 296.404 777.487 289.485 782.158 283.631C786.865 277.734 790.967 272.963 794.591 270.307L794 269.5L793.409 268.693C789.535 271.533 785.275 276.52 780.595 282.384C775.88 288.291 770.704 295.137 764.921 301.876C753.343 315.368 739.566 328.138 722.941 331.54L723.142 332.52ZM794 269.5L794.542 270.34C798.601 267.721 801.269 265.004 802.798 262.172C804.337 259.321 804.683 256.422 804.212 253.531C803.285 247.849 799.181 242.17 794.959 236.72C790.654 231.164 786.198 225.81 784.08 220.557C783.033 217.961 782.592 215.464 782.997 213.04C783.4 210.628 784.66 208.184 787.197 205.717L786.5 205L785.803 204.283C783.017 206.992 781.51 209.805 781.024 212.71C780.54 215.604 781.087 218.485 782.225 221.306C784.476 226.887 789.178 232.524 793.378 237.945C797.66 243.472 801.407 248.756 802.238 253.853C802.645 256.351 802.347 258.797 801.038 261.222C799.718 263.666 797.335 266.158 793.458 268.66L794 269.5ZM786.5 205L787.197 205.717C789.56 203.42 790.976 200.998 791.632 198.488C792.288 195.983 792.17 193.455 791.569 190.966C790.378 186.032 787.245 181.111 784.225 176.58C781.143 171.956 778.218 167.785 777.1 164.134C776.551 162.343 776.476 160.788 776.961 159.427C777.443 158.078 778.53 156.768 780.605 155.57L780.105 154.704L779.605 153.838C777.241 155.203 775.76 156.841 775.077 158.755C774.399 160.659 774.563 162.683 775.187 164.72C776.415 168.727 779.574 173.208 782.561 177.689C785.609 182.262 788.53 186.899 789.625 191.435C790.167 193.68 790.251 195.865 789.697 197.982C789.145 200.094 787.94 202.205 785.803 204.283L786.5 205ZM780.105 154.704L780.66 155.536C794.572 146.247 798.131 133.56 798.218 121.532C798.261 115.54 797.445 109.695 796.629 104.513C795.805 99.2816 795 94.8186 795 91.42L794 91.42L793 91.42C793 95.0214 793.847 99.7064 794.653 104.825C795.467 109.993 796.26 115.701 796.218 121.517C796.135 133.106 792.747 145.061 779.55 153.873L780.105 154.704ZM794 91.42L795 91.42C795 79.522 792.967 73.2644 790.608 67.7162C788.273 62.2257 785.718 57.6194 784.49 48.7825L783.5 48.9201L782.509 49.0576C783.782 58.2207 786.477 63.1144 788.767 68.4989C791.033 73.8257 793 79.818 793 91.42L794 91.42ZM783.5 48.9201L782.869 48.1442C760.218 66.564 746.94 90.1152 749.506 114.027L750.5 113.92L751.494 113.813C749.027 90.8241 761.776 67.8748 784.131 49.6959L783.5 48.9201ZM750.5 113.92L749.506 114.027C750.226 120.738 749.195 125.187 747.389 128.399C745.574 131.627 742.915 133.724 740.127 135.637C737.403 137.506 734.41 139.279 732.379 141.777C730.264 144.377 729.198 147.718 730.013 152.663L731 152.5L731.987 152.337C731.253 147.89 732.218 145.144 733.93 143.039C735.725 140.831 738.353 139.281 741.259 137.286C744.102 135.334 747.083 133.024 749.132 129.379C751.19 125.719 752.247 120.83 751.494 113.813L750.5 113.92ZM731 152.5L730.013 152.663C732.335 166.745 728.322 173.431 726.373 181.224C725.392 185.146 724.977 189.265 726.271 194.549C727.557 199.799 730.515 206.143 736.17 214.558L737 214L737.83 213.442C732.243 205.128 729.422 199.006 728.214 194.073C727.014 189.174 727.392 185.392 728.313 181.709C730.168 174.292 734.397 166.958 731.987 152.337L731 152.5ZM737 214L736.17 214.558C744.673 227.211 744.597 238.738 741.048 248.792C737.474 258.92 730.37 267.569 724.731 274.361L725.5 275L726.269 275.639C731.88 268.881 739.223 259.972 742.934 249.458C746.671 238.87 746.721 226.673 737.83 213.442L737 214ZM725.5 275L724.731 274.361C713.563 287.812 709 303.218 709.228 314.928C709.342 320.77 710.652 325.792 713.038 329.183C715.463 332.631 719.016 334.385 723.342 333.5L723.142 332.52L722.941 331.54C719.499 332.245 716.706 330.922 714.673 328.032C712.6 325.084 711.338 320.505 711.228 314.889C711.009 303.68 715.394 288.737 726.269 275.639L725.5 275Z" fill="#598918"/>
<path d="M723.142 332.52C708.653 328.638 705.3 304.446 716.799 276.986C723.601 260.741 770.393 256.384 753 230.5C735.606 204.616 730.993 183.194 741 160.92C749.5 142 762.709 144.098 759.763 116.642C757.217 92.92 766 70.92 783.5 48.92" stroke="#598918" stroke-width="2" stroke-miterlimit="2.61313" stroke-linejoin="round"/>
<path d="M723.142 332.52C713.526 320.108 719.075 285.878 725.432 275.676C736.235 258.339 773.01 265.49 764 231.5C754.99 197.51 751.253 188.966 758.5 161.92C759.127 159.578 758.174 146.829 771.5 123.92C784.826 101.011 775.581 73.18 783.5 49.42" stroke="#598918" stroke-width="2" stroke-miterlimit="2.61313" stroke-linejoin="round"/>
<path d="M723.142 332.52C734.357 300.326 759.317 296.068 759.5 278C759.646 263.545 775.5 255.5 778 221C780.5 186.5 766.5 205 769 175C771.5 145 790.187 142.761 784.343 111.841C778.5 80.92 787.5 76.92 783.5 49.92" stroke="#598918" stroke-width="2" stroke-miterlimit="2.61313" stroke-linejoin="round"/>
<path d="M938.62 256.244C948.952 271.703 910.082 302.934 939.614 321.077C953.127 329.379 992.261 301.942 980.628 269.455C974.691 252.875 959.876 237.023 985.073 218.649C1017.65 194.898 986.364 171.081 1000.63 145.728C1009.96 129.134 976.512 131.096 988.671 106.303C999.056 85.1279 994.779 58.8289 979.892 33.9367C971.387 49.9961 963.527 48.1997 955.49 70.2824C950.701 83.4382 927.619 108.222 946.902 134.502C960.083 150.211 934.886 168.585 953.546 184.773C975.98 204.234 915.797 226.14 938.62 256.244Z" fill="#72B01E"/>
<path d="M939.614 321.077L940.137 320.225L940.137 320.225L939.614 321.077ZM938.62 256.244L939.417 255.64C939.429 255.655 939.44 255.672 939.451 255.688L938.62 256.244ZM953.546 184.773L952.891 185.528L952.891 185.528L953.546 184.773ZM946.902 134.502L946.136 135.145C946.122 135.129 946.109 135.112 946.096 135.094L946.902 134.502ZM955.49 70.2824L954.55 69.9404L954.55 69.9404L955.49 70.2824ZM979.892 33.9367L979.009 33.4687C979.178 33.1496 979.505 32.9464 979.866 32.9371C980.227 32.9277 980.565 33.1136 980.751 33.4234L979.892 33.9367ZM988.671 106.303L987.773 105.863L987.773 105.863L988.671 106.303ZM1000.63 145.728L999.757 145.237L999.757 145.237L1000.63 145.728ZM985.073 218.649L985.662 219.457L985.662 219.457L985.073 218.649ZM980.628 269.455L981.57 269.118L981.57 269.118L980.628 269.455ZM939.614 321.077L939.09 321.929C931.484 317.257 928.17 311.65 927.46 305.583C926.759 299.601 928.61 293.316 930.987 287.287C932.178 284.266 933.523 281.258 934.77 278.371C936.023 275.469 937.18 272.682 938.029 270.039C939.741 264.708 940.1 260.259 937.788 256.8L938.62 256.244L939.451 255.688C942.305 259.959 941.68 265.211 939.933 270.65C939.052 273.393 937.861 276.258 936.606 279.164C935.345 282.084 934.023 285.039 932.847 288.021C930.49 294 928.806 299.891 929.446 305.351C930.076 310.725 932.977 315.826 940.137 320.225L939.614 321.077ZM938.62 256.244L937.823 256.848C931.915 249.055 931.348 241.702 933.525 234.812C935.671 228.017 940.475 221.712 945.158 215.891C949.907 209.986 954.481 204.629 956.542 199.542C957.557 197.034 957.923 194.674 957.432 192.408C956.943 190.148 955.574 187.856 952.891 185.528L953.546 184.773L954.201 184.017C957.127 186.555 958.785 189.205 959.387 191.985C959.988 194.759 959.51 197.54 958.395 200.292C956.194 205.727 951.355 211.377 946.716 217.144C942.01 222.995 937.45 229.027 935.432 235.414C933.444 241.707 933.914 248.381 939.417 255.64L938.62 256.244ZM953.546 184.773L952.891 185.528C948.048 181.327 945.993 176.918 945.495 172.407C945.005 167.956 946.045 163.486 947.204 159.197C949.569 150.446 952.326 142.522 946.136 135.145L946.902 134.502L947.668 133.86C954.659 142.191 951.408 151.308 949.135 159.719C947.975 164.01 947.038 168.151 947.483 172.188C947.922 176.166 949.714 180.125 954.201 184.017L953.546 184.773ZM946.902 134.502L946.096 135.094C936.2 121.607 937.195 108.468 941.227 97.1354C943.236 91.4901 946.002 86.2768 948.541 81.6871C951.105 77.0527 953.388 73.134 954.55 69.9404L955.49 70.2824L956.429 70.6244C955.198 74.0086 952.799 78.1214 950.291 82.6552C947.758 87.2337 945.061 92.3256 943.111 97.8058C939.226 108.725 938.321 121.117 947.708 133.911L946.902 134.502ZM955.49 70.2824L954.55 69.9404C958.619 58.7599 962.67 53.5749 966.785 49.1683C970.857 44.8076 974.833 41.3529 979.009 33.4687L979.892 33.9367L980.776 34.4048C976.446 42.58 972.24 46.2567 968.246 50.5333C964.296 54.764 960.397 59.7221 956.429 70.6244L955.49 70.2824ZM979.892 33.9367L980.751 33.4234C995.736 58.4795 1000.16 85.1518 989.569 106.744L988.671 106.303L987.773 105.863C997.954 85.104 993.823 59.1784 979.034 34.45L979.892 33.9367ZM988.671 106.303L989.569 106.744C986.609 112.779 986.501 117.017 987.664 120.251C988.845 123.537 991.4 125.987 994.227 128.319C995.605 129.456 997.099 130.606 998.401 131.747C999.717 132.9 1000.94 134.128 1001.83 135.512C1002.73 136.912 1003.3 138.479 1003.3 140.288C1003.29 142.086 1002.73 144.038 1001.5 146.218L1000.63 145.728L999.757 145.237C1000.86 143.269 1001.29 141.652 1001.3 140.285C1001.3 138.928 1000.88 137.732 1000.15 136.595C999.406 135.442 998.347 134.359 997.082 133.251C995.803 132.129 994.414 131.066 992.954 129.861C990.105 127.511 987.161 124.765 985.781 120.928C984.383 117.038 984.653 112.224 987.773 105.863L988.671 106.303ZM1000.63 145.728L1001.5 146.218C998.055 152.34 997.35 158.374 997.758 164.41C998.172 170.524 999.7 176.458 1000.7 182.629C1001.69 188.723 1002.13 194.906 1000.19 201.1C998.245 207.316 993.938 213.423 985.662 219.457L985.073 218.649L984.484 217.841C992.495 212 996.492 206.223 998.285 200.502C1000.09 194.758 999.704 188.948 998.729 182.95C997.767 177.028 996.185 170.77 995.763 164.545C995.336 158.242 996.069 151.792 999.757 145.237L1000.63 145.728ZM985.073 218.649L985.662 219.457C979.452 223.986 975.786 228.303 973.817 232.438C971.855 236.556 971.541 240.57 972.163 244.571C972.79 248.598 974.364 252.607 976.188 256.699C977.994 260.75 980.069 264.926 981.57 269.118L980.628 269.455L979.687 269.792C978.219 265.695 976.215 261.671 974.361 257.513C972.526 253.395 970.857 249.184 970.187 244.879C969.514 240.548 969.849 236.117 972.011 231.578C974.165 227.055 978.096 222.499 984.484 217.841L985.073 218.649ZM980.628 269.455L981.57 269.118C987.56 285.847 980.446 301.22 970.253 311.274C965.153 316.305 959.235 320.057 953.693 322.024C948.197 323.976 942.851 324.24 939.09 321.929L939.614 321.077L940.137 320.225C943.132 322.065 947.746 322.013 953.024 320.14C958.257 318.282 963.93 314.701 968.849 309.85C978.693 300.14 985.33 285.551 979.687 269.792L980.628 269.455Z" fill="#598918"/>
<path d="M939.614 321.077C954.557 322.384 965.981 300.798 964.568 271.062C963.731 253.47 946.935 237.397 972.132 219.023C997.329 200.649 996.392 173.088 981.523 153.718C969.93 138.615 966.877 130.486 979.036 105.693C989.541 84.2723 988.813 60.5952 979.892 33.9366" stroke="#598918" stroke-width="2" stroke-miterlimit="2.61313" stroke-linejoin="round"/>
<path d="M939.614 321.077C952.894 312.703 959.388 278.639 956.903 266.878C950.169 235 950.49 231.183 970.581 202.324C990.673 173.465 962.296 176.566 964.736 148.672C964.948 146.257 970.204 134.603 965.517 108.518C960.83 82.4321 979.037 59.4421 979.721 34.4064" stroke="#598918" stroke-width="2" stroke-miterlimit="2.61313" stroke-linejoin="round"/>
<path d="M939.614 321.077C940.086 286.989 939.992 290.541 946 273.5C950.806 259.867 940.609 240.859 958.253 211.284C975.898 181.709 955.601 189.972 958.041 162.078C960.482 134.185 941.513 119.832 957.58 92.7742C973.646 65.7168 966.557 58.8798 979.55 34.8762" stroke="#598918" stroke-width="2" stroke-miterlimit="2.61313" stroke-linejoin="round"/>
<path d="M607 68.498C621.997 57.5049 621.045 17.0419 655 10.0935C670.538 6.91397 681.543 55.0446 659.5 81.5935C648.25 95.1434 631.607 98.6143 649 124.498C671.484 157.957 644.268 180.297 649 209C652.215 228.5 634.088 231 635 239.5C637.516 262.95 629.503 264.201 607 282.5C608.502 265.303 572.978 259.851 581.5 243.5C587.971 231.085 568.891 209.601 596 191.5C613.759 181.247 576.929 146.33 600 137.5C627.737 126.885 575.258 88.9804 607 68.498Z" fill="#72B01E"/>
<path d="M655 10.0935L655.201 11.0732L655.201 11.0732L655 10.0935ZM607 68.498L607.542 69.3382C607.559 69.3275 607.575 69.3162 607.591 69.3045L607 68.498ZM600 137.5L599.643 136.566L599.643 136.566L600 137.5ZM596 191.5L595.5 190.634C595.481 190.645 595.463 190.656 595.445 190.668L596 191.5ZM581.5 243.5L582.387 243.962L581.5 243.5ZM607 282.5L606.004 282.413C605.969 282.813 606.177 283.195 606.532 283.383C606.886 283.572 607.319 283.529 607.631 283.276L607 282.5ZM635 239.5L634.006 239.607L634.006 239.607L635 239.5ZM649 209L648.013 209.163L648.013 209.163L649 209ZM649 124.498L648.17 125.056L648.17 125.056L649 124.498ZM659.5 81.5935L660.269 82.2323L660.269 82.2323L659.5 81.5935ZM655 10.0935L654.8 9.11379C637.357 12.6831 628.915 24.8935 622.988 37.3493C621.506 40.4623 620.176 43.603 618.903 46.6321C617.627 49.6688 616.411 52.586 615.146 55.2877C612.604 60.7177 609.94 65.1033 606.409 67.6915L607 68.498L607.591 69.3045C611.559 66.3962 614.399 61.6014 616.958 56.1356C618.243 53.3895 619.476 50.4299 620.747 47.407C622.02 44.3765 623.334 41.2749 624.794 38.2087C630.628 25.9475 638.688 14.4523 655.201 11.0732L655 10.0935ZM607 68.498L606.458 67.6577C602.376 70.2916 599.597 73.2394 597.847 76.4269C596.096 79.6161 595.404 82.9906 595.416 86.4313C595.439 93.2614 598.244 100.429 601.078 107.091C602.508 110.454 603.946 113.682 605.098 116.754C606.25 119.826 607.087 122.664 607.336 125.218C607.584 127.759 607.244 129.953 606.11 131.805C604.975 133.657 602.97 135.293 599.643 136.566L600 137.5L600.357 138.434C603.965 137.053 606.386 135.183 607.815 132.85C609.244 130.517 609.602 127.848 609.327 125.023C609.052 122.21 608.144 119.179 606.971 116.052C605.798 112.926 604.33 109.626 602.918 106.308C600.067 99.6064 597.438 92.7938 597.416 86.4244C597.405 83.2653 598.037 80.2353 599.6 77.3896C601.164 74.5422 603.688 71.825 607.542 69.3382L607 68.498ZM600 137.5L599.643 136.566C596.611 137.726 594.479 139.349 593.105 141.373C591.733 143.394 591.176 145.727 591.139 148.206C591.067 153.1 593.031 158.791 595.07 164.313C597.144 169.93 599.303 175.393 599.88 180.1C600.166 182.434 600.049 184.496 599.389 186.245C598.738 187.969 597.532 189.461 595.5 190.634L596 191.5L596.5 192.366C598.908 190.976 600.436 189.133 601.26 186.951C602.075 184.794 602.174 182.376 601.865 179.857C601.252 174.858 598.976 169.117 596.946 163.62C594.881 158.027 593.073 152.692 593.139 148.235C593.171 146.038 593.661 144.115 594.76 142.497C595.857 140.881 597.621 139.481 600.357 138.434L600 137.5ZM596 191.5L595.445 190.668C588.542 195.277 584.51 200.15 582.295 205.107C580.082 210.059 579.721 215.007 580.013 219.694C580.159 222.035 580.468 224.321 580.795 226.511C581.123 228.715 581.465 230.797 581.69 232.795C582.141 236.803 582.085 240.215 580.613 243.038L581.5 243.5L582.387 243.962C584.151 240.578 584.136 236.648 583.677 232.571C583.447 230.526 583.095 228.379 582.773 226.216C582.448 224.039 582.149 221.822 582.009 219.57C581.729 215.072 582.085 210.479 584.121 205.923C586.155 201.373 589.904 196.773 596.555 192.332L596 191.5ZM581.5 243.5L580.613 243.038C579.474 245.224 579.042 247.287 579.214 249.252C579.386 251.212 580.15 252.995 581.275 254.639C583.497 257.884 587.24 260.731 591.029 263.491C594.881 266.297 598.816 269.036 601.721 272.135C604.606 275.211 606.345 278.508 606.004 282.413L607 282.5L607.996 282.587C608.406 277.893 606.268 274.06 603.18 270.767C600.113 267.495 595.982 264.625 592.206 261.875C588.367 259.078 584.92 256.422 582.925 253.509C581.942 252.073 581.341 250.613 581.207 249.078C581.073 247.548 581.396 245.864 582.387 243.962L581.5 243.5ZM607 282.5L607.631 283.276C613.255 278.702 617.931 275.228 621.842 272.144C625.723 269.084 628.832 266.421 631.158 263.563C635.9 257.736 637.266 251.243 635.994 239.393L635 239.5L634.006 239.607C635.25 251.207 633.868 257.065 629.607 262.3C627.431 264.974 624.475 267.52 620.603 270.574C616.761 273.604 611.997 277.148 606.369 281.724L607 282.5ZM635 239.5L635.994 239.393C635.81 237.68 636.557 236.203 638.007 234.55C638.732 233.723 639.599 232.89 640.562 231.984C641.514 231.088 642.557 230.124 643.58 229.073C645.634 226.963 647.669 224.447 648.97 221.166C650.276 217.872 650.817 213.875 649.987 208.837L649 209L648.013 209.163C648.79 213.875 648.271 217.503 647.111 220.428C645.946 223.365 644.11 225.662 642.147 227.677C641.162 228.689 640.161 229.615 639.191 230.528C638.232 231.43 637.299 232.324 636.503 233.231C634.911 235.047 633.733 237.07 634.006 239.607L635 239.5ZM649 209L649.987 208.837C648.833 201.839 649.621 195.203 651.14 188.618C651.9 185.322 652.84 182.052 653.808 178.753C654.774 175.463 655.77 172.14 656.626 168.78C658.34 162.052 659.515 155.099 658.816 147.687C658.115 140.262 655.538 132.434 649.83 123.94L649 124.498L648.17 125.056C653.705 133.292 656.157 140.804 656.825 147.875C657.493 154.959 656.376 161.658 654.688 168.286C653.843 171.603 652.86 174.883 651.889 178.19C650.921 181.489 649.966 184.81 649.191 188.168C647.641 194.89 646.801 201.81 648.013 209.163L649 209ZM649 124.498L649.83 123.94C645.52 117.526 643.383 112.592 642.707 108.612C642.038 104.677 642.789 101.63 644.372 98.9257C645.983 96.1736 648.466 93.7526 651.344 91.1104C654.19 88.497 657.403 85.6849 660.269 82.2323L659.5 81.5935L658.731 80.9547C655.972 84.277 652.885 86.98 649.991 89.6371C647.128 92.2655 644.428 94.8705 642.646 97.9154C640.836 101.008 639.984 104.529 640.735 108.947C641.478 113.322 643.784 118.529 648.17 125.056L649 124.498ZM659.5 81.5935L660.269 82.2323C671.522 68.6788 674.296 49.699 672.334 34.5668C671.353 26.9958 669.176 20.293 666.2 15.6508C663.247 11.0453 659.297 8.1934 654.8 9.11379L655 10.0935L655.201 11.0732C658.472 10.4038 661.724 12.3759 664.516 16.7303C667.284 21.0481 669.394 27.4411 670.351 34.8239C672.266 49.5993 669.52 67.9593 658.731 80.9547L659.5 81.5935Z" fill="#598918"/>
<path d="M656 10.0935C670.489 13.9758 658.499 41.134 647 68.5935C640.197 84.8381 616.107 96.6143 633.5 122.498C650.893 148.382 659.596 167.884 639 181C622.94 191.227 636 198.5 624 225C614.271 246.485 601.003 263.201 578.5 281.5" stroke="#598918" stroke-width="2" stroke-miterlimit="2.61313" stroke-linejoin="round"/>
<path d="M657 10.0935C666.615 22.5049 637.857 55.8912 631.5 66.0935C620.697 83.43 613.377 101.508 622.387 135.498C631.397 169.488 627.747 161.454 620.5 188.5C615.572 206.891 606.054 202.044 609 229.5C611.946 256.956 571.166 259.789 563.247 283.549" stroke="#598918" stroke-width="2" stroke-miterlimit="2.61313" stroke-linejoin="round"/>
<path d="M657.5 11.0935C646.285 43.2878 627.183 37.0251 627 55.0935C626.854 69.5482 606.035 79.672 612.5 113.498C618.966 147.324 619.011 155 612.5 167.5C605.99 180 595.261 203.047 595 233C594.739 262.953 568.821 255.019 562.764 283.419" stroke="#598918" stroke-width="2" stroke-miterlimit="2.61313" stroke-linejoin="round"/>
<path d="M524.762 280.297C517.271 297.316 538.327 331.882 512.395 354.877C500.529 365.4 466.933 329.22 472.748 295.206C475.716 277.847 488.394 266.519 460.389 252.8C424.187 235.065 460.958 201.321 442.508 178.83C430.433 164.11 468.549 155.298 452.27 132.993C438.365 113.943 445.367 97.573 455.706 70.4738C463.003 86.1181 482.262 84.5812 483.057 103.003C483.661 116.99 515.557 131.565 501.13 160.795C490.877 178.553 506.031 190.85 490.465 210.032C471.752 233.093 542.01 246.688 524.762 280.297Z" fill="#72B01E"/>
<path d="M512.395 354.877L513.058 355.625L513.058 355.625L512.395 354.877ZM524.762 280.297L523.872 279.841C523.863 279.859 523.854 279.876 523.846 279.895L524.762 280.297ZM490.465 210.032L489.689 209.402L489.689 209.402L490.465 210.032ZM501.13 160.795L501.996 161.295C502.007 161.276 502.017 161.257 502.027 161.237L501.13 160.795ZM483.057 103.003L484.056 102.96L484.056 102.96L483.057 103.003ZM455.706 70.4738L456.612 70.0511C456.442 69.6871 456.071 69.46 455.67 69.4745C455.268 69.4889 454.915 69.7421 454.771 70.1174L455.706 70.4738ZM452.27 132.993L453.078 132.404L453.078 132.404L452.27 132.993ZM442.508 178.83L443.281 178.196L443.281 178.196L442.508 178.83ZM460.389 252.8L460.829 251.902L460.829 251.902L460.389 252.8ZM472.748 295.206L471.762 295.038L471.762 295.038L472.748 295.206ZM512.395 354.877L513.058 355.625C526.379 343.813 527.585 329.017 526.49 315.267C526.217 311.83 525.799 308.445 525.386 305.185C524.973 301.917 524.568 298.783 524.312 295.811C523.798 289.838 523.913 284.707 525.677 280.7L524.762 280.297L523.846 279.895C521.865 284.397 521.802 289.97 522.319 295.982C522.579 299.003 522.991 302.183 523.402 305.436C523.814 308.697 524.227 312.041 524.497 315.426C525.574 328.961 524.342 342.946 511.731 354.129L512.395 354.877ZM524.762 280.297L525.651 280.754C527.88 276.412 528.717 272.345 528.471 268.51C528.224 264.681 526.901 261.148 524.902 257.863C520.929 251.329 514.208 245.657 507.69 240.429C501.091 235.136 494.748 230.329 491.162 225.423C489.387 222.994 488.359 220.631 488.273 218.257C488.187 215.905 489.02 213.4 491.242 210.662L490.465 210.032L489.689 209.402C487.232 212.429 486.167 215.393 486.274 218.33C486.381 221.245 487.637 223.99 489.548 226.604C493.333 231.783 499.968 236.799 506.438 241.989C512.99 247.244 519.43 252.713 523.194 258.902C525.064 261.978 526.254 265.201 526.475 268.639C526.696 272.071 525.956 275.781 523.872 279.841L524.762 280.297ZM490.465 210.032L491.242 210.662C495.222 205.757 497.267 201.253 498.232 196.963C499.194 192.687 499.07 188.676 498.787 184.807C498.221 177.038 497.052 169.859 501.996 161.295L501.13 160.795L500.264 160.295C494.956 169.489 496.237 177.337 496.793 184.952C497.071 188.774 497.176 192.545 496.281 196.524C495.389 200.489 493.491 204.716 489.689 209.402L490.465 210.032ZM501.13 160.795L502.027 161.237C505.72 153.755 506.472 147.151 505.463 141.232C504.458 135.335 501.717 130.197 498.553 125.615C496.97 123.323 495.273 121.157 493.625 119.103C491.969 117.038 490.376 115.101 488.964 113.222C486.113 109.432 484.192 106.119 484.056 102.96L483.057 103.003L482.058 103.046C482.223 106.881 484.516 110.635 487.365 114.424C488.802 116.336 490.431 118.317 492.064 120.354C493.706 122.401 495.367 124.52 496.907 126.751C499.989 131.215 502.555 136.075 503.492 141.568C504.424 147.041 503.754 153.219 500.234 160.352L501.13 160.795ZM483.057 103.003L484.056 102.96C483.849 98.1608 482.431 94.6058 480.272 91.7462C478.134 88.9129 475.303 86.8122 472.374 84.8641C466.444 80.9211 460.114 77.5582 456.612 70.0511L455.706 70.4738L454.799 70.8966C458.595 79.0337 465.544 82.7246 471.266 86.5296C474.163 88.4555 476.752 90.4025 478.676 92.9511C480.58 95.4734 481.867 98.6345 482.058 103.046L483.057 103.003ZM455.706 70.4738L454.771 70.1174C449.622 83.6141 445.229 94.6144 443.905 104.621C442.569 114.724 444.351 123.84 451.462 133.583L452.27 132.993L453.078 132.404C446.285 123.097 444.615 114.502 445.888 104.883C447.174 95.167 451.451 84.4327 456.64 70.8303L455.706 70.4738ZM452.27 132.993L451.462 133.583C455.385 138.957 455.954 143.386 454.947 147.242C453.917 151.185 451.205 154.682 448.213 158.097C446.746 159.772 445.18 161.462 443.815 163.099C442.44 164.746 441.196 166.422 440.334 168.148C439.468 169.882 438.967 171.707 439.132 173.635C439.298 175.568 440.125 177.502 441.735 179.464L442.508 178.83L443.281 178.196C441.873 176.479 441.249 174.916 441.125 173.464C441 172.005 441.368 170.552 442.123 169.041C442.882 167.523 444.01 165.987 445.351 164.38C446.701 162.762 448.193 161.155 449.718 159.415C452.71 155.999 455.721 152.191 456.882 147.748C458.065 143.219 457.295 138.181 453.078 132.404L452.27 132.993ZM442.508 178.83L441.735 179.464C446.141 184.835 447.276 190.888 446.996 197.339C446.712 203.856 445.005 210.59 443.807 217.426C442.622 224.178 441.953 230.971 443.965 237.229C445.997 243.549 450.708 249.171 459.949 253.698L460.389 252.8L460.829 251.902C451.968 247.562 447.701 242.315 445.869 236.617C444.017 230.857 444.599 224.484 445.776 217.772C446.939 211.143 448.703 204.116 448.994 197.426C449.288 190.67 448.101 184.071 443.281 178.196L442.508 178.83ZM460.389 252.8L459.949 253.698C466.889 257.098 471.206 260.303 473.782 263.411C476.329 266.485 477.202 269.499 477.183 272.632C477.164 275.821 476.224 279.159 475.053 282.886C473.894 286.573 472.518 290.615 471.762 295.038L472.748 295.206L473.733 295.375C474.461 291.118 475.783 287.234 476.961 283.486C478.126 279.778 479.162 276.172 479.183 272.644C479.204 269.061 478.181 265.586 475.322 262.135C472.491 258.718 467.891 255.362 460.829 251.902L460.389 252.8ZM472.748 295.206L471.762 295.038C468.793 312.402 475.882 330.226 485.146 342.35C489.782 348.416 495.018 353.132 499.917 355.664C504.777 358.176 509.623 358.671 513.058 355.625L512.395 354.877L511.731 354.129C509.233 356.344 505.43 356.263 500.835 353.888C496.279 351.532 491.255 347.051 486.735 341.136C477.689 329.297 470.887 312.024 473.733 295.375L472.748 295.206Z" fill="#598918"/>
<path d="M511.529 355.377C497.04 359.259 493.844 329.745 490.073 300.215C487.842 282.745 502.817 260.501 474.812 246.782C446.807 233.063 447.139 208.045 458.418 186.387C467.213 169.501 480.762 160.307 464.483 138.003C450.578 118.953 445.367 97.573 455.706 70.4738" stroke="#598918" stroke-width="2" stroke-miterlimit="2.61313" stroke-linejoin="round"/>
<path d="M510.663 355.877C496.13 349.936 504.342 306.644 504.746 294.63C505.433 274.215 502.734 254.898 477.936 229.967C453.139 205.036 484.883 197.719 477.636 170.673C472.708 152.283 486.738 147.836 470.458 125.531C454.179 103.227 460.15 96.7177 455.128 72.1813" stroke="#598918" stroke-width="2" stroke-miterlimit="2.61313" stroke-linejoin="round"/>
<path d="M509.73 355.261C503.345 321.773 523.019 317.645 514.144 301.906C507.043 289.315 520.011 270.138 497.499 244.076C474.986 218.015 487.329 216.461 486.154 189.427C484.979 162.392 498.119 147.625 483.369 121.554C468.619 95.4838 464.566 99.6757 455.611 72.0521" stroke="#598918" stroke-width="2" stroke-miterlimit="2.61313" stroke-linejoin="round"/>
<path d="M671.151 158.513C643.695 149.646 679.295 124.076 668.613 80.7727C690.626 84.6763 732.737 104.092 718.366 135.464C711.401 150.67 703.014 177.588 729.716 193.696C745.037 205.719 735.68 216 734.461 235C733.242 254 754.176 272.325 761.414 298.973C767.203 320.292 738.331 350.43 718.711 364.89C716.974 355.042 707.755 337.882 691.376 316.4C674.996 294.918 692.663 279.886 680.762 255.583C666.457 237.797 657.855 232.206 673.5 200C676.48 193.865 696.986 169.697 671.151 158.513Z" fill="#C1E967"/>
<path d="M668.613 80.7727L668.788 79.7881C668.455 79.729 668.114 79.8424 667.883 80.0894C667.652 80.3365 667.561 80.6837 667.642 81.0122L668.613 80.7727ZM671.151 158.513L671.549 157.595C671.519 157.583 671.489 157.571 671.459 157.561L671.151 158.513ZM673.5 200L672.601 199.563L672.601 199.563L673.5 200ZM680.762 255.583L681.66 255.144C681.628 255.077 681.588 255.014 681.542 254.957L680.762 255.583ZM718.711 364.89L717.726 365.063C717.786 365.404 718.018 365.69 718.339 365.818C718.661 365.947 719.026 365.9 719.304 365.695L718.711 364.89ZM729.716 193.696L730.334 192.91C730.302 192.884 730.268 192.861 730.233 192.84L729.716 193.696ZM718.366 135.464L719.276 135.881L719.276 135.881L718.366 135.464ZM668.613 80.7727L667.642 81.0122C672.906 102.351 666.782 119.308 662.639 132.252C661.607 135.479 660.689 138.484 660.12 141.234C659.551 143.982 659.314 146.542 659.686 148.873C660.063 151.23 661.059 153.326 662.9 155.119C664.722 156.895 667.324 158.328 670.844 159.465L671.151 158.513L671.459 157.561C668.115 156.482 665.823 155.176 664.295 153.687C662.785 152.215 661.975 150.521 661.661 148.557C661.343 146.567 661.532 144.277 662.078 141.64C662.624 139.005 663.511 136.091 664.544 132.861C668.668 119.977 675.002 102.497 669.584 80.5332L668.613 80.7727ZM671.151 158.513L670.754 159.431C677.045 162.154 680.377 165.603 681.915 169.24C683.461 172.894 683.267 176.906 682.167 180.883C681.067 184.862 679.083 188.72 677.161 191.996C676.201 193.632 675.266 195.109 674.467 196.384C673.681 197.639 673.002 198.737 672.601 199.563L673.5 200L674.4 200.437C674.744 199.729 675.357 198.73 676.162 197.446C676.954 196.181 677.908 194.676 678.886 193.008C680.839 189.679 682.926 185.645 684.095 181.417C685.265 177.187 685.54 172.676 683.757 168.461C681.968 164.23 678.175 160.464 671.549 157.595L671.151 158.513ZM673.5 200L672.601 199.563C664.758 215.707 662.854 225.438 664.932 233.45C665.968 237.445 667.974 240.935 670.584 244.513C673.175 248.065 676.444 251.81 679.983 256.21L680.762 255.583L681.542 254.957C677.927 250.463 674.757 246.84 672.2 243.335C669.663 239.856 667.815 236.6 666.868 232.948C664.979 225.666 666.597 216.499 674.4 200.437L673.5 200ZM680.762 255.583L679.864 256.023C685.674 267.886 684.279 277.442 683.394 286.957C682.505 296.513 682.158 305.96 690.58 317.006L691.376 316.4L692.171 315.794C684.214 305.358 684.511 296.548 685.385 287.142C686.264 277.695 687.752 267.583 681.66 255.144L680.762 255.583ZM691.376 316.4L690.58 317.006C698.749 327.72 705.12 337.34 709.661 345.494C714.211 353.667 716.887 360.304 717.726 365.063L718.711 364.89L719.696 364.716C718.798 359.628 715.996 352.76 711.408 344.521C706.81 336.263 700.382 326.562 692.171 315.794L691.376 316.4ZM718.711 364.89L719.304 365.695C729.177 358.419 741.376 347.202 750.393 335.101C754.902 329.05 758.64 322.745 760.883 316.575C763.125 310.406 763.898 304.305 762.379 298.711L761.414 298.973L760.449 299.235C761.824 304.301 761.159 309.961 759.003 315.891C756.848 321.819 753.227 327.95 748.789 333.906C739.913 345.818 727.865 356.901 718.118 364.085L718.711 364.89ZM761.414 298.973L762.379 298.711C758.718 285.231 751.591 273.86 745.63 263.616C739.618 253.283 734.872 244.213 735.459 235.064L734.461 235L733.463 234.936C732.831 244.788 737.942 254.38 743.902 264.622C749.913 274.952 756.872 286.067 760.449 299.235L761.414 298.973ZM734.461 235L735.459 235.064C735.759 230.388 736.56 226.241 737.367 222.428C738.168 218.642 738.992 215.121 739.287 211.82C739.585 208.492 739.355 205.308 738.012 202.158C736.671 199.011 734.257 195.988 730.334 192.91L729.716 193.696L729.099 194.483C732.836 197.415 734.998 200.186 736.173 202.942C737.346 205.695 737.574 208.523 737.295 211.642C737.014 214.79 736.227 218.153 735.41 222.014C734.599 225.849 733.773 230.111 733.463 234.936L734.461 235ZM729.716 193.696L730.233 192.84C717.189 184.972 712.775 174.535 712.415 164.207C712.053 153.801 715.811 143.443 719.276 135.881L718.366 135.464L717.457 135.048C713.956 142.691 710.038 153.395 710.417 164.277C710.798 175.237 715.541 186.313 729.2 194.553L729.716 193.696ZM718.366 135.464L719.276 135.881C722.972 127.812 723.056 120.445 720.691 113.893C718.338 107.372 713.59 101.742 707.761 97.0394C696.117 87.6456 679.917 81.7616 668.788 79.7881L668.613 80.7727L668.439 81.7573C679.322 83.6873 695.184 89.463 706.506 98.5961C712.16 103.157 716.621 108.507 718.81 114.572C720.988 120.606 720.947 127.43 717.457 135.048L718.366 135.464Z" fill="#93B34B"/>
<path d="M668.613 80.7727C691.5 91.5 708.253 99.8155 701.5 133.5C698.212 149.899 720.267 196.037 716.5 221C712.733 245.963 732.804 246.138 731.585 265.139C730.366 284.139 739.722 282.489 746.959 309.138C752.749 330.456 733.951 333.263 718.711 364.89" stroke="#93B34B" stroke-width="2" stroke-miterlimit="2.61313" stroke-linejoin="round"/>
<path d="M668.613 80.7727C688.973 95.4604 672.996 102.817 681.729 120.6C714.999 188.352 688.133 182.219 704 217.5C719.867 252.781 711.843 257.65 720.606 277.737C726.571 291.409 747.626 301.404 729.288 326.977C722.247 336.796 728.156 346.47 718.711 364.89" stroke="#93B34B" stroke-width="2" stroke-miterlimit="2.61313" stroke-linejoin="round"/>
<path d="M668.613 80.7727C684.078 99.3699 663.65 119.975 674.399 136.617C704.428 183.108 686.355 208.55 682.5 227C678.645 245.45 703.839 251.753 712.959 277.562C717.929 291.626 694.072 297.139 713.851 320.052C721.747 329.199 721.06 343.659 718.711 364.89" stroke="#93B34B" stroke-width="2" stroke-miterlimit="2.61313" stroke-linejoin="round"/>
<path d="M296.247 140.197C268.79 131.33 291.445 92.8106 306.418 61.7386C317.681 88.1845 363.763 89.8071 349.393 121.179C342.427 136.385 313.326 167.14 329.253 191.241C344.573 203.263 350.612 209.488 349.393 228.488C348.173 247.488 375.16 252.884 382.398 279.532C388.188 300.851 356.128 333.908 336.507 348.368C334.771 338.52 340.496 319.741 324.117 298.258C307.738 276.776 308.148 264.803 296.247 240.5C281.941 222.714 263.355 223.447 279 191.241C281.98 185.106 322.081 151.381 296.247 140.197Z" fill="#C1E967"/>
<path d="M306.418 61.7386L307.338 61.3468C307.184 60.9857 306.833 60.748 306.441 60.7389C306.049 60.7298 305.687 60.951 305.517 61.3045L306.418 61.7386ZM296.247 140.197L296.644 139.279C296.615 139.266 296.585 139.255 296.554 139.245L296.247 140.197ZM279 191.241L278.101 190.804L278.101 190.804L279 191.241ZM296.247 240.5L297.145 240.06C297.112 239.994 297.072 239.931 297.026 239.873L296.247 240.5ZM336.507 348.368L335.522 348.542C335.582 348.883 335.814 349.168 336.136 349.297C336.457 349.425 336.822 349.378 337.1 349.173L336.507 348.368ZM329.253 191.241L328.418 191.792C328.478 191.882 328.551 191.961 328.635 192.028L329.253 191.241ZM349.393 121.179L350.302 121.596L350.302 121.596L349.393 121.179ZM306.418 61.7386L305.517 61.3045C298.069 76.7611 288.593 94.2903 284.459 109.024C282.39 116.395 281.607 123.228 283.185 128.837C284.788 134.536 288.791 138.84 295.939 141.148L296.247 140.197L296.554 139.245C289.974 137.12 286.513 133.284 285.11 128.296C283.681 123.218 284.349 116.816 286.384 109.565C290.456 95.0546 299.794 77.7882 307.319 62.1727L306.418 61.7386ZM296.247 140.197L295.849 141.114C298.953 142.458 300.982 144.103 302.22 145.914C303.452 147.716 303.951 149.757 303.871 151.992C303.708 156.526 301.165 161.784 297.601 167.052C294.058 172.288 289.614 177.385 285.841 181.581C283.964 183.669 282.24 185.55 280.902 187.089C279.593 188.594 278.542 189.895 278.101 190.804L279 191.241L279.899 191.678C280.203 191.053 281.057 189.958 282.411 188.401C283.735 186.878 285.431 185.03 287.329 182.918C291.106 178.717 295.631 173.532 299.257 168.173C302.862 162.845 305.686 157.19 305.869 152.064C305.962 149.469 305.379 146.992 303.871 144.785C302.368 142.587 299.999 140.731 296.644 139.279L296.247 140.197ZM279 191.241L278.101 190.804C274.164 198.908 272.328 205.042 272.084 209.974C271.838 214.957 273.219 218.665 275.587 221.872C277.914 225.023 281.2 227.69 284.675 230.596C288.181 233.528 291.958 236.763 295.468 241.127L296.247 240.5L297.026 239.873C293.383 235.344 289.472 232.001 285.958 229.062C282.413 226.097 279.348 223.599 277.196 220.684C275.085 217.825 273.859 214.567 274.082 210.073C274.306 205.529 276.014 199.677 279.899 191.678L279 191.241ZM296.247 240.5L295.349 240.94C301.276 253.043 304.115 262.024 307.572 270.803C311.03 279.583 315.064 288.033 323.322 298.865L324.117 298.258L324.913 297.652C316.792 287.001 312.841 278.723 309.433 270.07C306.025 261.417 303.119 252.259 297.145 240.06L296.247 240.5ZM324.117 298.258L323.322 298.865C331.378 309.431 333.989 319.31 334.808 327.772C335.218 332.018 335.179 335.91 335.142 339.394C335.106 342.843 335.068 345.968 335.522 348.542L336.507 348.368L337.492 348.195C337.077 345.844 337.105 342.929 337.142 339.415C337.178 335.938 337.221 331.946 336.799 327.58C335.951 318.82 333.235 308.568 324.913 297.652L324.117 298.258ZM336.507 348.368L337.1 349.173C346.976 341.895 359.967 329.951 369.776 317.13C374.68 310.719 378.815 304.054 381.359 297.616C383.899 291.186 384.888 284.888 383.363 279.27L382.398 279.532L381.433 279.794C382.802 284.836 381.955 290.665 379.499 296.881C377.047 303.088 373.026 309.589 368.187 315.915C358.508 328.566 345.659 340.381 335.914 347.563L336.507 348.368ZM382.398 279.532L383.363 279.27C379.662 265.642 370.898 257.459 363.409 250.414C355.828 243.282 349.816 237.504 350.39 228.552L349.393 228.488L348.395 228.424C347.75 238.472 354.622 244.893 362.039 251.871C369.548 258.936 377.897 266.774 381.433 279.794L382.398 279.532ZM349.393 228.488L350.39 228.552C351.008 218.935 349.796 212.402 346.382 206.732C343 201.117 337.512 196.451 329.87 190.454L329.253 191.241L328.635 192.028C336.314 198.053 341.505 202.51 344.668 207.764C347.798 212.961 348.997 219.041 348.395 228.424L349.393 228.488ZM329.253 191.241L330.087 190.689C322.432 179.107 325.517 165.842 331.636 153.313C334.686 147.07 338.45 141.091 341.909 135.692C345.346 130.328 348.523 125.478 350.302 121.596L349.393 121.179L348.483 120.763C346.779 124.483 343.706 129.18 340.225 134.613C336.767 140.01 332.945 146.077 329.839 152.436C323.648 165.112 320.146 179.274 328.418 191.792L329.253 191.241ZM349.393 121.179L350.302 121.596C353.99 113.543 353.858 107.236 351.22 101.93C348.621 96.7057 343.664 92.6131 338.083 88.7869C332.413 84.8989 326.18 81.3288 320.514 76.9782C314.898 72.6655 310.058 67.7324 307.338 61.3468L306.418 61.7386L305.498 62.1305C308.41 68.9677 313.554 74.1547 319.296 78.5645C324.99 82.9365 331.491 86.6914 336.952 90.4363C342.504 94.243 347.077 98.0912 349.429 102.821C351.741 107.469 351.98 113.129 348.483 120.763L349.393 121.179Z" fill="#93B34B"/>
<path d="M306.54 63.2402C309.926 82.4439 338.753 88.3155 332 122C328.712 138.399 330.768 124.971 323.089 147.649C315.411 170.327 323.65 199.412 336.507 220.5C346.418 236.756 338.628 253.052 372.164 287.756C387.515 303.641 351.747 316.741 336.507 348.368" stroke="#93B34B" stroke-width="2" stroke-miterlimit="2.61313" stroke-linejoin="round"/>
<path d="M306.852 64.2006C312.7 82.9702 303.819 93.1375 312.551 110.921C334.197 155 295.716 174.174 317 208.5C338.284 242.826 328.155 243.421 336.918 263.508C342.883 277.18 369.789 288.682 351.451 314.255C344.41 324.074 345.952 329.948 336.507 348.368" stroke="#93B34B" stroke-width="2" stroke-miterlimit="2.61313" stroke-linejoin="round"/>
<path d="M306.099 62.8102C312.468 84.5343 285.756 92.5386 296.506 109.181C326.535 155.672 300.36 176.814 296.506 195.263C292.651 213.713 314.58 235.232 323.7 261.04C328.67 275.104 318.443 280.473 338.223 303.387C346.118 312.534 338.856 327.138 336.507 348.368" stroke="#93B34B" stroke-width="2" stroke-miterlimit="2.61313" stroke-linejoin="round"/>
<path d="M71.9827 269.211C99.4395 278.078 76.7842 316.598 61.8116 347.67C50.5482 321.224 5.1294 300.583 19.5 269.211C26.4654 254.006 47.6494 247.1 31.7225 223C16.4021 210.978 4.36821 198.681 11.2275 180.92C19.5 159.5 9.73734 149.648 2.5 123C-3.28988 101.682 12.102 75.5001 31.7225 61.04L31.7724 61.3231C33.5202 71.2424 36.7765 89.722 53 111C69.3792 132.482 44.658 143.04 56.559 167.342C70.8648 185.128 93.1452 190.794 77.5 223C74.52 229.135 46.1482 258.028 71.9827 269.211Z" fill="#C1E967"/>
<path d="M61.8116 347.67L60.8916 348.061C61.0454 348.422 61.3961 348.66 61.7884 348.669C62.1808 348.678 62.5422 348.457 62.7125 348.104L61.8116 347.67ZM71.9827 269.211L71.5855 270.129C71.6149 270.142 71.6449 270.153 71.6754 270.163L71.9827 269.211ZM77.5 223L78.3995 223.437L78.3995 223.437L77.5 223ZM56.559 167.342L55.6609 167.782C55.6934 167.848 55.7333 167.911 55.7797 167.969L56.559 167.342ZM53 111L52.2048 111.606L52.2048 111.606L53 111ZM31.7724 61.3231L32.7572 61.1496L32.7572 61.1496L31.7724 61.3231ZM31.7225 61.04L32.7073 60.8664C32.6472 60.5257 32.4152 60.2401 32.094 60.1116C31.7727 59.983 31.4078 60.0297 31.1292 60.235L31.7225 61.04ZM11.2275 180.92L12.1604 181.28L11.2275 180.92ZM31.7225 223L32.5567 222.449C32.4975 222.359 32.4243 222.28 32.3398 222.213L31.7225 223ZM19.5 269.211L18.5909 268.795L18.5909 268.795L19.5 269.211ZM61.8116 347.67L62.7125 348.104C70.1605 332.647 79.6363 315.118 83.771 300.384C85.8394 293.013 86.623 286.18 85.045 280.571C83.4418 274.872 79.4387 270.568 72.2901 268.26L71.9827 269.211L71.6754 270.163C78.2552 272.288 81.7165 276.124 83.1197 281.113C84.5482 286.19 83.8803 292.592 81.8454 299.843C77.7735 314.354 68.4353 331.62 60.9108 347.235L61.8116 347.67ZM71.9827 269.211L72.38 268.294C66.148 265.596 63.3501 261.92 62.5051 257.928C61.6436 253.859 62.7627 249.244 64.8474 244.624C66.9238 240.022 69.8955 235.55 72.5615 231.817C73.9035 229.938 75.1288 228.299 76.1584 226.874C77.157 225.491 77.9819 224.297 78.3995 223.437L77.5 223L76.6005 222.563C76.2731 223.237 75.5595 224.287 74.5371 225.703C73.5455 227.075 72.2673 228.788 70.934 230.655C68.2494 234.414 65.1841 239.015 63.0244 243.801C60.8729 248.569 59.5568 253.658 60.5485 258.343C61.5567 263.105 64.9002 267.235 71.5855 270.129L71.9827 269.211ZM77.5 223L78.3995 223.437C82.3531 215.298 83.9565 208.745 83.8398 203.197C83.7227 197.625 81.8728 193.152 79.0785 189.187C76.3049 185.252 72.5854 181.8 68.7422 178.276C64.8742 174.73 60.8585 171.092 57.3382 166.715L56.559 167.342L55.7797 167.969C59.4123 172.485 63.5464 176.226 67.3906 179.75C71.2595 183.298 74.8147 186.61 77.4437 190.34C80.0522 194.041 81.733 198.134 81.8403 203.239C81.9481 208.366 80.4696 214.599 76.6005 222.563L77.5 223ZM56.559 167.342L57.4571 166.902C51.6987 155.143 54.764 146.787 57.4123 138.415C58.7336 134.238 59.971 129.994 59.7917 125.41C59.611 120.787 57.9973 115.905 53.7952 110.394L53 111L52.2048 111.606C56.1924 116.836 57.6307 121.33 57.7933 125.488C57.9574 129.685 56.8293 133.626 55.5054 137.812C52.8631 146.165 49.5183 155.238 55.6609 167.782L56.559 167.342ZM53 111L53.7952 110.394C37.7172 89.3065 34.4958 71.0163 32.7572 61.1496L31.7724 61.3231L30.7875 61.4967C32.5447 71.4685 35.8358 90.1375 52.2048 111.606L53 111ZM31.7724 61.3231L32.7572 61.1496L32.7073 60.8664L31.7225 61.04L30.7376 61.2136L30.7875 61.4967L31.7724 61.3231ZM31.7225 61.04L31.1292 60.235C21.1975 67.5546 12.34 77.8344 6.69015 88.9965C1.04451 100.15 -1.446 112.286 1.53496 123.262L2.5 123L3.46504 122.738C0.656126 112.395 2.96662 100.781 8.47458 89.8997C13.9783 79.0265 22.627 68.9856 32.3157 61.845L31.7225 61.04ZM2.5 123L1.53496 123.262C3.35514 129.964 5.3334 135.607 7.13946 140.619C8.95052 145.645 10.5728 149.996 11.7152 154.184C13.978 162.477 14.3442 170.074 10.2947 180.56L11.2275 180.92L12.1604 181.28C16.3834 170.346 16.0045 162.307 13.6447 153.657C12.4758 149.373 10.8175 144.926 9.02103 139.941C7.21961 134.942 5.26353 129.36 3.46504 122.738L2.5 123ZM11.2275 180.92L10.2947 180.56C6.74398 189.754 8.0903 197.589 12.2994 204.625C16.4686 211.595 23.4399 217.772 31.1051 223.787L31.7225 223L32.3398 222.213C24.6846 216.206 17.9788 210.223 14.0158 203.599C10.0927 197.041 8.85175 189.847 12.1604 181.28L11.2275 180.92ZM31.7225 223L30.8882 223.551C34.8048 229.478 36.3753 234.251 36.512 238.283C36.6482 242.302 35.3652 245.704 33.3494 248.909C31.3127 252.147 28.5815 255.11 25.8295 258.313C23.1074 261.482 20.3954 264.856 18.5909 268.795L19.5 269.211L20.4092 269.628C22.0873 265.964 24.6353 262.773 27.3465 259.617C30.0278 256.496 32.9032 253.375 35.0424 249.974C37.2024 246.539 38.6644 242.746 38.5108 238.216C38.3578 233.701 36.6036 228.572 32.5567 222.449L31.7225 223ZM19.5 269.211L18.5909 268.795C14.8822 276.891 15.0283 284.335 17.5229 291.323C20.0016 298.267 24.7873 304.73 30.2943 310.951C33.0526 314.066 36.0088 317.139 38.9671 320.191C41.9304 323.248 44.8934 326.281 47.6898 329.34C53.2909 335.466 58.1449 341.612 60.8916 348.061L61.8116 347.67L62.7317 347.278C59.8467 340.504 54.7996 334.153 49.1659 327.991C46.3449 324.905 43.3571 321.846 40.4031 318.799C37.4442 315.747 34.5167 312.703 31.7918 309.625C26.3326 303.458 21.754 297.227 19.4065 290.65C17.0748 284.119 16.9325 277.218 20.4092 269.628L19.5 269.211Z" fill="#93B34B"/>
<path d="M61.6894 346.168C58.3033 326.964 30.7466 315.684 37.5 282C40.7878 265.601 37.4615 284.437 45.1402 261.759C52.8189 239.081 36.3572 220.588 23.5 199.5C13.5886 183.244 45.5357 169.204 12 134.5C-3.35087 118.614 13 91.5 31.7224 61.04" stroke="#93B34B" stroke-width="2" stroke-miterlimit="2.61313" stroke-linejoin="round"/>
<path d="M61.3775 345.208C55.5294 326.438 64.4107 316.271 55.6781 298.488C42.1404 270.919 64.9553 235.926 43.6714 201.601C22.3875 167.275 40.0746 165.987 31.3114 145.901C25.3467 132.229 8.31299 129.718 20 100.5C24 90.5 23 81.5 31.7224 61.04" stroke="#93B34B" stroke-width="2" stroke-miterlimit="2.61313" stroke-linejoin="round"/>
<path d="M62.1303 346.598C55.7612 324.874 82.4731 316.87 71.7239 300.228C41.6946 253.736 60.8139 232.595 64.6687 214.145C68.5234 195.695 46.5939 174.176 37.4738 148.368C32.5038 134.304 49.7863 128.935 30.0069 106.021C22.1114 96.8747 29.373 82.2705 31.7223 61.0401" stroke="#93B34B" stroke-width="2" stroke-miterlimit="2.61313" stroke-linejoin="round"/>
<path d="M792.195 226.382C764.07 232.822 783.282 273.17 795.49 305.428C809.015 280.065 871.996 292.505 860.414 260C854.801 244.245 828.491 211.07 846.457 188.45C862.767 177.808 859.973 162.756 860.414 143.722C860.856 124.688 888.211 121.665 897.743 95.7489C905.369 75.0161 868.731 38.6271 850.446 22.512C847.857 32.1713 851.925 51.3784 833.736 71.3513C815.547 91.3241 830.413 103.072 816.439 126.245C800.637 142.717 778.358 151.5 787.721 176.008C790.155 182.379 818.906 217.493 792.195 226.382Z" fill="#C1E967"/>
<path d="M795.49 305.428L796.372 305.899C796.187 306.245 795.817 306.451 795.426 306.426C795.034 306.401 794.693 306.149 794.554 305.782L795.49 305.428ZM792.195 226.382L792.511 227.331C792.481 227.341 792.45 227.35 792.418 227.357L792.195 226.382ZM787.721 176.008L786.787 176.365L786.787 176.365L787.721 176.008ZM816.439 126.245L817.295 126.761C817.257 126.825 817.212 126.884 817.16 126.937L816.439 126.245ZM833.736 71.3513L834.475 72.0246L834.475 72.0246L833.736 71.3513ZM850.446 22.512L849.48 22.2532C849.569 21.9189 849.825 21.6547 850.157 21.5547C850.488 21.4547 850.847 21.533 851.107 21.7618L850.446 22.512ZM846.457 188.45L845.674 187.828C845.741 187.744 845.821 187.671 845.911 187.612L846.457 188.45ZM860.414 260L861.356 259.664L861.356 259.664L860.414 260ZM795.49 305.428L794.554 305.782C788.482 289.736 780.57 271.447 777.735 256.409C776.317 248.886 776.132 242.011 778.193 236.56C780.287 231.023 784.649 227.084 791.972 225.408L792.195 226.382L792.418 227.357C785.679 228.9 781.896 232.421 780.063 237.268C778.198 242.201 778.305 248.637 779.7 256.038C782.492 270.848 790.29 288.863 796.425 305.074L795.49 305.428ZM792.195 226.382L791.879 225.434C798.277 223.304 801.195 219.687 802.131 215.442C803.089 211.091 802.009 205.897 799.956 200.613C797.912 195.354 794.961 190.15 792.348 185.835C791.024 183.648 789.847 181.788 788.854 180.157C787.9 178.591 787.131 177.263 786.787 176.365L787.721 176.008L788.656 175.651C788.921 176.345 789.582 177.508 790.562 179.117C791.503 180.661 792.763 182.658 794.059 184.799C796.686 189.137 799.711 194.462 801.82 199.888C803.919 205.291 805.171 210.939 804.084 215.872C802.974 220.91 799.469 225.016 792.511 227.331L792.195 226.382ZM787.721 176.008L786.787 176.365C784.389 170.089 783.991 164.743 785.061 159.99C786.128 155.247 788.636 151.191 791.889 147.456C795.134 143.73 799.167 140.275 803.323 136.759C807.498 133.227 811.81 129.625 815.717 125.553L816.439 126.245L817.16 126.937C813.167 131.1 808.768 134.773 804.615 138.286C800.442 141.816 796.527 145.177 793.397 148.77C790.276 152.353 787.982 156.117 787.012 160.429C786.044 164.731 786.372 169.673 788.656 175.651L787.721 176.008ZM816.439 126.245L815.583 125.729C822.421 114.388 822.203 105.903 822.507 97.5617C822.66 93.3809 822.946 89.1991 824.373 84.7879C825.805 80.364 828.365 75.7631 832.996 70.6779L833.736 71.3513L834.475 72.0246C830.012 76.9259 827.609 81.2833 826.276 85.4037C824.939 89.5367 824.657 93.4851 824.506 97.6346C824.202 105.954 824.431 114.929 817.295 126.761L816.439 126.245ZM833.736 71.3513L832.996 70.6779C841.943 60.854 845.405 51.2402 846.958 42.8814C847.737 38.6879 848.037 34.8073 848.304 31.3328C848.568 27.8937 848.803 24.7772 849.48 22.2532L850.446 22.512L851.412 22.7708C850.794 25.0764 850.567 27.9831 850.298 31.4861C850.031 34.9537 849.725 38.9343 848.924 43.2467C847.317 51.8995 843.718 61.8757 834.475 72.0246L833.736 71.3513ZM850.446 22.512L851.107 21.7618C860.27 29.8375 874.056 43.0129 884.605 56.7909C889.878 63.6778 894.373 70.7551 897.069 77.4518C899.758 84.1327 900.711 90.5752 898.681 96.0941L897.743 95.7489L896.804 95.4037C898.587 90.5562 897.821 84.6752 895.214 78.1986C892.613 71.7376 888.236 64.8231 883.017 58.0067C872.582 44.3782 858.907 31.3016 849.785 23.2622L850.446 22.512ZM897.743 95.7489L898.681 96.0941C893.807 109.347 884.363 116.736 876.289 123.101C868.115 129.546 861.622 134.777 861.414 143.745L860.414 143.722L859.415 143.699C859.648 133.633 867.054 127.836 875.05 121.531C883.147 115.147 892.147 108.066 896.804 95.4037L897.743 95.7489ZM860.414 143.722L861.414 143.745C861.303 148.522 861.397 152.934 861.341 157.257C861.286 161.528 861.083 165.595 860.37 169.417C858.93 177.125 855.414 183.8 847.004 189.287L846.457 188.45L845.911 187.612C853.811 182.458 857.052 176.286 858.404 169.05C859.085 165.399 859.286 161.469 859.341 157.232C859.395 153.047 859.305 148.439 859.415 143.699L860.414 143.722ZM846.457 188.45L847.24 189.072C838.606 199.943 840.523 213.427 845.527 226.441C848.02 232.926 851.249 239.211 854.225 244.891C857.181 250.534 859.923 255.642 861.356 259.664L860.414 260L859.472 260.336C858.099 256.481 855.447 251.534 852.453 245.819C849.478 240.141 846.2 233.764 843.66 227.158C838.597 213.991 836.342 199.577 845.674 187.828L846.457 188.45ZM860.414 260L861.356 259.664C862.847 263.849 863.174 267.409 862.48 270.466C861.783 273.535 860.081 275.995 857.704 278.008C853.016 281.979 845.581 284.307 837.617 286.361C829.557 288.439 820.881 290.254 813.325 293.135C805.775 296.015 799.582 299.879 796.372 305.899L795.49 305.428L794.607 304.958C798.16 298.296 804.911 294.204 812.612 291.267C820.308 288.332 829.189 286.469 837.117 284.424C845.141 282.355 852.125 280.112 856.412 276.482C858.522 274.694 859.946 272.594 860.529 270.023C861.116 267.439 860.877 264.277 859.472 260.336L860.414 260Z" fill="#93B34B"/>
<path d="M795.742 303.943C800.789 285.108 836.026 289.373 832.234 255.228C830.388 238.605 825.258 244.559 819.585 221.298C813.912 198.037 828.896 165.3 843.542 145.413C854.832 130.082 844.252 117.651 880.684 86.0016C897.361 71.5144 862.871 55.3466 850.446 22.512" stroke="#93B34B" stroke-width="2" stroke-miterlimit="2.61313" stroke-linejoin="round"/>
<path d="M796.137 303.014C803.598 284.825 795.637 273.922 805.886 256.968C821.775 230.685 802.097 193.836 826.292 161.496C850.486 129.156 832.979 126.331 843.459 107.085C850.593 93.9854 878.399 84.8716 862.36 57.7978C856.201 47.4021 858.249 41.6849 850.446 22.512" stroke="#93B34B" stroke-width="2" stroke-miterlimit="2.61313" stroke-linejoin="round"/>
<path d="M795.265 304.333C803.504 283.247 777.591 272.945 789.75 257.303C823.717 213.605 806.513 190.878 804.281 172.163C802.049 153.447 825.77 133.922 837.105 109.006C843.282 95.4288 826.533 88.5739 848.234 67.4715C856.897 59.0478 850.936 43.8663 850.446 22.512" stroke="#93B34B" stroke-width="2" stroke-miterlimit="2.61313" stroke-linejoin="round"/>
<path d="M370.727 102.723C360.728 55.7734 403.652 54.2034 414.423 27.6707C411.794 71.378 445.791 66.3046 421.557 90.8696C409.811 102.776 402.997 132.783 422.58 157.053C432.865 173.59 413.895 189.03 406.251 206.468C398.607 223.905 422.067 211.795 419.753 239.311C417.903 261.325 384.914 272.77 368.463 323.687C345.063 297.221 359.792 285.095 351.748 259.306C343.704 233.518 366.254 220.232 363.382 193.324C359.237 170.762 349.973 171.323 381.391 140.143C388.776 132.814 374.547 120.659 370.727 102.723Z" fill="#8AC73B" stroke="#669429" stroke-width="2" stroke-miterlimit="2.61313" stroke-linejoin="round"/>
<path d="M412.31 33.8982C405.19 74.2753 383.205 60.7521 396.474 92.0316C402.589 114.941 387.444 134.61 398.367 161.922C408.651 178.459 389.45 192.336 381.864 212.322C374.22 229.76 393.366 230.597 391.052 258.113C385.176 279.924 372.11 261.881 368.932 320.216" stroke="#669429" stroke-width="2" stroke-miterlimit="2.61313" stroke-linejoin="round"/>
<path d="M412.455 35.9547C409.825 79.6621 400.15 68.3094 408.842 88.1198C414.699 101.469 386.948 108.629 413.986 161.122C424.27 177.659 397.299 188.135 397.244 211.48C397.201 229.75 408.948 225.729 407.705 244.295C401.828 266.106 384.755 268.71 367.5 320.5" stroke="#669429" stroke-width="2" stroke-miterlimit="2.61313" stroke-linejoin="round"/>
<path d="M412.31 33.8983C402.205 59.533 373.706 74.3087 386.976 105.588C393.091 128.498 391.152 142.372 373.574 167.197C361.43 184.349 386.147 185.153 378.562 205.139C370.917 222.577 359.159 226.596 364.029 255.887C366.985 273.67 364.029 286.5 368 323" stroke="#669429" stroke-width="2" stroke-miterlimit="2.61313" stroke-linejoin="round"/>
<path d="M967.053 289.461C992.507 330.159 952.708 346.316 951.661 374.932C939.184 332.961 908.972 349.357 923.342 317.985C930.308 302.779 915.703 274.053 889 257.945C873.68 245.923 886.224 224.925 887.443 205.925C888.662 186.925 873.5 189.77 873.5 160C873.5 128.5 919 135 902 84.5C935.5 94 915.121 125.018 931.5 146.5C947.879 167.982 925.729 177.509 937.63 201.812C949.242 221.596 957.755 217.9 938.896 257.945C934.464 267.358 957.329 273.913 967.053 289.461Z" fill="#8AC73B" stroke="#669429" stroke-width="2" stroke-miterlimit="2.61313" stroke-linejoin="round"/>
<path d="M951.517 368.357C944.398 327.98 969.683 333.168 946.515 308.314C932.933 288.877 940.438 265.214 920.833 243.286C905.512 231.263 936.692 226.5 919 196.5C903.667 170.5 920.265 165.072 913.5 149.5C906.482 133.345 919 110 904 85.5" stroke="#669429" stroke-width="2" stroke-miterlimit="2.61313" stroke-linejoin="round"/>
<path d="M950.678 366.475C938.2 324.504 951.175 331.862 936.231 316.22C926.162 305.679 949.79 289.459 906.429 249.379C891.109 237.357 912.871 218.288 904.938 196.332C898.729 179.149 891.682 182.872 886.5 165C884.563 142.494 915.5 141.5 904.938 86.5" stroke="#669429" stroke-width="2" stroke-miterlimit="2.61313" stroke-linejoin="round"/>
<path d="M951.517 368.357C952.245 340.813 973.972 317.181 950.804 292.326C937.222 272.889 934.299 259.189 942.326 229.849C947.872 209.578 924.37 217.276 924.662 195.901C925.882 176.9 928.621 173.2 921 147C915.965 129.69 929.861 114.659 903.5 86" stroke="#669429" stroke-width="2" stroke-miterlimit="2.61313" stroke-linejoin="round"/>
<path d="M123.547 141.877C104.809 97.6825 92.4347 102.279 68.393 86.7222C95.6167 121.017 37.6339 156.514 71.575 162.736C88.0261 165.752 88.1213 198.887 86 230C87.0607 249.445 94.2365 255.101 110.5 265C126.763 274.899 119.822 284.287 137.5 305.5C151.642 322.471 133.538 304.215 176.218 336.487C180.207 301.386 195.702 303.739 187.5 278C179.298 252.261 161.581 260.688 148.5 237C138.954 216.14 160 199 128.144 186.071C118.503 182.158 130.706 158.76 123.547 141.877Z" fill="#8AC73B" stroke="#669429" stroke-width="2" stroke-miterlimit="2.61313" stroke-linejoin="round"/>
<path d="M69.4537 87.783C98.445 116.774 85.01 125.967 92.0811 159.201C100.213 181.475 116.476 187.839 123.194 216.476C124.254 235.922 136.187 247.429 153.864 259.45C170.128 269.349 139.322 256.287 157 277.5C174.324 291.996 139.437 288.538 175.5 334.5" stroke="#669429" stroke-width="2" stroke-miterlimit="2.61313" stroke-linejoin="round"/>
<path d="M69.4537 88.4901C96.6773 122.785 76.8783 134.098 81.1209 155.312C83.9798 169.606 100.384 169.282 108.345 227.79C109.405 247.236 119.065 239.908 132.5 259C143.014 273.941 133.333 278.004 145 292.5C158.5 312.5 131.659 302.473 175.5 335" stroke="#669429" stroke-width="2" stroke-miterlimit="2.61313" stroke-linejoin="round"/>
<path d="M69.1001 87.4293C92.0812 102.632 104.102 125.967 111.173 159.201C119.305 181.475 102.862 190.247 131.5 200.5C151.286 207.584 134.772 239.651 152.45 251.671C168.713 261.571 161.689 252.213 174.5 279C182.278 295.263 165.5 299.5 175.5 333" stroke="#669429" stroke-width="2" stroke-miterlimit="2.61313" stroke-linejoin="round"/>
<path d="M146.359 99.0001C120.86 85.5001 160.36 66.5001 157.359 22C178.359 29.6667 216.46 56.1001 196.86 84.5001C187.36 98.2654 177.36 134 200.86 154.5C213.86 169 202.86 177.5 198.36 196C193.86 214.5 208.36 225.5 210.86 253C212.86 275 179.193 299.667 157.359 310.5C157.359 300.5 151.26 282 138.86 258C126.46 234 158.859 227.5 151.359 201.5C140.359 181.5 132.859 174.5 153.859 145.5C157.859 139.976 169.859 114.5 146.359 99.0001Z" fill="#C1E967"/>
<path d="M157.359 22L157.702 21.0606C157.384 20.9446 157.029 20.9972 156.759 21.2003C156.488 21.4035 156.339 21.7297 156.362 22.0673L157.359 22ZM146.359 99.0001L146.91 98.1653C146.883 98.1476 146.856 98.1313 146.827 98.1163L146.359 99.0001ZM153.859 145.5L154.669 146.086L154.669 146.086L153.859 145.5ZM151.359 201.5L152.32 201.223C152.3 201.152 152.271 201.083 152.236 201.018L151.359 201.5ZM138.86 258L137.971 258.459L138.86 258ZM157.359 310.5H156.359C156.359 310.846 156.538 311.167 156.832 311.35C157.126 311.532 157.494 311.55 157.804 311.396L157.359 310.5ZM200.86 154.5L201.604 153.832C201.577 153.802 201.548 153.773 201.517 153.746L200.86 154.5ZM196.86 84.5001L196.037 83.9321L196.037 83.9321L196.86 84.5001ZM157.359 22L156.362 22.0673C157.84 43.9964 148.864 59.6318 142.537 71.6595C140.959 74.6588 139.534 77.4586 138.496 80.0678C137.458 82.675 136.78 85.1553 136.742 87.5153C136.704 89.9021 137.322 92.1394 138.822 94.2248C140.308 96.29 142.622 98.153 145.892 99.8838L146.359 99.0001L146.827 98.1163C143.722 96.4721 141.692 94.7882 140.446 93.0566C139.214 91.3451 138.71 89.5355 138.742 87.5474C138.775 85.5323 139.358 83.3096 140.354 80.8073C141.349 78.3071 142.729 75.5914 144.307 72.5906C150.605 60.6183 159.879 44.5037 158.357 21.9327L157.359 22ZM146.359 99.0001L145.809 99.8348C157.215 107.358 159.968 117.233 159.424 125.929C158.875 134.703 154.96 142.275 153.049 144.913L153.859 145.5L154.669 146.086C156.759 143.201 160.844 135.273 161.42 126.053C162.001 116.755 159.004 106.142 146.91 98.1653L146.359 99.0001ZM153.859 145.5L153.049 144.913C142.523 159.451 138.958 168.703 139.612 176.954C139.939 181.068 141.309 184.853 143.258 188.831C145.193 192.778 147.762 197.035 150.483 201.982L151.359 201.5L152.236 201.018C149.457 195.965 146.963 191.847 145.054 187.951C143.159 184.084 141.905 180.557 141.606 176.796C141.011 169.297 144.196 160.549 154.669 146.086L153.859 145.5ZM151.359 201.5L150.399 201.777C154 214.261 148.098 222.006 142.458 229.92C139.663 233.841 136.9 237.855 135.67 242.444C134.423 247.098 134.768 252.259 137.971 258.459L138.86 258L139.748 257.541C136.751 251.741 136.496 247.089 137.602 242.962C138.725 238.771 141.269 235.034 144.086 231.08C149.671 223.244 156.219 214.739 152.32 201.223L151.359 201.5ZM138.86 258L137.971 258.459C144.155 270.428 148.759 281.008 151.815 289.827C154.877 298.667 156.359 305.667 156.359 310.5H157.359H158.359C158.359 305.333 156.792 298.083 153.704 289.173C150.61 280.242 145.964 269.572 139.748 257.541L138.86 258ZM157.359 310.5L157.804 311.396C168.79 305.945 182.752 297.017 193.733 286.665C199.224 281.489 204 275.929 207.28 270.242C210.56 264.557 212.38 258.682 211.856 252.91L210.86 253L209.864 253.091C210.339 258.318 208.701 263.777 205.548 269.243C202.396 274.706 197.766 280.115 192.361 285.21C181.551 295.4 167.762 304.222 156.915 309.604L157.359 310.5ZM210.86 253L211.856 252.91C210.59 238.992 206.28 229.233 202.914 220.756C199.545 212.27 197.162 205.156 199.332 196.236L198.36 196L197.388 195.764C195.058 205.344 197.675 212.981 201.055 221.494C204.44 230.017 208.629 239.509 209.864 253.091L210.86 253ZM198.36 196L199.332 196.236C200.439 191.684 201.948 187.738 203.405 184.124C204.851 180.535 206.274 177.21 207.138 174.011C208.009 170.784 208.336 167.609 207.56 164.274C206.786 160.942 204.933 157.546 201.604 153.832L200.86 154.5L200.115 155.168C203.286 158.704 204.934 161.808 205.612 164.726C206.29 167.641 206.023 170.466 205.207 173.489C204.383 176.54 203.025 179.716 201.55 183.376C200.084 187.012 198.531 191.066 197.388 195.764L198.36 196ZM200.86 154.5L201.517 153.746C190.069 143.76 186.744 130.046 187.483 117.031C188.223 103.994 193.039 91.7967 197.683 85.0681L196.86 84.5001L196.037 83.9321C191.18 90.9688 186.246 103.521 185.486 116.918C184.725 130.337 188.15 144.74 200.202 155.254L200.86 154.5ZM196.86 84.5001L197.683 85.0681C202.724 77.7638 204.086 70.5233 202.895 63.6604C201.71 56.8295 198.012 50.4606 193.088 44.8176C183.251 33.5444 168.32 24.9368 157.702 21.0606L157.359 22L157.016 22.9394C167.399 26.7299 182.017 35.1723 191.581 46.1325C196.357 51.6062 199.822 57.6498 200.924 64.0023C202.021 70.3227 200.796 77.0364 196.037 83.9321L196.86 84.5001Z" fill="#93B34B"/>
<path d="M157.359 22C178.359 29.6667 189.86 47.0001 177.36 79.0001C171.274 94.5789 192.86 142 181.36 163C169.86 184 191.86 196 187.36 214.5C182.86 233 192.36 233 194.86 260.5C196.86 282.5 177.86 282 157.359 310.5" stroke="#93B34B" stroke-width="2" stroke-miterlimit="2.61313" stroke-linejoin="round"/>
<path d="M157.359 22C174.86 40.0001 157.848 44.4707 163.36 63.5001C184.36 136 159.86 128 169.36 165.5C178.86 203 169.218 203.697 174.36 225C177.86 239.5 196.86 253 174.36 275C165.72 283.448 169.86 294 157.359 310.5" stroke="#93B34B" stroke-width="2" stroke-miterlimit="2.61313" stroke-linejoin="round"/>
<path d="M157.359 22C169.36 43.0001 145.664 59.7443 153.36 78.0001C174.86 129 158.36 158.5 151.36 176C144.36 193.5 162.36 196.5 166.86 223.5C169.312 238.214 144.86 239.5 160.36 265.5C166.547 275.879 163.36 290 157.359 310.5" stroke="#93B34B" stroke-width="2" stroke-miterlimit="2.61313" stroke-linejoin="round"/>
<path d="M588 242C606 286.5 614.793 290.574 608.793 318.574C603.793 275.074 504.494 291.9 524.094 263.5C533.594 249.735 536.5 220.574 513 200.074C500 185.574 519.594 164.5 524.094 146C528.594 127.5 507.594 143.5 505.094 116C503.094 93.9999 533.594 76.9999 540.954 23.9999C568.594 45.9999 556.194 60.4999 568.594 84.4999C580.994 108.5 561.094 125.5 568.594 151.5C576.594 173 597.026 169.912 571.5 206.074C565.5 214.574 581.124 225 588 242Z" fill="#8AC73B" stroke="#669429" stroke-width="2" stroke-miterlimit="2.61313" stroke-linejoin="round"/>
<path d="M608.793 317.074C608.793 276.074 582 284 563.5 255.5C553.5 234 564 209.5 548.5 184.5C535.5 170 543.094 157 547.094 136C551.594 117.5 532.594 120 530.094 92.4999C532.094 69.9999 548.094 85.4999 541.094 27.4999" stroke="#669429" stroke-width="2" stroke-miterlimit="2.61313" stroke-linejoin="round"/>
<path d="M608.293 316.574C603.293 273.074 556 283 544 265C535.914 252.871 566.243 241 530.5 194C517.5 179.5 536.094 162.5 532.094 139.5C528.964 121.5 518.094 127.5 516.094 109C518.094 86.4999 532.094 90.9999 540.094 36.9999" stroke="#669429" stroke-width="2" stroke-miterlimit="2.61313" stroke-linejoin="round"/>
<path d="M608.793 317.574C614.294 290.574 592 268.5 573.5 240C563.5 218.5 558.794 208.074 571.794 180.574C580.775 161.574 547.594 163.5 551.594 142.5C556.094 124 566.976 118 557.094 89.9999C551.094 72.9999 548.594 65.4999 543.094 28.9999" stroke="#669429" stroke-width="2" stroke-miterlimit="2.61313" stroke-linejoin="round"/>
</g>
</g>
<defs>
<filter id="filter0_d_70_19" x="-9.7345" y="2.30975" width="1023.03" height="387.623" filterUnits="userSpaceOnUse" color-interpolation-filters="sRGB">
<feFlood flood-opacity="0" result="BackgroundImageFix"/>
<feColorMatrix in="SourceAlpha" type="matrix" values="0 0 0 0 0 0 0 0 0 0 0 0 0 0 0 0 0 0 127 0" result="hardAlpha"/>
<feOffset dy="4"/>
<feGaussianBlur stdDeviation="5"/>
<feComposite in2="hardAlpha" operator="out"/>
<feColorMatrix type="matrix" values="0 0 0 0 0 0 0 0 0 0 0 0 0 0 0 0 0 0 0.25 0"/>
<feBlend mode="normal" in2="BackgroundImageFix" result="effect1_dropShadow_70_19"/>
<feBlend mode="normal" in="SourceGraphic" in2="effect1_dropShadow_70_19" result="shape"/>
</filter>
<clipPath id="clip0_70_19">
<rect width="1004" height="250" fill="white"/>
</clipPath>
</defs>
</svg>
