<svg width="269" height="269" viewBox="0 0 269 269" fill="none" xmlns="http://www.w3.org/2000/svg">
<path d="M81.0829 128.505C65.7795 118.904 61.5564 148.031 47.5444 164.96C64.7623 159.719 87.1388 193.111 96.4025 173.592C100.893 164.131 103.932 137.795 121.901 135.734C133.834 138.244 139.261 130.343 147.884 122.111C156.506 113.879 169.956 124.652 185.65 117.398C198.206 111.595 198.096 79.2631 197.135 64.0325C191.712 67.1631 185.009 77.4677 168.113 78.2575C151.218 79.0472 152.598 90.8303 136.152 94.9032C121.863 95.1998 108.11 89.2246 101.405 104.221C99.662 108.119 96.8448 136.395 81.0829 128.505Z" fill="#C1E967"/>
<path d="M47.5444 164.96L47.7268 165.559C47.4624 165.64 47.1765 165.537 47.0233 165.307C46.8701 165.077 46.8859 164.774 47.0621 164.561L47.5444 164.96ZM81.0829 128.505L80.8027 129.064C80.7847 129.055 80.7672 129.046 80.7502 129.035L81.0829 128.505ZM101.405 104.221L101.977 104.477L101.405 104.221ZM136.152 94.9032L136.302 95.511C136.257 95.5221 136.211 95.5282 136.165 95.5292L136.152 94.9032ZM168.113 78.2575L168.143 78.8829L168.143 78.8829L168.113 78.2575ZM197.135 64.0325L196.822 63.4902C197.009 63.3819 197.24 63.3783 197.431 63.4806C197.622 63.583 197.746 63.7768 197.76 63.993L197.135 64.0325ZM185.65 117.398L185.388 116.83L185.65 117.398ZM147.884 122.111L147.451 121.658L147.884 122.111ZM121.901 135.734L121.83 135.112C121.897 135.105 121.965 135.108 122.03 135.122L121.901 135.734ZM96.4025 173.592L96.9681 173.86L96.4025 173.592ZM47.5444 164.96L47.0621 164.561C50.5227 160.38 53.3897 155.432 55.9897 150.481C58.5751 145.558 60.9206 140.581 63.2868 136.471C65.65 132.367 68.1183 128.967 71.0368 127.232C72.5139 126.353 74.1112 125.898 75.8575 125.995C77.5969 126.092 79.4383 126.734 81.4157 127.974L81.0829 128.505L80.7502 129.035C78.9018 127.875 77.2635 127.327 75.788 127.245C74.3195 127.164 72.9666 127.541 71.6768 128.308C69.0616 129.863 66.7289 133.003 64.372 137.096C62.018 141.184 59.7239 146.063 57.0984 151.063C54.4875 156.035 51.5722 161.076 48.0268 165.359L47.5444 164.96ZM81.0829 128.505L81.3632 127.945C85.1385 129.835 88.0317 129.525 90.3256 128.06C92.6762 126.558 94.4979 123.78 95.928 120.531C97.3516 117.298 98.3494 113.688 99.1028 110.62C99.4846 109.066 99.7873 107.721 100.069 106.559C100.34 105.444 100.588 104.515 100.833 103.965L101.405 104.221L101.977 104.477C101.787 104.901 101.565 105.709 101.286 106.855C101.019 107.955 100.693 109.397 100.319 110.919C99.5614 114.003 98.543 117.699 97.0741 121.036C95.6118 124.357 93.665 127.412 90.9998 129.115C88.2779 130.854 84.9083 131.12 80.8027 129.064L81.0829 128.505ZM101.405 104.221L100.833 103.965C102.55 100.125 104.741 97.5817 107.319 95.951C109.891 94.3238 112.797 93.6383 115.891 93.425C118.978 93.2123 122.293 93.4678 125.689 93.7514C129.102 94.0363 132.606 94.3505 136.139 94.2772L136.152 94.9032L136.165 95.5292C132.553 95.6042 128.98 95.2827 125.585 94.9993C122.175 94.7146 118.954 94.4692 115.978 94.6743C113.009 94.8789 110.327 95.5299 107.988 97.0093C105.655 98.4853 103.612 100.819 101.977 104.477L101.405 104.221ZM136.152 94.9032L136.001 94.2954C144.05 92.3023 147.71 88.4487 151.538 84.8906C153.456 83.1071 155.434 81.3823 158.019 80.0612C160.612 78.7364 163.783 77.8331 168.084 77.632L168.113 78.2575L168.143 78.8829C163.997 79.0767 161.004 79.9424 158.589 81.1763C156.167 82.414 154.294 84.0376 152.39 85.8078C148.573 89.3568 144.7 93.4313 136.302 95.511L136.152 94.9032ZM168.113 78.2575L168.084 77.632C176.395 77.2436 182.184 74.5199 186.572 71.5067C188.774 69.995 190.625 68.4095 192.281 66.9894C193.921 65.5839 195.405 64.3083 196.822 63.4902L197.135 64.0325L197.448 64.5747C196.154 65.322 194.766 66.5085 193.096 67.9402C191.443 69.3574 189.545 70.9844 187.281 72.539C182.738 75.6582 176.728 78.4816 168.143 78.8829L168.113 78.2575ZM197.135 64.0325L197.76 63.993C198.241 71.6256 198.512 83.5624 197.082 94.333C196.367 99.7166 195.224 104.84 193.453 108.999C191.686 113.147 189.255 116.422 185.913 117.966L185.65 117.398L185.388 116.83C188.323 115.473 190.587 112.53 192.301 108.508C194.01 104.496 195.133 99.4967 195.841 94.1682C197.255 83.5144 196.989 71.67 196.51 64.0719L197.135 64.0325ZM185.65 117.398L185.913 117.966C177.887 121.676 170.434 120.766 164.042 120.009C157.569 119.244 152.379 118.685 148.316 122.564L147.884 122.111L147.451 121.658C152.011 117.305 157.857 118.017 164.189 118.766C170.6 119.524 177.719 120.374 185.388 116.83L185.65 117.398ZM147.884 122.111L148.316 122.564C146.152 124.63 144.24 126.624 142.301 128.514C140.386 130.38 138.496 132.091 136.488 133.467C132.437 136.243 127.925 137.641 121.773 136.347L121.901 135.734L122.03 135.122C127.81 136.337 131.978 135.04 135.78 132.434C137.698 131.12 139.527 129.469 141.427 127.617C143.304 125.788 145.304 123.708 147.451 121.658L147.884 122.111ZM121.901 135.734L121.973 136.356C113.337 137.347 108.216 144.165 104.669 152.142C102.902 156.118 101.549 160.33 100.352 164.162C99.1621 167.969 98.1146 171.445 96.9681 173.86L96.4025 173.592L95.8368 173.324C96.9354 171.009 97.9516 167.644 99.1563 163.789C100.353 159.957 101.725 155.683 103.525 151.634C107.113 143.562 112.497 136.182 121.83 135.112L121.901 135.734ZM96.4025 173.592L96.9681 173.86C95.7756 176.373 94.344 178.094 92.6834 179.14C91.0157 180.191 89.1733 180.526 87.2299 180.365C83.3961 180.048 79.0737 177.786 74.6381 175.17C70.1493 172.521 65.5048 169.483 60.8837 167.414C56.2661 165.346 51.8131 164.315 47.7268 165.559L47.5444 164.96L47.3621 164.361C51.8847 162.984 56.6855 164.162 61.3955 166.271C66.1019 168.379 70.8589 171.486 75.2744 174.091C79.7431 176.727 83.8279 178.827 87.3332 179.117C89.0593 179.26 90.6194 178.96 92.0159 178.081C93.4193 177.196 94.7134 175.691 95.8368 173.324L96.4025 173.592Z" fill="#93B34B"/>
<path d="M48.3139 164.414C58.8877 158.31 72.6002 175.799 86.0387 159.003C92.5812 150.826 87.6737 151.19 95.4606 138.38C103.248 125.57 124.376 117.71 139.665 115.389C151.451 113.601 152.271 103.412 182.413 105.53C196.211 106.499 188.099 84.071 197.135 64.0325" stroke="#93B34B" stroke-width="1.25226" stroke-miterlimit="2.61313" stroke-linejoin="round"/>
<path d="M48.9002 164.177C60.2567 159.428 61.5589 151.076 73.6031 148.108C92.2745 143.506 99.8766 118.479 124.907 114.873C149.937 111.266 143.436 102.264 156.598 98.3834C165.556 95.7418 181.902 104.018 186.787 84.9297C188.663 77.6004 192.101 75.9762 197.135 64.0324" stroke="#93B34B" stroke-width="1.25226" stroke-miterlimit="2.61313" stroke-linejoin="round"/>
<path d="M47.9304 164.376C60.9136 158.688 54.0021 142.654 66.3105 141.112C100.696 136.804 103.141 119.125 110.439 109.85C117.737 100.576 136.884 102.433 152.934 96.4208C161.68 93.1442 157.3 82.6939 176.25 82.959C183.815 83.0648 187.898 73.7041 197.135 64.0326" stroke="#93B34B" stroke-width="1.25226" stroke-miterlimit="2.61313" stroke-linejoin="round"/>
<path d="M164.45 184.868C172.861 179.247 193.368 187.263 203.238 171.198C207.754 163.846 185.197 149.265 167.524 155.594C158.504 158.824 153.633 166.686 143.638 152.978C130.717 135.259 116.112 158.146 102.319 150.387C93.2923 145.308 92.1719 166.561 78.6846 159.946C67.1649 154.297 59.0562 159.594 45.5145 167.693C54.5853 170.125 55.5812 180.588 65.5258 179.274C73.0763 178.276 83.8978 193.987 98.1947 183.497C106.74 176.326 114.76 183.283 123.566 173.132C134.153 160.928 148.074 197.284 164.45 184.868Z" fill="#72B01E"/>
<path d="M203.238 171.198L203.702 171.482L203.702 171.482L203.238 171.198ZM164.45 184.868L164.122 184.435C164.13 184.428 164.139 184.422 164.148 184.416L164.45 184.868ZM123.566 173.132L123.977 173.488L123.566 173.132ZM98.1947 183.497L98.5444 183.914C98.5354 183.921 98.5261 183.929 98.5166 183.936L98.1947 183.497ZM65.5258 179.274L65.4545 178.734L65.4545 178.734L65.5258 179.274ZM45.5145 167.693L45.3737 168.219C45.1626 168.162 45.0059 167.985 44.9757 167.768C44.9456 167.552 45.0478 167.338 45.2353 167.226L45.5145 167.693ZM78.6846 159.946L78.445 160.435L78.6846 159.946ZM102.319 150.387L102.586 149.912L102.319 150.387ZM143.638 152.978L143.198 153.299L143.638 152.978ZM167.524 155.594L167.341 155.082L167.524 155.594ZM203.238 171.198L203.702 171.482C198.632 179.735 190.819 181.779 183.348 182.491C181.481 182.669 179.628 182.765 177.843 182.852C176.053 182.939 174.336 183.018 172.719 183.162C169.471 183.451 166.733 183.997 164.753 185.321L164.45 184.868L164.148 184.416C166.373 182.929 169.353 182.369 172.623 182.078C174.266 181.932 176.008 181.852 177.79 181.765C179.576 181.678 181.406 181.583 183.245 181.408C190.599 180.707 197.975 178.726 202.775 170.913L203.238 171.198ZM164.45 184.868L164.779 185.302C162.663 186.906 160.563 187.739 158.486 187.969C156.411 188.199 154.393 187.823 152.444 187.063C148.569 185.551 144.895 182.487 141.478 179.488C138.019 176.453 134.845 173.509 131.878 172.051C130.409 171.33 129.046 171.003 127.766 171.18C126.498 171.357 125.234 172.039 123.977 173.488L123.566 173.132L123.155 172.775C124.545 171.173 126.032 170.323 127.616 170.103C129.188 169.884 130.777 170.298 132.358 171.075C135.49 172.614 138.804 175.694 142.196 178.671C145.63 181.684 149.169 184.618 152.84 186.049C154.664 186.761 156.504 187.094 158.366 186.888C160.226 186.682 162.143 185.935 164.122 184.435L164.45 184.868ZM123.566 173.132L123.977 173.488C121.725 176.084 119.505 177.605 117.298 178.528C115.098 179.447 112.938 179.759 110.838 179.973C106.622 180.404 102.666 180.456 98.5444 183.914L98.1947 183.497L97.8451 183.08C102.269 179.368 106.595 179.313 110.727 178.891C112.801 178.679 114.831 178.379 116.879 177.524C118.919 176.671 121.004 175.255 123.155 172.775L123.566 173.132ZM98.1947 183.497L98.5166 183.936C94.8569 186.621 91.3897 187.648 88.1236 187.666C84.8691 187.685 81.8574 186.702 79.1037 185.439C77.7262 184.808 76.4059 184.103 75.1493 183.414C73.8869 182.722 72.6985 182.052 71.5587 181.473C69.2586 180.304 67.3022 179.588 65.5971 179.813L65.5258 179.274L65.4545 178.734C67.5246 178.461 69.7524 179.334 72.0517 180.503C73.2116 181.092 74.4267 181.777 75.6724 182.46C76.9239 183.146 78.2164 183.836 79.557 184.45C82.2396 185.68 85.0858 186.595 88.1174 186.578C91.1372 186.561 94.3841 185.618 97.8729 183.058L98.1947 183.497ZM65.5258 179.274L65.5971 179.813C63.0063 180.155 60.9678 179.731 59.2319 178.845C57.5119 177.967 56.1191 176.649 54.7987 175.264C52.126 172.459 49.7264 169.386 45.3737 168.219L45.5145 167.693L45.6554 167.168C50.3734 168.433 53.0072 171.807 55.5863 174.513C56.8918 175.883 58.1794 177.086 59.7266 177.876C61.2578 178.658 63.073 179.049 65.4545 178.734L65.5258 179.274ZM45.5145 167.693L45.2353 167.226C51.9797 163.193 57.4581 159.8 62.6939 158.145C67.9804 156.475 73.0325 156.569 78.9241 159.458L78.6846 159.946L78.445 160.435C72.817 157.675 68.0549 157.592 63.0217 159.183C57.9378 160.789 52.591 164.095 45.7938 168.16L45.5145 167.693ZM78.6846 159.946L78.9241 159.458C82.1741 161.052 84.6003 160.939 86.5712 160.035C88.5861 159.11 90.2035 157.327 91.7505 155.402C92.5094 154.457 93.267 153.459 94.0147 152.573C94.7675 151.681 95.5477 150.856 96.3909 150.231C97.2381 149.603 98.1685 149.162 99.2169 149.069C100.269 148.975 101.383 149.235 102.586 149.912L102.319 150.387L102.053 150.861C100.999 150.268 100.104 150.082 99.3136 150.152C98.5203 150.223 97.7767 150.558 97.0388 151.105C96.2967 151.655 95.5804 152.404 94.8462 153.274C94.1069 154.151 93.387 155.102 92.5987 156.083C91.0513 158.009 89.2955 159.982 87.0249 161.024C84.7103 162.085 81.9388 162.148 78.445 160.435L78.6846 159.946ZM102.319 150.387L102.586 149.912C105.88 151.766 109.23 151.802 112.659 151.042C116.124 150.275 119.571 148.724 123.12 147.436C126.625 146.164 130.201 145.163 133.744 145.65C137.322 146.142 140.779 148.135 144.077 152.658L143.638 152.978L143.198 153.299C140.036 148.962 136.822 147.171 133.596 146.728C130.335 146.28 126.976 147.194 123.491 148.459C120.049 149.708 116.451 151.317 112.895 152.105C109.303 152.9 105.655 152.888 102.053 150.861L102.319 150.387ZM143.638 152.978L144.077 152.658C146.554 156.055 148.679 158.065 150.587 159.151C152.475 160.225 154.172 160.408 155.849 160.102C157.556 159.791 159.255 158.972 161.142 157.993C163.007 157.024 165.043 155.905 167.341 155.082L167.524 155.594L167.708 156.106C165.496 156.898 163.54 157.973 161.643 158.958C159.767 159.933 157.933 160.828 156.044 161.173C154.127 161.523 152.168 161.303 150.049 160.097C147.951 158.903 145.719 156.756 143.198 153.299L143.638 152.978ZM167.524 155.594L167.341 155.082C176.363 151.851 186.582 153.965 193.952 157.783C197.64 159.693 200.662 162.053 202.481 164.438C204.286 166.805 205.009 169.354 203.702 171.482L203.238 171.198L202.775 170.913C203.725 169.365 203.322 167.335 201.616 165.098C199.924 162.88 197.048 160.612 193.452 158.749C186.255 155.021 176.359 153.008 167.708 156.106L167.524 155.594Z" fill="#598918"/>
<path d="M203.424 170.687C204.135 162.558 188.021 163.634 171.844 164.403C162.274 164.858 151.771 174.982 141.776 161.274C131.78 147.567 118.408 150.108 107.871 158.197C99.6549 164.504 96.0095 172.631 82.5221 166.016C71.0024 160.367 59.0561 159.595 45.5144 167.693" stroke="#598918" stroke-width="1.08802" stroke-miterlimit="2.61313" stroke-linejoin="round"/>
<path d="M203.61 170.175C199.054 162.951 176.636 171.44 170.238 172.791C159.366 175.088 148.762 175.466 133.063 164.536C117.363 153.606 116.442 171.304 101.268 169.977C90.9496 169.074 89.8926 177.01 76.4052 170.396C62.9179 163.781 59.9945 167.595 46.3748 167.222" stroke="#598918" stroke-width="1.08802" stroke-miterlimit="2.61313" stroke-linejoin="round"/>
<path d="M203.192 169.734C184.647 169.476 184.295 180.407 175.024 177.138C167.608 174.524 158.558 183.283 142.469 173.684C126.38 164.085 126.714 170.844 112.12 172.769C97.5249 174.693 90.8547 183.128 75.494 177.688C60.1333 172.249 61.9962 169.681 46.351 167.493" stroke="#598918" stroke-width="1.08802" stroke-miterlimit="2.61313" stroke-linejoin="round"/>
<path d="M76.3353 131.78C66.4958 154.986 58.1929 158.906 45.5687 167.075C59.8637 149.067 34.6149 120.379 52.4373 117.112C61.0756 115.528 61.5816 101.007 60.4677 84.6702C61.0246 74.4595 76.1245 73.9101 84.6644 68.7119C93.2043 63.5137 79.4662 61.6572 88.7487 50.5182C96.1747 41.6071 113.811 46.6196 136.223 29.6734C138.317 48.1048 128.329 48.8845 124.022 62.3998C119.715 75.9151 106.014 74.8383 99.1451 87.2768C94.1325 98.2302 102.865 104.67 79.9608 108.619C74.577 109.547 80.0941 122.914 76.3353 131.78Z" fill="#8AC73B" stroke="#669429" stroke-width="1.05019" stroke-miterlimit="2.61313" stroke-linejoin="round"/>
<path d="M47.1937 165.711C63.4876 151.578 54.9254 141.452 58.6384 124.001C62.9083 112.305 75.9038 107.107 79.4311 92.0689C79.9881 81.8582 87.6347 79.851 96.9172 73.5389C105.457 68.3407 97.4741 62.2143 106.757 51.0753C115.853 43.4637 116.039 55.1596 134.975 31.0252" stroke="#669429" stroke-width="1.05019" stroke-miterlimit="2.61313" stroke-linejoin="round"/>
<path d="M47.1937 165.711C61.4887 147.703 51.89 133.116 54.1178 121.977C55.619 114.472 65.0408 119.635 69.2206 88.9127C69.7775 78.702 82.9936 79.2938 90.0483 69.2688C95.5694 61.4231 89.3057 59.615 95.4321 52.0034C104.529 44.3918 108.056 51.2608 131.077 34.181" stroke="#669429" stroke-width="1.05019" stroke-miterlimit="2.61313" stroke-linejoin="round"/>
<path d="M48.3206 164.304C62.5101 157.013 64.3936 139.409 68.1066 121.958C72.3766 110.262 74.5003 104.644 89.5379 99.2598C99.9275 95.5401 86.8921 83.935 96.1746 77.6229C104.714 72.4247 110.983 74.2375 117.71 60.1719C121.794 51.6321 123.651 47.9191 135.161 32.3244" stroke="#669429" stroke-width="1.05019" stroke-miterlimit="2.61313" stroke-linejoin="round"/>
</svg>
