<svg width="1036" height="384" viewBox="0 0 1036 384" fill="none" xmlns="http://www.w3.org/2000/svg">
<path d="M263.569 71.0759C278.566 60.0828 252.722 17.4408 286.677 10.4924C302.215 7.31292 329.605 46.4801 307.563 73.029C296.313 86.5789 276.97 96.4074 294.363 122.291C316.847 155.751 279.307 167.432 284.039 196.135C287.137 214.921 270.054 209.359 273 236.815C275.516 260.265 261.268 270.941 238.765 289.241C240.267 272.043 216.999 265.937 225.521 249.586C231.992 237.171 211.656 208.601 238.765 190.5C256.524 180.247 230.079 152.171 253.151 143.342C280.888 132.727 231.827 91.5584 263.569 71.0759Z" fill="#72B01E"/>
<path d="M286.677 10.4924L286.477 9.51275L286.677 10.4924ZM263.569 71.0759L264.111 71.9162C264.128 71.9054 264.144 71.8942 264.16 71.8825L263.569 71.0759ZM253.151 143.342L252.793 142.408L252.793 142.408L253.151 143.342ZM238.765 190.5L238.265 189.634C238.246 189.645 238.227 189.656 238.209 189.668L238.765 190.5ZM225.521 249.586L224.634 249.123L224.634 249.123L225.521 249.586ZM238.765 289.241L237.769 289.154C237.734 289.554 237.941 289.936 238.296 290.124C238.651 290.312 239.084 290.27 239.396 290.016L238.765 289.241ZM273 236.815L272.006 236.922L272.006 236.922L273 236.815ZM284.039 196.135L283.053 196.298L283.053 196.298L284.039 196.135ZM294.363 122.291L293.533 122.849L293.533 122.849L294.363 122.291ZM307.563 73.029L306.794 72.3902L306.794 72.3902L307.563 73.029ZM286.677 10.4924L286.477 9.51275C277.732 11.3023 272.7 15.4371 269.957 20.895C267.253 26.2764 266.842 32.8158 267.014 39.2939C267.1 42.541 267.336 45.8268 267.52 48.9666C267.705 52.1218 267.839 55.1373 267.732 57.9109C267.518 63.5061 266.334 67.8097 262.978 70.2694L263.569 71.0759L264.16 71.8825C268.303 68.8456 269.512 63.6965 269.731 57.9875C269.841 55.1089 269.702 52.0093 269.516 48.8495C269.33 45.6744 269.098 42.4454 269.013 39.2409C268.843 32.8159 269.276 26.7049 271.744 21.7931C274.174 16.9579 278.645 13.1568 286.878 11.4721L286.677 10.4924ZM263.569 71.0759L263.027 70.2357C254.81 75.5381 251.763 82.2539 251.451 89.4727C251.144 96.5922 253.502 104.16 255.911 111.232C258.355 118.405 260.821 125.003 261.017 130.488C261.114 133.192 260.65 135.534 259.414 137.496C258.181 139.452 256.111 141.138 252.793 142.408L253.151 143.342L253.508 144.276C257.125 142.892 259.589 140.969 261.106 138.562C262.62 136.161 263.122 133.385 263.016 130.417C262.806 124.557 260.191 117.593 257.804 110.587C255.383 103.479 253.161 96.2508 253.45 89.5588C253.734 82.9662 256.457 76.855 264.111 71.9162L263.569 71.0759ZM253.151 143.342L252.793 142.408C246.753 144.72 243.83 148.367 242.699 152.743C241.597 157.008 242.228 161.866 242.978 166.545C243.743 171.317 244.629 175.904 244.264 179.958C243.908 183.915 242.368 187.265 238.265 189.634L238.765 190.5L239.265 191.366C244.041 188.608 245.854 184.605 246.256 180.137C246.649 175.768 245.695 170.862 244.953 166.229C244.196 161.504 243.652 157.047 244.635 153.244C245.59 149.552 248.013 146.379 253.508 144.276L253.151 143.342ZM238.765 190.5L238.209 189.668C231.27 194.302 227.317 199.645 225.231 205.275C223.153 210.885 222.958 216.705 223.407 222.256C223.632 225.032 224.019 227.756 224.419 230.359C224.821 232.975 225.231 235.449 225.515 237.782C226.088 242.49 226.096 246.32 224.634 249.123L225.521 249.586L226.408 250.048C228.182 246.644 228.074 242.247 227.501 237.54C227.212 235.166 226.792 232.637 226.396 230.056C225.997 227.462 225.619 224.796 225.4 222.094C224.963 216.688 225.171 211.195 227.107 205.97C229.035 200.764 232.705 195.749 239.32 191.332L238.765 190.5ZM225.521 249.586L224.634 249.123C222.39 253.43 222.209 257.147 223.25 260.554C224.271 263.895 226.448 266.861 228.729 269.72C233.384 275.555 238.477 281.038 237.769 289.154L238.765 289.241L239.761 289.328C240.554 280.246 234.764 274.077 230.292 268.472C228.009 265.611 226.061 262.909 225.162 259.969C224.284 257.094 224.391 253.917 226.408 250.048L225.521 249.586ZM238.765 289.241L239.396 290.016C250.603 280.903 259.908 273.572 266.058 265.569C272.267 257.487 275.281 248.702 273.994 236.708L273 236.815L272.006 236.922C273.235 248.379 270.383 256.656 264.472 264.35C258.5 272.122 249.429 279.279 238.134 288.465L238.765 289.241ZM273 236.815L273.994 236.708C273.268 229.942 273.784 225.286 274.872 221.817C275.956 218.357 277.63 216.005 279.357 213.849C281.061 211.721 282.935 209.662 284.122 206.958C285.335 204.197 285.825 200.819 285.026 195.973L284.039 196.135L283.053 196.298C283.802 200.844 283.318 203.816 282.291 206.154C281.239 208.549 279.607 210.338 277.796 212.599C276.007 214.833 274.156 217.412 272.963 221.219C271.773 225.016 271.259 229.961 272.006 236.922L273 236.815ZM284.039 196.135L285.026 195.973C283.883 189.041 285.284 183.13 287.732 177.598C290.212 171.995 293.678 166.941 296.731 161.485C299.746 156.098 302.275 150.439 302.569 143.954C302.864 137.446 300.906 130.234 295.193 121.733L294.363 122.291L293.533 122.849C299.063 131.078 300.843 137.873 300.571 143.863C300.298 149.877 297.954 155.205 294.986 160.509C292.056 165.743 288.429 171.083 285.903 176.789C283.347 182.565 281.829 188.878 283.053 196.298L284.039 196.135ZM294.363 122.291L295.193 121.733C290.906 115.353 288.937 110.043 288.501 105.484C288.067 100.943 289.144 97.0646 291.098 93.5173C293.064 89.9472 295.913 86.7189 299.027 83.4977C302.11 80.3084 305.488 77.0939 308.332 73.6678L307.563 73.029L306.794 72.3902C304.013 75.739 300.754 78.8342 297.589 82.1076C294.456 85.3491 291.448 88.7362 289.346 92.5524C287.232 96.3915 286.031 100.67 286.51 105.675C286.987 110.662 289.124 116.287 293.533 122.849L294.363 122.291ZM307.563 73.029L308.332 73.6678C319.683 59.9968 318.256 43.118 312.116 30.1837C309.044 23.7118 304.767 18.1618 300.232 14.4178C295.734 10.7045 290.802 8.62777 286.477 9.51275L286.677 10.4924L286.878 11.4721C290.322 10.7674 294.64 12.3942 298.959 15.9601C303.241 19.4954 307.347 24.8004 310.309 31.0414C316.239 43.533 317.486 59.5122 306.794 72.3902L307.563 73.029Z" fill="#598918"/>
<path d="M286.677 10.4925C301.166 14.3747 304.519 38.5668 293.02 66.0264C286.218 82.271 276 86.4861 282.33 112C288.66 137.514 300.33 157 282.33 176.151C269.29 190.025 261.054 199.544 264 227C266.516 250.45 262.503 269.201 240 287.5" stroke="#598918" stroke-width="2" stroke-miterlimit="2.61313" stroke-linejoin="round"/>
<path d="M286.677 10.4926C296.293 22.904 290.744 57.1343 284.387 67.3366C273.584 84.6731 273.49 98.5099 282.5 132.5C291.51 166.49 266.247 162.454 259 189.5C254.072 207.891 252.054 209.544 255 237C257.946 264.456 248.419 263.74 240.5 287.5" stroke="#598918" stroke-width="2" stroke-miterlimit="2.61313" stroke-linejoin="round"/>
<path d="M286.677 10.4925C275.463 42.6868 276.972 46.7147 276.789 64.783C276.643 79.2377 260.176 86.2135 266.642 120.04C273.107 153.866 266.5 147.5 260.5 169C254.5 190.5 240.261 188.547 240 218.5C239.739 248.453 246.057 257.6 240 286" stroke="#598918" stroke-width="2" stroke-miterlimit="2.61313" stroke-linejoin="round"/>
<path d="M815 270.5C800.003 281.493 778.097 326.572 744.142 333.52C728.604 336.699 724.457 302.549 746.5 276C757.75 262.45 775.393 240.884 758 215C735.516 181.541 756.732 182.203 752 153.5C748.903 134.714 774.446 142.376 771.5 114.92C768.984 91.4697 781.997 68.2194 804.5 49.9201C807 67.9201 815 68.92 815 92.42C815 106.42 828.214 137.604 801.105 155.704C783.346 165.957 825.5 188.5 807.5 206C786.206 226.702 846.742 250.018 815 270.5Z" fill="#72B01E"/>
<path d="M744.142 333.52L743.941 332.54L743.941 332.54L744.142 333.52ZM815 270.5L814.458 269.66C814.441 269.67 814.425 269.682 814.409 269.693L815 270.5ZM807.5 206L806.803 205.283L806.803 205.283L807.5 206ZM801.105 155.704L801.605 156.57C801.624 156.559 801.642 156.548 801.66 156.536L801.105 155.704ZM815 92.42L816 92.42L816 92.42L815 92.42ZM804.5 49.9201L805.49 49.7825C805.441 49.4249 805.202 49.1218 804.866 48.9896C804.53 48.8573 804.149 48.9164 803.869 49.1442L804.5 49.9201ZM771.5 114.92L772.494 114.813L772.494 114.813L771.5 114.92ZM752 153.5L752.987 153.337L752.987 153.337L752 153.5ZM758 215L758.83 214.442L758.83 214.442L758 215ZM746.5 276L745.731 275.361L745.731 275.361L746.5 276ZM744.142 333.52L744.342 334.5C761.673 330.953 775.827 317.71 787.439 304.178C793.252 297.404 798.487 290.485 803.158 284.631C807.865 278.734 811.967 273.963 815.591 271.307L815 270.5L814.409 269.693C810.535 272.533 806.275 277.52 801.595 283.384C796.88 289.291 791.704 296.137 785.921 302.876C774.343 316.368 760.566 329.138 743.941 332.54L744.142 333.52ZM815 270.5L815.542 271.34C819.601 268.721 822.269 266.004 823.798 263.172C825.337 260.321 825.683 257.422 825.212 254.531C824.285 248.849 820.181 243.17 815.959 237.72C811.654 232.164 807.198 226.81 805.08 221.557C804.033 218.961 803.592 216.464 803.997 214.04C804.4 211.628 805.66 209.184 808.197 206.717L807.5 206L806.803 205.283C804.017 207.992 802.51 210.805 802.024 213.71C801.54 216.604 802.087 219.485 803.225 222.306C805.476 227.887 810.178 233.524 814.378 238.945C818.66 244.472 822.407 249.756 823.238 254.853C823.645 257.351 823.347 259.797 822.038 262.222C820.718 264.666 818.335 267.158 814.458 269.66L815 270.5ZM807.5 206L808.197 206.717C810.56 204.42 811.976 201.998 812.632 199.488C813.288 196.983 813.17 194.455 812.569 191.966C811.378 187.032 808.245 182.111 805.225 177.58C802.143 172.956 799.218 168.785 798.1 165.134C797.551 163.343 797.476 161.788 797.961 160.427C798.443 159.078 799.53 157.768 801.605 156.57L801.105 155.704L800.605 154.838C798.241 156.203 796.76 157.841 796.077 159.755C795.399 161.659 795.563 163.683 796.187 165.72C797.415 169.727 800.574 174.208 803.561 178.689C806.609 183.262 809.53 187.899 810.625 192.435C811.167 194.68 811.251 196.865 810.697 198.982C810.145 201.094 808.94 203.205 806.803 205.283L807.5 206ZM801.105 155.704L801.66 156.536C815.572 147.247 819.131 134.56 819.218 122.532C819.261 116.54 818.445 110.695 817.629 105.513C816.805 100.282 816 95.8186 816 92.42L815 92.42L814 92.42C814 96.0214 814.847 100.706 815.653 105.825C816.467 110.993 817.26 116.701 817.218 122.517C817.135 134.106 813.747 146.061 800.55 154.873L801.105 155.704ZM815 92.42L816 92.42C816 80.522 813.967 74.2644 811.608 68.7162C809.273 63.2257 806.718 58.6194 805.49 49.7825L804.5 49.9201L803.509 50.0576C804.782 59.2207 807.477 64.1144 809.767 69.4989C812.033 74.8257 814 80.818 814 92.42L815 92.42ZM804.5 49.9201L803.869 49.1442C781.218 67.564 767.94 91.1152 770.506 115.027L771.5 114.92L772.494 114.813C770.027 91.8241 782.776 68.8748 805.131 50.6959L804.5 49.9201ZM771.5 114.92L770.506 115.027C771.226 121.738 770.195 126.187 768.389 129.399C766.574 132.627 763.915 134.724 761.127 136.637C758.403 138.506 755.41 140.279 753.379 142.777C751.264 145.377 750.198 148.718 751.013 153.663L752 153.5L752.987 153.337C752.253 148.89 753.218 146.144 754.93 144.039C756.725 141.831 759.353 140.281 762.259 138.286C765.102 136.334 768.083 134.024 770.132 130.379C772.19 126.719 773.247 121.83 772.494 114.813L771.5 114.92ZM752 153.5L751.013 153.663C753.335 167.745 749.322 174.431 747.373 182.224C746.392 186.146 745.977 190.265 747.271 195.549C748.557 200.799 751.515 207.143 757.17 215.558L758 215L758.83 214.442C753.243 206.128 750.422 200.006 749.214 195.073C748.014 190.174 748.392 186.392 749.313 182.709C751.168 175.292 755.397 167.958 752.987 153.337L752 153.5ZM758 215L757.17 215.558C765.673 228.211 765.597 239.738 762.048 249.792C758.474 259.92 751.37 268.569 745.731 275.361L746.5 276L747.269 276.639C752.88 269.881 760.223 260.972 763.934 250.458C767.671 239.87 767.721 227.673 758.83 214.442L758 215ZM746.5 276L745.731 275.361C734.563 288.812 730 304.218 730.228 315.928C730.342 321.77 731.652 326.792 734.038 330.183C736.463 333.631 740.016 335.385 744.342 334.5L744.142 333.52L743.941 332.54C740.499 333.245 737.706 331.922 735.673 329.032C733.6 326.084 732.338 321.505 732.228 315.889C732.009 304.68 736.394 289.737 747.269 276.639L746.5 276Z" fill="#598918"/>
<path d="M744.142 333.52C729.653 329.638 726.3 305.446 737.799 277.986C744.601 261.741 791.393 257.384 774 231.5C756.606 205.616 751.993 184.194 762 161.92C770.5 143 783.709 145.098 780.763 117.642C778.217 93.92 787 71.92 804.5 49.92" stroke="#598918" stroke-width="2" stroke-miterlimit="2.61313" stroke-linejoin="round"/>
<path d="M744.142 333.52C734.526 321.108 740.075 286.878 746.432 276.676C757.235 259.339 794.01 266.49 785 232.5C775.99 198.51 772.253 189.966 779.5 162.92C780.127 160.578 779.174 147.829 792.5 124.92C805.826 102.011 796.581 74.18 804.5 50.42" stroke="#598918" stroke-width="2" stroke-miterlimit="2.61313" stroke-linejoin="round"/>
<path d="M744.142 333.52C755.357 301.326 780.317 297.068 780.5 279C780.646 264.545 796.5 256.5 799 222C801.5 187.5 787.5 206 790 176C792.5 146 811.187 143.761 805.343 112.841C799.5 81.92 808.5 77.92 804.5 50.92" stroke="#598918" stroke-width="2" stroke-miterlimit="2.61313" stroke-linejoin="round"/>
<path d="M959.62 257.244C969.952 272.703 931.082 303.934 960.614 322.077C974.127 330.379 1013.26 302.942 1001.63 270.455C995.691 253.875 980.876 238.023 1006.07 219.649C1038.65 195.898 1007.36 172.081 1021.63 146.728C1030.96 130.134 997.512 132.096 1009.67 107.303C1020.06 86.1279 1015.78 59.8289 1000.89 34.9367C992.387 50.9961 984.527 49.1997 976.49 71.2824C971.701 84.4382 948.619 109.222 967.902 135.502C981.083 151.211 955.886 169.585 974.546 185.773C996.98 205.234 936.797 227.14 959.62 257.244Z" fill="#72B01E"/>
<path d="M960.614 322.077L961.137 321.225L961.137 321.225L960.614 322.077ZM959.62 257.244L960.417 256.64C960.429 256.655 960.44 256.672 960.451 256.688L959.62 257.244ZM974.546 185.773L973.891 186.528L973.891 186.528L974.546 185.773ZM967.902 135.502L967.136 136.145C967.122 136.129 967.109 136.112 967.096 136.094L967.902 135.502ZM976.49 71.2824L975.55 70.9404L975.55 70.9404L976.49 71.2824ZM1000.89 34.9367L1000.01 34.4687C1000.18 34.1496 1000.51 33.9464 1000.87 33.9371C1001.23 33.9277 1001.57 34.1136 1001.75 34.4234L1000.89 34.9367ZM1009.67 107.303L1008.77 106.863L1008.77 106.863L1009.67 107.303ZM1021.63 146.728L1020.76 146.237L1020.76 146.237L1021.63 146.728ZM1006.07 219.649L1006.66 220.457L1006.66 220.457L1006.07 219.649ZM1001.63 270.455L1002.57 270.118L1002.57 270.118L1001.63 270.455ZM960.614 322.077L960.09 322.929C952.484 318.257 949.17 312.65 948.46 306.583C947.759 300.601 949.61 294.316 951.987 288.287C953.178 285.266 954.523 282.258 955.77 279.371C957.023 276.469 958.18 273.682 959.029 271.039C960.741 265.708 961.1 261.259 958.788 257.8L959.62 257.244L960.451 256.688C963.305 260.959 962.68 266.211 960.933 271.65C960.052 274.393 958.861 277.258 957.606 280.164C956.345 283.084 955.023 286.039 953.847 289.021C951.49 295 949.806 300.891 950.446 306.351C951.076 311.725 953.977 316.826 961.137 321.225L960.614 322.077ZM959.62 257.244L958.823 257.848C952.915 250.055 952.348 242.702 954.525 235.812C956.671 229.017 961.475 222.712 966.158 216.891C970.907 210.986 975.481 205.629 977.542 200.542C978.557 198.034 978.923 195.674 978.432 193.408C977.943 191.148 976.574 188.856 973.891 186.528L974.546 185.773L975.201 185.017C978.127 187.555 979.785 190.205 980.387 192.985C980.988 195.759 980.51 198.54 979.395 201.292C977.194 206.727 972.355 212.377 967.716 218.144C963.01 223.995 958.45 230.027 956.432 236.414C954.444 242.707 954.914 249.381 960.417 256.64L959.62 257.244ZM974.546 185.773L973.891 186.528C969.048 182.327 966.993 177.918 966.495 173.407C966.005 168.956 967.045 164.486 968.204 160.197C970.569 151.446 973.326 143.522 967.136 136.145L967.902 135.502L968.668 134.86C975.659 143.191 972.408 152.308 970.135 160.719C968.975 165.01 968.038 169.151 968.483 173.188C968.922 177.166 970.714 181.125 975.201 185.017L974.546 185.773ZM967.902 135.502L967.096 136.094C957.2 122.607 958.195 109.468 962.227 98.1354C964.236 92.4901 967.002 87.2768 969.541 82.6871C972.105 78.0527 974.388 74.134 975.55 70.9404L976.49 71.2824L977.429 71.6244C976.198 75.0086 973.799 79.1214 971.291 83.6552C968.758 88.2337 966.061 93.3256 964.111 98.8058C960.226 109.725 959.321 122.117 968.708 134.911L967.902 135.502ZM976.49 71.2824L975.55 70.9404C979.619 59.7599 983.67 54.5749 987.785 50.1683C991.857 45.8076 995.833 42.3529 1000.01 34.4687L1000.89 34.9367L1001.78 35.4048C997.446 43.58 993.24 47.2567 989.246 51.5333C985.296 55.764 981.397 60.7221 977.429 71.6244L976.49 71.2824ZM1000.89 34.9367L1001.75 34.4234C1016.74 59.4795 1021.16 86.1518 1010.57 107.744L1009.67 107.303L1008.77 106.863C1018.95 86.104 1014.82 60.1784 1000.03 35.45L1000.89 34.9367ZM1009.67 107.303L1010.57 107.744C1007.61 113.779 1007.5 118.017 1008.66 121.251C1009.84 124.537 1012.4 126.987 1015.23 129.319C1016.61 130.456 1018.1 131.606 1019.4 132.747C1020.72 133.9 1021.94 135.128 1022.83 136.512C1023.73 137.912 1024.3 139.479 1024.3 141.288C1024.29 143.086 1023.73 145.038 1022.5 147.218L1021.63 146.728L1020.76 146.237C1021.86 144.269 1022.29 142.652 1022.3 141.285C1022.3 139.928 1021.88 138.732 1021.15 137.595C1020.41 136.442 1019.35 135.359 1018.08 134.251C1016.8 133.129 1015.41 132.066 1013.95 130.861C1011.11 128.511 1008.16 125.765 1006.78 121.928C1005.38 118.038 1005.65 113.224 1008.77 106.863L1009.67 107.303ZM1021.63 146.728L1022.5 147.218C1019.06 153.34 1018.35 159.374 1018.76 165.41C1019.17 171.524 1020.7 177.458 1021.7 183.629C1022.69 189.723 1023.13 195.906 1021.19 202.1C1019.25 208.316 1014.94 214.423 1006.66 220.457L1006.07 219.649L1005.48 218.841C1013.49 213 1017.49 207.223 1019.28 201.502C1021.09 195.758 1020.7 189.948 1019.73 183.95C1018.77 178.028 1017.18 171.77 1016.76 165.545C1016.34 159.242 1017.07 152.792 1020.76 146.237L1021.63 146.728ZM1006.07 219.649L1006.66 220.457C1000.45 224.986 996.786 229.303 994.817 233.438C992.855 237.556 992.541 241.57 993.163 245.571C993.79 249.598 995.364 253.607 997.188 257.699C998.994 261.75 1001.07 265.926 1002.57 270.118L1001.63 270.455L1000.69 270.792C999.219 266.695 997.215 262.671 995.361 258.513C993.526 254.395 991.857 250.184 991.187 245.879C990.514 241.548 990.849 237.117 993.011 232.578C995.165 228.055 999.096 223.499 1005.48 218.841L1006.07 219.649ZM1001.63 270.455L1002.57 270.118C1008.56 286.847 1001.45 302.22 991.253 312.274C986.153 317.305 980.235 321.057 974.693 323.024C969.197 324.976 963.851 325.24 960.09 322.929L960.614 322.077L961.137 321.225C964.132 323.065 968.746 323.013 974.024 321.14C979.257 319.282 984.93 315.701 989.849 310.85C999.693 301.14 1006.33 286.551 1000.69 270.792L1001.63 270.455Z" fill="#598918"/>
<path d="M960.614 322.077C975.557 323.384 986.981 301.798 985.568 272.062C984.731 254.47 967.935 238.397 993.132 220.023C1018.33 201.649 1017.39 174.088 1002.52 154.718C990.93 139.615 987.877 131.486 1000.04 106.693C1010.54 85.2723 1009.81 61.5952 1000.89 34.9366" stroke="#598918" stroke-width="2" stroke-miterlimit="2.61313" stroke-linejoin="round"/>
<path d="M960.614 322.077C973.894 313.703 980.388 279.639 977.903 267.878C971.169 236 971.49 232.183 991.581 203.324C1011.67 174.465 983.296 177.566 985.736 149.672C985.948 147.257 991.204 135.603 986.517 109.518C981.83 83.4321 1000.04 60.4421 1000.72 35.4064" stroke="#598918" stroke-width="2" stroke-miterlimit="2.61313" stroke-linejoin="round"/>
<path d="M960.614 322.077C961.086 287.989 960.992 291.541 967 274.5C971.806 260.867 961.609 241.859 979.253 212.284C996.898 182.709 976.601 190.972 979.041 163.078C981.482 135.185 962.513 120.832 978.58 93.7742C994.646 66.7168 987.557 59.8798 1000.55 35.8762" stroke="#598918" stroke-width="2" stroke-miterlimit="2.61313" stroke-linejoin="round"/>
<path d="M628 69.498C642.997 58.5049 642.045 18.0419 676 11.0935C691.538 7.91397 702.543 56.0446 680.5 82.5935C669.25 96.1434 652.607 99.6143 670 125.498C692.484 158.957 665.268 181.297 670 210C673.215 229.5 655.088 232 656 240.5C658.516 263.95 650.503 265.201 628 283.5C629.502 266.303 593.978 260.851 602.5 244.5C608.971 232.085 589.891 210.601 617 192.5C634.759 182.247 597.929 147.33 621 138.5C648.737 127.885 596.258 89.9804 628 69.498Z" fill="#72B01E"/>
<path d="M676 11.0935L676.201 12.0732L676.201 12.0732L676 11.0935ZM628 69.498L628.542 70.3382C628.559 70.3275 628.575 70.3162 628.591 70.3045L628 69.498ZM621 138.5L620.643 137.566L620.643 137.566L621 138.5ZM617 192.5L616.5 191.634C616.481 191.645 616.463 191.656 616.445 191.668L617 192.5ZM602.5 244.5L603.387 244.962L602.5 244.5ZM628 283.5L627.004 283.413C626.969 283.813 627.177 284.195 627.532 284.383C627.886 284.572 628.319 284.529 628.631 284.276L628 283.5ZM656 240.5L655.006 240.607L655.006 240.607L656 240.5ZM670 210L669.013 210.163L669.013 210.163L670 210ZM670 125.498L669.17 126.056L669.17 126.056L670 125.498ZM680.5 82.5935L681.269 83.2323L681.269 83.2323L680.5 82.5935ZM676 11.0935L675.8 10.1138C658.357 13.6831 649.915 25.8935 643.988 38.3493C642.506 41.4623 641.176 44.603 639.903 47.6321C638.627 50.6688 637.411 53.586 636.146 56.2877C633.604 61.7177 630.94 66.1033 627.409 68.6915L628 69.498L628.591 70.3045C632.559 67.3962 635.399 62.6014 637.958 57.1356C639.243 54.3895 640.476 51.4299 641.747 48.407C643.02 45.3765 644.334 42.2749 645.794 39.2087C651.628 26.9475 659.688 15.4523 676.201 12.0732L676 11.0935ZM628 69.498L627.458 68.6577C623.376 71.2916 620.597 74.2394 618.847 77.4269C617.096 80.6161 616.404 83.9906 616.416 87.4313C616.439 94.2614 619.244 101.429 622.078 108.091C623.508 111.454 624.946 114.682 626.098 117.754C627.25 120.826 628.087 123.664 628.336 126.218C628.584 128.759 628.244 130.953 627.11 132.805C625.975 134.657 623.97 136.293 620.643 137.566L621 138.5L621.357 139.434C624.965 138.053 627.386 136.183 628.815 133.85C630.244 131.517 630.602 128.848 630.327 126.023C630.052 123.21 629.144 120.179 627.971 117.052C626.798 113.926 625.33 110.626 623.918 107.308C621.067 100.606 618.438 93.7938 618.416 87.4244C618.405 84.2653 619.037 81.2353 620.6 78.3896C622.164 75.5422 624.688 72.825 628.542 70.3382L628 69.498ZM621 138.5L620.643 137.566C617.611 138.726 615.479 140.349 614.105 142.373C612.733 144.394 612.176 146.727 612.139 149.206C612.067 154.1 614.031 159.791 616.07 165.313C618.144 170.93 620.303 176.393 620.88 181.1C621.166 183.434 621.049 185.496 620.389 187.245C619.738 188.969 618.532 190.461 616.5 191.634L617 192.5L617.5 193.366C619.908 191.976 621.436 190.133 622.26 187.951C623.075 185.794 623.174 183.376 622.865 180.857C622.252 175.858 619.976 170.117 617.946 164.62C615.881 159.027 614.073 153.692 614.139 149.235C614.171 147.038 614.661 145.115 615.76 143.497C616.857 141.881 618.621 140.481 621.357 139.434L621 138.5ZM617 192.5L616.445 191.668C609.542 196.277 605.51 201.15 603.295 206.107C601.082 211.059 600.721 216.007 601.013 220.694C601.159 223.035 601.468 225.321 601.795 227.511C602.123 229.715 602.465 231.797 602.69 233.795C603.141 237.803 603.085 241.215 601.613 244.038L602.5 244.5L603.387 244.962C605.151 241.578 605.136 237.648 604.677 233.571C604.447 231.526 604.095 229.379 603.773 227.216C603.448 225.039 603.149 222.822 603.009 220.57C602.729 216.072 603.085 211.479 605.121 206.923C607.155 202.373 610.904 197.773 617.555 193.332L617 192.5ZM602.5 244.5L601.613 244.038C600.474 246.224 600.042 248.287 600.214 250.252C600.386 252.212 601.15 253.995 602.275 255.639C604.497 258.884 608.24 261.731 612.029 264.491C615.881 267.297 619.816 270.036 622.721 273.135C625.606 276.211 627.345 279.508 627.004 283.413L628 283.5L628.996 283.587C629.406 278.893 627.268 275.06 624.18 271.767C621.113 268.495 616.982 265.625 613.206 262.875C609.367 260.078 605.92 257.422 603.925 254.509C602.942 253.073 602.341 251.613 602.207 250.078C602.073 248.548 602.396 246.864 603.387 244.962L602.5 244.5ZM628 283.5L628.631 284.276C634.255 279.702 638.931 276.228 642.842 273.144C646.723 270.084 649.832 267.421 652.158 264.563C656.9 258.736 658.266 252.243 656.994 240.393L656 240.5L655.006 240.607C656.25 252.207 654.868 258.065 650.607 263.3C648.431 265.974 645.475 268.52 641.603 271.574C637.761 274.604 632.997 278.148 627.369 282.724L628 283.5ZM656 240.5L656.994 240.393C656.81 238.68 657.557 237.203 659.007 235.55C659.732 234.723 660.599 233.89 661.562 232.984C662.514 232.088 663.557 231.124 664.58 230.073C666.634 227.963 668.669 225.447 669.97 222.166C671.276 218.872 671.817 214.875 670.987 209.837L670 210L669.013 210.163C669.79 214.875 669.271 218.503 668.111 221.428C666.946 224.365 665.11 226.662 663.147 228.677C662.162 229.689 661.161 230.615 660.191 231.528C659.232 232.43 658.299 233.324 657.503 234.231C655.911 236.047 654.733 238.07 655.006 240.607L656 240.5ZM670 210L670.987 209.837C669.833 202.839 670.621 196.203 672.14 189.618C672.9 186.322 673.84 183.052 674.808 179.753C675.774 176.463 676.77 173.14 677.626 169.78C679.34 163.052 680.515 156.099 679.816 148.687C679.115 141.262 676.538 133.434 670.83 124.94L670 125.498L669.17 126.056C674.705 134.292 677.157 141.804 677.825 148.875C678.493 155.959 677.376 162.658 675.688 169.286C674.843 172.603 673.86 175.883 672.889 179.19C671.921 182.489 670.966 185.81 670.191 189.168C668.641 195.89 667.801 202.81 669.013 210.163L670 210ZM670 125.498L670.83 124.94C666.52 118.526 664.383 113.592 663.707 109.612C663.038 105.677 663.789 102.63 665.372 99.9257C666.983 97.1736 669.466 94.7526 672.344 92.1104C675.19 89.497 678.403 86.6849 681.269 83.2323L680.5 82.5935L679.731 81.9547C676.972 85.277 673.885 87.98 670.991 90.6371C668.128 93.2655 665.428 95.8705 663.646 98.9154C661.836 102.008 660.984 105.529 661.735 109.947C662.478 114.322 664.784 119.529 669.17 126.056L670 125.498ZM680.5 82.5935L681.269 83.2323C692.522 69.6788 695.296 50.699 693.334 35.5668C692.353 27.9958 690.176 21.293 687.2 16.6508C684.247 12.0453 680.297 9.1934 675.8 10.1138L676 11.0935L676.201 12.0732C679.472 11.4038 682.724 13.3759 685.516 17.7303C688.284 22.0481 690.394 28.4411 691.351 35.8239C693.266 50.5993 690.52 68.9593 679.731 81.9547L680.5 82.5935Z" fill="#598918"/>
<path d="M677 11.0935C691.489 14.9758 679.499 42.134 668 69.5935C661.197 85.8381 637.107 97.6143 654.5 123.498C671.893 149.382 680.596 168.884 660 182C643.94 192.227 657 199.5 645 226C635.271 247.485 622.003 264.201 599.5 282.5" stroke="#598918" stroke-width="2" stroke-miterlimit="2.61313" stroke-linejoin="round"/>
<path d="M678 11.0935C687.615 23.5049 658.857 56.8912 652.5 67.0935C641.697 84.43 634.377 102.508 643.387 136.498C652.397 170.488 648.747 162.454 641.5 189.5C636.572 207.891 627.054 203.044 630 230.5C632.946 257.956 592.166 260.789 584.247 284.549" stroke="#598918" stroke-width="2" stroke-miterlimit="2.61313" stroke-linejoin="round"/>
<path d="M678.5 12.0935C667.285 44.2878 648.183 38.0251 648 56.0935C647.854 70.5482 627.035 80.672 633.5 114.498C639.966 148.324 640.011 156 633.5 168.5C626.99 181 616.261 204.047 616 234C615.739 263.953 589.821 256.019 583.764 284.419" stroke="#598918" stroke-width="2" stroke-miterlimit="2.61313" stroke-linejoin="round"/>
<path d="M545.762 281.297C538.271 298.316 559.327 332.882 533.395 355.877C521.529 366.4 487.933 330.22 493.748 296.206C496.716 278.847 509.394 267.519 481.389 253.8C445.187 236.065 481.958 202.321 463.508 179.83C451.433 165.11 489.549 156.298 473.27 133.993C459.365 114.943 466.367 98.573 476.706 71.4738C484.003 87.1181 503.262 85.5812 504.057 104.003C504.661 117.99 536.557 132.565 522.13 161.795C511.877 179.553 527.031 191.85 511.465 211.032C492.752 234.093 563.01 247.688 545.762 281.297Z" fill="#72B01E"/>
<path d="M533.395 355.877L534.058 356.625L534.058 356.625L533.395 355.877ZM545.762 281.297L544.872 280.841C544.863 280.859 544.854 280.876 544.846 280.895L545.762 281.297ZM511.465 211.032L510.689 210.402L510.689 210.402L511.465 211.032ZM522.13 161.795L522.996 162.295C523.007 162.276 523.017 162.257 523.027 162.237L522.13 161.795ZM504.057 104.003L505.056 103.96L505.056 103.96L504.057 104.003ZM476.706 71.4738L477.612 71.0511C477.442 70.6871 477.071 70.46 476.67 70.4745C476.268 70.4889 475.915 70.7421 475.771 71.1174L476.706 71.4738ZM473.27 133.993L474.078 133.404L474.078 133.404L473.27 133.993ZM463.508 179.83L464.281 179.196L464.281 179.196L463.508 179.83ZM481.389 253.8L481.829 252.902L481.829 252.902L481.389 253.8ZM493.748 296.206L492.762 296.038L492.762 296.038L493.748 296.206ZM533.395 355.877L534.058 356.625C547.379 344.813 548.585 330.017 547.49 316.267C547.217 312.83 546.799 309.445 546.386 306.185C545.973 302.917 545.568 299.783 545.312 296.811C544.798 290.838 544.913 285.707 546.677 281.7L545.762 281.297L544.846 280.895C542.865 285.397 542.802 290.97 543.319 296.982C543.579 300.003 543.991 303.183 544.402 306.436C544.814 309.697 545.227 313.041 545.497 316.426C546.574 329.961 545.342 343.946 532.731 355.129L533.395 355.877ZM545.762 281.297L546.651 281.754C548.88 277.412 549.717 273.345 549.471 269.51C549.224 265.681 547.901 262.148 545.902 258.863C541.929 252.329 535.208 246.657 528.69 241.429C522.091 236.136 515.748 231.329 512.162 226.423C510.387 223.994 509.359 221.631 509.273 219.257C509.187 216.905 510.02 214.4 512.242 211.662L511.465 211.032L510.689 210.402C508.232 213.429 507.167 216.393 507.274 219.33C507.381 222.245 508.637 224.99 510.548 227.604C514.333 232.783 520.968 237.799 527.438 242.989C533.99 248.244 540.43 253.713 544.194 259.902C546.064 262.978 547.254 266.201 547.475 269.639C547.696 273.071 546.956 276.781 544.872 280.841L545.762 281.297ZM511.465 211.032L512.242 211.662C516.222 206.757 518.267 202.253 519.232 197.963C520.194 193.687 520.07 189.676 519.787 185.807C519.221 178.038 518.052 170.859 522.996 162.295L522.13 161.795L521.264 161.295C515.956 170.489 517.237 178.337 517.793 185.952C518.071 189.774 518.176 193.545 517.281 197.524C516.389 201.489 514.491 205.716 510.689 210.402L511.465 211.032ZM522.13 161.795L523.027 162.237C526.72 154.755 527.472 148.151 526.463 142.232C525.458 136.335 522.717 131.197 519.553 126.615C517.97 124.323 516.273 122.157 514.625 120.103C512.969 118.038 511.376 116.101 509.964 114.222C507.113 110.432 505.192 107.119 505.056 103.96L504.057 104.003L503.058 104.046C503.223 107.881 505.516 111.635 508.365 115.424C509.802 117.336 511.431 119.317 513.064 121.354C514.706 123.401 516.367 125.52 517.907 127.751C520.989 132.215 523.555 137.075 524.492 142.568C525.424 148.041 524.754 154.219 521.234 161.352L522.13 161.795ZM504.057 104.003L505.056 103.96C504.849 99.1608 503.431 95.6058 501.272 92.7462C499.134 89.9129 496.303 87.8122 493.374 85.8641C487.444 81.9211 481.114 78.5582 477.612 71.0511L476.706 71.4738L475.799 71.8966C479.595 80.0337 486.544 83.7246 492.266 87.5296C495.163 89.4555 497.752 91.4025 499.676 93.9511C501.58 96.4734 502.867 99.6345 503.058 104.046L504.057 104.003ZM476.706 71.4738L475.771 71.1174C470.622 84.6141 466.229 95.6144 464.905 105.621C463.569 115.724 465.351 124.84 472.462 134.583L473.27 133.993L474.078 133.404C467.285 124.097 465.615 115.502 466.888 105.883C468.174 96.167 472.451 85.4327 477.64 71.8303L476.706 71.4738ZM473.27 133.993L472.462 134.583C476.385 139.957 476.954 144.386 475.947 148.242C474.917 152.185 472.205 155.682 469.213 159.097C467.746 160.772 466.18 162.462 464.815 164.099C463.44 165.746 462.196 167.422 461.334 169.148C460.468 170.882 459.967 172.707 460.132 174.635C460.298 176.568 461.125 178.502 462.735 180.464L463.508 179.83L464.281 179.196C462.873 177.479 462.249 175.916 462.125 174.464C462 173.005 462.368 171.552 463.123 170.041C463.882 168.523 465.01 166.987 466.351 165.38C467.701 163.762 469.193 162.155 470.718 160.415C473.71 156.999 476.721 153.191 477.882 148.748C479.065 144.219 478.295 139.181 474.078 133.404L473.27 133.993ZM463.508 179.83L462.735 180.464C467.141 185.835 468.276 191.888 467.996 198.339C467.712 204.856 466.005 211.59 464.807 218.426C463.622 225.178 462.953 231.971 464.965 238.229C466.997 244.549 471.708 250.171 480.949 254.698L481.389 253.8L481.829 252.902C472.968 248.562 468.701 243.315 466.869 237.617C465.017 231.857 465.599 225.484 466.776 218.772C467.939 212.143 469.703 205.116 469.994 198.426C470.288 191.67 469.101 185.071 464.281 179.196L463.508 179.83ZM481.389 253.8L480.949 254.698C487.889 258.098 492.206 261.303 494.782 264.411C497.329 267.485 498.202 270.499 498.183 273.632C498.164 276.821 497.224 280.159 496.053 283.886C494.894 287.573 493.518 291.615 492.762 296.038L493.748 296.206L494.733 296.375C495.461 292.118 496.783 288.234 497.961 284.486C499.126 280.778 500.162 277.172 500.183 273.644C500.204 270.061 499.181 266.586 496.322 263.135C493.491 259.718 488.891 256.362 481.829 252.902L481.389 253.8ZM493.748 296.206L492.762 296.038C489.793 313.402 496.882 331.226 506.146 343.35C510.782 349.416 516.018 354.132 520.917 356.664C525.777 359.176 530.623 359.671 534.058 356.625L533.395 355.877L532.731 355.129C530.233 357.344 526.43 357.263 521.835 354.888C517.279 352.532 512.255 348.051 507.735 342.136C498.689 330.297 491.887 313.024 494.733 296.375L493.748 296.206Z" fill="#598918"/>
<path d="M532.529 356.377C518.04 360.259 514.844 330.745 511.073 301.215C508.842 283.745 523.817 261.501 495.812 247.782C467.807 234.063 468.139 209.045 479.418 187.387C488.213 170.501 501.762 161.307 485.483 139.003C471.578 119.953 466.367 98.573 476.706 71.4738" stroke="#598918" stroke-width="2" stroke-miterlimit="2.61313" stroke-linejoin="round"/>
<path d="M531.663 356.877C517.13 350.936 525.342 307.644 525.746 295.63C526.433 275.215 523.734 255.898 498.936 230.967C474.139 206.036 505.883 198.719 498.636 171.673C493.708 153.283 507.738 148.836 491.458 126.531C475.179 104.227 481.15 97.7177 476.128 73.1813" stroke="#598918" stroke-width="2" stroke-miterlimit="2.61313" stroke-linejoin="round"/>
<path d="M530.73 356.261C524.345 322.773 544.019 318.645 535.144 302.906C528.043 290.315 541.011 271.138 518.499 245.076C495.986 219.015 508.329 217.461 507.154 190.427C505.979 163.392 519.119 148.625 504.369 122.554C489.619 96.4838 485.566 100.676 476.611 73.0521" stroke="#598918" stroke-width="2" stroke-miterlimit="2.61313" stroke-linejoin="round"/>
<path d="M692.151 159.513C664.695 150.646 700.295 125.076 689.613 81.7727C711.626 85.6763 753.737 105.092 739.366 136.464C732.401 151.67 724.014 178.588 750.716 194.696C766.037 206.719 756.68 217 755.461 236C754.242 255 775.176 273.325 782.414 299.973C788.203 321.292 759.331 351.43 739.711 365.89C737.974 356.042 728.755 338.882 712.376 317.4C695.996 295.918 713.663 280.886 701.762 256.583C687.457 238.797 678.855 233.206 694.5 201C697.48 194.865 717.986 170.697 692.151 159.513Z" fill="#C1E967"/>
<path d="M689.613 81.7727L689.788 80.7881C689.455 80.729 689.114 80.8424 688.883 81.0894C688.652 81.3365 688.561 81.6837 688.642 82.0122L689.613 81.7727ZM692.151 159.513L692.549 158.595C692.519 158.583 692.489 158.571 692.459 158.561L692.151 159.513ZM694.5 201L693.601 200.563L693.601 200.563L694.5 201ZM701.762 256.583L702.66 256.144C702.628 256.077 702.588 256.014 702.542 255.957L701.762 256.583ZM739.711 365.89L738.726 366.063C738.786 366.404 739.018 366.69 739.339 366.818C739.661 366.947 740.026 366.9 740.304 366.695L739.711 365.89ZM750.716 194.696L751.334 193.91C751.302 193.884 751.268 193.861 751.233 193.84L750.716 194.696ZM739.366 136.464L740.276 136.881L740.276 136.881L739.366 136.464ZM689.613 81.7727L688.642 82.0122C693.906 103.351 687.782 120.308 683.639 133.252C682.607 136.479 681.689 139.484 681.12 142.234C680.551 144.982 680.314 147.542 680.686 149.873C681.063 152.23 682.059 154.326 683.9 156.119C685.722 157.895 688.324 159.328 691.844 160.465L692.151 159.513L692.459 158.561C689.115 157.482 686.823 156.176 685.295 154.687C683.785 153.215 682.975 151.521 682.661 149.557C682.343 147.567 682.532 145.277 683.078 142.64C683.624 140.005 684.511 137.091 685.544 133.861C689.668 120.977 696.002 103.497 690.584 81.5332L689.613 81.7727ZM692.151 159.513L691.754 160.431C698.045 163.154 701.377 166.603 702.915 170.24C704.461 173.894 704.267 177.906 703.167 181.883C702.067 185.862 700.083 189.72 698.161 192.996C697.201 194.632 696.266 196.109 695.467 197.384C694.681 198.639 694.002 199.737 693.601 200.563L694.5 201L695.4 201.437C695.744 200.729 696.357 199.73 697.162 198.446C697.954 197.181 698.908 195.676 699.886 194.008C701.839 190.679 703.926 186.645 705.095 182.417C706.265 178.187 706.54 173.676 704.757 169.461C702.968 165.23 699.175 161.464 692.549 158.595L692.151 159.513ZM694.5 201L693.601 200.563C685.758 216.707 683.854 226.438 685.932 234.45C686.968 238.445 688.974 241.935 691.584 245.513C694.175 249.065 697.444 252.81 700.983 257.21L701.762 256.583L702.542 255.957C698.927 251.463 695.757 247.84 693.2 244.335C690.663 240.856 688.815 237.6 687.868 233.948C685.979 226.666 687.597 217.499 695.4 201.437L694.5 201ZM701.762 256.583L700.864 257.023C706.674 268.886 705.279 278.442 704.394 287.957C703.505 297.513 703.158 306.96 711.58 318.006L712.376 317.4L713.171 316.794C705.214 306.358 705.511 297.548 706.385 288.142C707.264 278.695 708.752 268.583 702.66 256.144L701.762 256.583ZM712.376 317.4L711.58 318.006C719.749 328.72 726.12 338.34 730.661 346.494C735.211 354.667 737.887 361.304 738.726 366.063L739.711 365.89L740.696 365.716C739.798 360.628 736.996 353.76 732.408 345.521C727.81 337.263 721.382 327.562 713.171 316.794L712.376 317.4ZM739.711 365.89L740.304 366.695C750.177 359.419 762.376 348.202 771.393 336.101C775.902 330.05 779.64 323.745 781.883 317.575C784.125 311.406 784.898 305.305 783.379 299.711L782.414 299.973L781.449 300.235C782.824 305.301 782.159 310.961 780.003 316.891C777.848 322.819 774.227 328.95 769.789 334.906C760.913 346.818 748.865 357.901 739.118 365.085L739.711 365.89ZM782.414 299.973L783.379 299.711C779.718 286.231 772.591 274.86 766.63 264.616C760.618 254.283 755.872 245.213 756.459 236.064L755.461 236L754.463 235.936C753.831 245.788 758.942 255.38 764.902 265.622C770.913 275.952 777.872 287.067 781.449 300.235L782.414 299.973ZM755.461 236L756.459 236.064C756.759 231.388 757.56 227.241 758.367 223.428C759.168 219.642 759.992 216.121 760.287 212.82C760.585 209.492 760.355 206.308 759.012 203.158C757.671 200.011 755.257 196.988 751.334 193.91L750.716 194.696L750.099 195.483C753.836 198.415 755.998 201.186 757.173 203.942C758.346 206.695 758.574 209.523 758.295 212.642C758.014 215.79 757.227 219.153 756.41 223.014C755.599 226.849 754.773 231.111 754.463 235.936L755.461 236ZM750.716 194.696L751.233 193.84C738.189 185.972 733.775 175.535 733.415 165.207C733.053 154.801 736.811 144.443 740.276 136.881L739.366 136.464L738.457 136.048C734.956 143.691 731.038 154.395 731.417 165.277C731.798 176.237 736.541 187.313 750.2 195.553L750.716 194.696ZM739.366 136.464L740.276 136.881C743.972 128.812 744.056 121.445 741.691 114.893C739.338 108.372 734.59 102.742 728.761 98.0394C717.117 88.6456 700.917 82.7616 689.788 80.7881L689.613 81.7727L689.439 82.7573C700.322 84.6873 716.184 90.463 727.506 99.5961C733.16 104.157 737.621 109.507 739.81 115.572C741.988 121.606 741.947 128.43 738.457 136.048L739.366 136.464Z" fill="#93B34B"/>
<path d="M689.613 81.7727C712.5 92.5 729.253 100.816 722.5 134.5C719.212 150.899 741.267 197.037 737.5 222C733.733 246.963 753.804 247.138 752.585 266.139C751.366 285.139 760.722 283.489 767.959 310.138C773.749 331.456 754.951 334.263 739.711 365.89" stroke="#93B34B" stroke-width="2" stroke-miterlimit="2.61313" stroke-linejoin="round"/>
<path d="M689.613 81.7727C709.973 96.4604 693.996 103.817 702.729 121.6C735.999 189.352 709.133 183.219 725 218.5C740.867 253.781 732.843 258.65 741.606 278.737C747.571 292.409 768.626 302.404 750.288 327.977C743.247 337.796 749.156 347.47 739.711 365.89" stroke="#93B34B" stroke-width="2" stroke-miterlimit="2.61313" stroke-linejoin="round"/>
<path d="M689.613 81.7727C705.078 100.37 684.65 120.975 695.399 137.617C725.428 184.108 707.355 209.55 703.5 228C699.645 246.45 724.839 252.753 733.959 278.562C738.929 292.626 715.072 298.139 734.851 321.052C742.747 330.199 742.06 344.659 739.711 365.89" stroke="#93B34B" stroke-width="2" stroke-miterlimit="2.61313" stroke-linejoin="round"/>
<path d="M317.247 141.197C289.79 132.33 312.445 93.8106 327.418 62.7386C338.681 89.1845 384.763 90.8071 370.393 122.179C363.427 137.385 334.326 168.14 350.253 192.241C365.573 204.263 371.612 210.488 370.393 229.488C369.173 248.488 396.16 253.884 403.398 280.532C409.188 301.851 377.128 334.908 357.507 349.368C355.771 339.52 361.496 320.741 345.117 299.258C328.738 277.776 329.148 265.803 317.247 241.5C302.941 223.714 284.355 224.447 300 192.241C302.98 186.106 343.081 152.381 317.247 141.197Z" fill="#C1E967"/>
<path d="M327.418 62.7386L328.338 62.3468C328.184 61.9857 327.833 61.748 327.441 61.7389C327.049 61.7298 326.687 61.951 326.517 62.3045L327.418 62.7386ZM317.247 141.197L317.644 140.279C317.615 140.266 317.585 140.255 317.554 140.245L317.247 141.197ZM300 192.241L299.101 191.804L299.101 191.804L300 192.241ZM317.247 241.5L318.145 241.06C318.112 240.994 318.072 240.931 318.026 240.873L317.247 241.5ZM357.507 349.368L356.522 349.542C356.582 349.883 356.814 350.168 357.136 350.297C357.457 350.425 357.822 350.378 358.1 350.173L357.507 349.368ZM350.253 192.241L349.418 192.792C349.478 192.882 349.551 192.961 349.635 193.028L350.253 192.241ZM370.393 122.179L371.302 122.596L371.302 122.596L370.393 122.179ZM327.418 62.7386L326.517 62.3045C319.069 77.7611 309.593 95.2903 305.459 110.024C303.39 117.395 302.607 124.228 304.185 129.837C305.788 135.536 309.791 139.84 316.939 142.148L317.247 141.197L317.554 140.245C310.974 138.12 307.513 134.284 306.11 129.296C304.681 124.218 305.349 117.816 307.384 110.565C311.456 96.0546 320.794 78.7882 328.319 63.1727L327.418 62.7386ZM317.247 141.197L316.849 142.114C319.953 143.458 321.982 145.103 323.22 146.914C324.452 148.716 324.951 150.757 324.871 152.992C324.708 157.526 322.165 162.784 318.601 168.052C315.058 173.288 310.614 178.385 306.841 182.581C304.964 184.669 303.24 186.55 301.902 188.089C300.593 189.594 299.542 190.895 299.101 191.804L300 192.241L300.899 192.678C301.203 192.053 302.057 190.958 303.411 189.401C304.735 187.878 306.431 186.03 308.329 183.918C312.106 179.717 316.631 174.532 320.257 169.173C323.862 163.845 326.686 158.19 326.869 153.064C326.962 150.469 326.379 147.992 324.871 145.785C323.368 143.587 320.999 141.731 317.644 140.279L317.247 141.197ZM300 192.241L299.101 191.804C295.164 199.908 293.328 206.042 293.084 210.974C292.838 215.957 294.219 219.665 296.587 222.872C298.914 226.023 302.2 228.69 305.675 231.596C309.181 234.528 312.958 237.763 316.468 242.127L317.247 241.5L318.026 240.873C314.383 236.344 310.472 233.001 306.958 230.062C303.413 227.097 300.348 224.599 298.196 221.684C296.085 218.825 294.859 215.567 295.082 211.073C295.306 206.529 297.014 200.677 300.899 192.678L300 192.241ZM317.247 241.5L316.349 241.94C322.276 254.043 325.115 263.024 328.572 271.803C332.03 280.583 336.064 289.033 344.322 299.865L345.117 299.258L345.913 298.652C337.792 288.001 333.841 279.723 330.433 271.07C327.025 262.417 324.119 253.259 318.145 241.06L317.247 241.5ZM345.117 299.258L344.322 299.865C352.378 310.431 354.989 320.31 355.808 328.772C356.218 333.018 356.179 336.91 356.142 340.394C356.106 343.843 356.068 346.968 356.522 349.542L357.507 349.368L358.492 349.195C358.077 346.844 358.105 343.929 358.142 340.415C358.178 336.938 358.221 332.946 357.799 328.58C356.951 319.82 354.235 309.568 345.913 298.652L345.117 299.258ZM357.507 349.368L358.1 350.173C367.976 342.895 380.967 330.951 390.776 318.13C395.68 311.719 399.815 305.054 402.359 298.616C404.899 292.186 405.888 285.888 404.363 280.27L403.398 280.532L402.433 280.794C403.802 285.836 402.955 291.665 400.499 297.881C398.047 304.088 394.026 310.589 389.187 316.915C379.508 329.566 366.659 341.381 356.914 348.563L357.507 349.368ZM403.398 280.532L404.363 280.27C400.662 266.642 391.898 258.459 384.409 251.414C376.828 244.282 370.816 238.504 371.39 229.552L370.393 229.488L369.395 229.424C368.75 239.472 375.622 245.893 383.039 252.871C390.548 259.936 398.897 267.774 402.433 280.794L403.398 280.532ZM370.393 229.488L371.39 229.552C372.008 219.935 370.796 213.402 367.382 207.732C364 202.117 358.512 197.451 350.87 191.454L350.253 192.241L349.635 193.028C357.314 199.053 362.505 203.51 365.668 208.764C368.798 213.961 369.997 220.041 369.395 229.424L370.393 229.488ZM350.253 192.241L351.087 191.689C343.432 180.107 346.517 166.842 352.636 154.313C355.686 148.07 359.45 142.091 362.909 136.692C366.346 131.328 369.523 126.478 371.302 122.596L370.393 122.179L369.483 121.763C367.779 125.483 364.706 130.18 361.225 135.613C357.767 141.01 353.945 147.077 350.839 153.436C344.648 166.112 341.146 180.274 349.418 192.792L350.253 192.241ZM370.393 122.179L371.302 122.596C374.99 114.543 374.858 108.236 372.22 102.93C369.621 97.7057 364.664 93.6131 359.083 89.7869C353.413 85.8989 347.18 82.3288 341.514 77.9782C335.898 73.6655 331.058 68.7324 328.338 62.3468L327.418 62.7386L326.498 63.1305C329.41 69.9677 334.554 75.1547 340.296 79.5645C345.99 83.9365 352.491 87.6914 357.952 91.4363C363.504 95.243 368.077 99.0912 370.429 103.821C372.741 108.469 372.98 114.129 369.483 121.763L370.393 122.179Z" fill="#93B34B"/>
<path d="M327.54 64.2402C330.926 83.4439 359.753 89.3155 353 123C349.712 139.399 351.768 125.971 344.089 148.649C336.411 171.327 344.65 200.412 357.507 221.5C367.418 237.756 359.628 254.052 393.164 288.756C408.515 304.641 372.747 317.741 357.507 349.368" stroke="#93B34B" stroke-width="2" stroke-miterlimit="2.61313" stroke-linejoin="round"/>
<path d="M327.852 65.2006C333.7 83.9702 324.819 94.1375 333.551 111.921C355.197 156 316.716 175.174 338 209.5C359.284 243.826 349.155 244.421 357.918 264.508C363.883 278.18 390.789 289.682 372.451 315.255C365.41 325.074 366.952 330.948 357.507 349.368" stroke="#93B34B" stroke-width="2" stroke-miterlimit="2.61313" stroke-linejoin="round"/>
<path d="M327.099 63.8102C333.468 85.5343 306.756 93.5386 317.506 110.181C347.535 156.672 321.36 177.814 317.506 196.263C313.651 214.713 335.58 236.232 344.7 262.04C349.67 276.104 339.443 281.473 359.223 304.387C367.118 313.534 359.856 328.138 357.507 349.368" stroke="#93B34B" stroke-width="2" stroke-miterlimit="2.61313" stroke-linejoin="round"/>
<path d="M92.9827 270.211C120.44 279.078 97.7842 317.598 82.8116 348.67C71.5482 322.224 26.1294 301.583 40.5 270.211C47.4654 255.006 68.6494 248.1 52.7225 224C37.4021 211.978 25.3682 199.681 32.2275 181.92C40.5 160.5 30.7373 150.648 23.5 124C17.7101 102.682 33.102 76.5001 52.7225 62.04L52.7724 62.3231C54.5202 72.2424 57.7765 90.722 74 112C90.3792 133.482 65.658 144.04 77.559 168.342C91.8648 186.128 114.145 191.794 98.5 224C95.52 230.135 67.1482 259.028 92.9827 270.211Z" fill="#C1E967"/>
<path d="M82.8116 348.67L81.8916 349.061C82.0454 349.422 82.3961 349.66 82.7884 349.669C83.1808 349.678 83.5422 349.457 83.7125 349.104L82.8116 348.67ZM92.9827 270.211L92.5855 271.129C92.6149 271.142 92.6449 271.153 92.6754 271.163L92.9827 270.211ZM98.5 224L99.3995 224.437L99.3995 224.437L98.5 224ZM77.559 168.342L76.6609 168.782C76.6934 168.848 76.7333 168.911 76.7797 168.969L77.559 168.342ZM74 112L73.2048 112.606L73.2048 112.606L74 112ZM52.7724 62.3231L53.7572 62.1496L53.7572 62.1496L52.7724 62.3231ZM52.7225 62.04L53.7073 61.8664C53.6472 61.5257 53.4152 61.2401 53.094 61.1116C52.7727 60.983 52.4078 61.0297 52.1292 61.235L52.7225 62.04ZM32.2275 181.92L33.1604 182.28L32.2275 181.92ZM52.7225 224L53.5567 223.449C53.4975 223.359 53.4243 223.28 53.3398 223.213L52.7225 224ZM40.5 270.211L39.5909 269.795L39.5909 269.795L40.5 270.211ZM82.8116 348.67L83.7125 349.104C91.1605 333.647 100.636 316.118 104.771 301.384C106.839 294.013 107.623 287.18 106.045 281.571C104.442 275.872 100.439 271.568 93.2901 269.26L92.9827 270.211L92.6754 271.163C99.2552 273.288 102.716 277.124 104.12 282.113C105.548 287.19 104.88 293.592 102.845 300.843C98.7735 315.354 89.4353 332.62 81.9108 348.235L82.8116 348.67ZM92.9827 270.211L93.38 269.294C87.148 266.596 84.3501 262.92 83.5051 258.928C82.6436 254.859 83.7627 250.244 85.8474 245.624C87.9238 241.022 90.8955 236.55 93.5615 232.817C94.9035 230.938 96.1288 229.299 97.1584 227.874C98.157 226.491 98.9819 225.297 99.3995 224.437L98.5 224L97.6005 223.563C97.2731 224.237 96.5595 225.287 95.5371 226.703C94.5455 228.075 93.2673 229.788 91.934 231.655C89.2494 235.414 86.1841 240.015 84.0244 244.801C81.8729 249.569 80.5568 254.658 81.5485 259.343C82.5567 264.105 85.9002 268.235 92.5855 271.129L92.9827 270.211ZM98.5 224L99.3995 224.437C103.353 216.298 104.956 209.745 104.84 204.197C104.723 198.625 102.873 194.152 100.078 190.187C97.3049 186.252 93.5854 182.8 89.7422 179.276C85.8742 175.73 81.8585 172.092 78.3382 167.715L77.559 168.342L76.7797 168.969C80.4123 173.485 84.5464 177.226 88.3906 180.75C92.2595 184.298 95.8147 187.61 98.4437 191.34C101.052 195.041 102.733 199.134 102.84 204.239C102.948 209.366 101.47 215.599 97.6005 223.563L98.5 224ZM77.559 168.342L78.4571 167.902C72.6987 156.143 75.764 147.787 78.4123 139.415C79.7336 135.238 80.971 130.994 80.7917 126.41C80.611 121.787 78.9973 116.905 74.7952 111.394L74 112L73.2048 112.606C77.1924 117.836 78.6307 122.33 78.7933 126.488C78.9574 130.685 77.8293 134.626 76.5054 138.812C73.8631 147.165 70.5183 156.238 76.6609 168.782L77.559 168.342ZM74 112L74.7952 111.394C58.7172 90.3065 55.4958 72.0163 53.7572 62.1496L52.7724 62.3231L51.7875 62.4967C53.5447 72.4685 56.8358 91.1375 73.2048 112.606L74 112ZM52.7724 62.3231L53.7572 62.1496L53.7073 61.8664L52.7225 62.04L51.7376 62.2136L51.7875 62.4967L52.7724 62.3231ZM52.7225 62.04L52.1292 61.235C42.1975 68.5546 33.34 78.8344 27.6901 89.9965C22.0445 101.15 19.554 113.286 22.535 124.262L23.5 124L24.465 123.738C21.6561 113.395 23.9666 101.781 29.4746 90.8997C34.9783 80.0265 43.627 69.9856 53.3157 62.845L52.7225 62.04ZM23.5 124L22.535 124.262C24.3551 130.964 26.3334 136.607 28.1395 141.619C29.9505 146.645 31.5728 150.996 32.7152 155.184C34.978 163.477 35.3442 171.074 31.2947 181.56L32.2275 181.92L33.1604 182.28C37.3834 171.346 37.0045 163.307 34.6447 154.657C33.4758 150.373 31.8175 145.926 30.021 140.941C28.2196 135.942 26.2635 130.36 24.465 123.738L23.5 124ZM32.2275 181.92L31.2947 181.56C27.744 190.754 29.0903 198.589 33.2994 205.625C37.4686 212.595 44.4399 218.772 52.1051 224.787L52.7225 224L53.3398 223.213C45.6846 217.206 38.9788 211.223 35.0158 204.599C31.0927 198.041 29.8517 190.847 33.1604 182.28L32.2275 181.92ZM52.7225 224L51.8882 224.551C55.8048 230.478 57.3753 235.251 57.512 239.283C57.6482 243.302 56.3652 246.704 54.3494 249.909C52.3127 253.147 49.5815 256.11 46.8295 259.313C44.1074 262.482 41.3954 265.856 39.5909 269.795L40.5 270.211L41.4092 270.628C43.0873 266.964 45.6353 263.773 48.3465 260.617C51.0278 257.496 53.9032 254.375 56.0424 250.974C58.2024 247.539 59.6644 243.746 59.5108 239.216C59.3578 234.701 57.6036 229.572 53.5567 223.449L52.7225 224ZM40.5 270.211L39.5909 269.795C35.8822 277.891 36.0283 285.335 38.5229 292.323C41.0016 299.267 45.7873 305.73 51.2943 311.951C54.0526 315.066 57.0088 318.139 59.9671 321.191C62.9304 324.248 65.8934 327.281 68.6898 330.34C74.2909 336.466 79.1449 342.612 81.8916 349.061L82.8116 348.67L83.7317 348.278C80.8467 341.504 75.7996 335.153 70.1659 328.991C67.3449 325.905 64.3571 322.846 61.4031 319.799C58.4442 316.747 55.5167 313.703 52.7918 310.625C47.3326 304.458 42.754 298.227 40.4065 291.65C38.0748 285.119 37.9325 278.218 41.4092 270.628L40.5 270.211Z" fill="#93B34B"/>
<path d="M82.6894 347.168C79.3033 327.964 51.7466 316.684 58.5 283C61.7878 266.601 58.4615 285.437 66.1402 262.759C73.8189 240.081 57.3572 221.588 44.5 200.5C34.5886 184.244 66.5357 170.204 33 135.5C17.6491 119.614 34 92.5 52.7224 62.04" stroke="#93B34B" stroke-width="2" stroke-miterlimit="2.61313" stroke-linejoin="round"/>
<path d="M82.3775 346.208C76.5294 327.438 85.4107 317.271 76.6781 299.488C63.1404 271.919 85.9553 236.926 64.6714 202.601C43.3875 168.275 61.0746 166.987 52.3114 146.901C46.3467 133.229 29.313 130.718 41 101.5C45 91.5 44 82.5 52.7224 62.04" stroke="#93B34B" stroke-width="2" stroke-miterlimit="2.61313" stroke-linejoin="round"/>
<path d="M83.1303 347.598C76.7612 325.874 103.473 317.87 92.7239 301.228C62.6946 254.736 81.8139 233.595 85.6687 215.145C89.5234 196.695 67.5939 175.176 58.4738 149.368C53.5038 135.304 70.7863 129.935 51.0069 107.021C43.1114 97.8747 50.373 83.2705 52.7223 62.0401" stroke="#93B34B" stroke-width="2" stroke-miterlimit="2.61313" stroke-linejoin="round"/>
<path d="M813.195 227.382C785.07 233.822 804.282 274.17 816.49 306.428C830.015 281.065 892.996 293.505 881.414 261C875.801 245.245 849.491 212.07 867.457 189.45C883.767 178.808 880.973 163.756 881.414 144.722C881.856 125.688 909.211 122.665 918.743 96.7489C926.369 76.0161 889.731 39.6271 871.446 23.512C868.857 33.1713 872.925 52.3784 854.736 72.3513C836.547 92.3241 851.413 104.072 837.439 127.245C821.637 143.717 799.358 152.5 808.721 177.008C811.155 183.379 839.906 218.493 813.195 227.382Z" fill="#C1E967"/>
<path d="M816.49 306.428L817.372 306.899C817.187 307.245 816.817 307.451 816.426 307.426C816.034 307.401 815.693 307.149 815.554 306.782L816.49 306.428ZM813.195 227.382L813.511 228.331C813.481 228.341 813.45 228.35 813.418 228.357L813.195 227.382ZM808.721 177.008L807.787 177.365L807.787 177.365L808.721 177.008ZM837.439 127.245L838.295 127.761C838.257 127.825 838.212 127.884 838.16 127.937L837.439 127.245ZM854.736 72.3513L855.475 73.0246L855.475 73.0246L854.736 72.3513ZM871.446 23.512L870.48 23.2532C870.569 22.9189 870.825 22.6547 871.157 22.5547C871.488 22.4547 871.847 22.533 872.107 22.7618L871.446 23.512ZM867.457 189.45L866.674 188.828C866.741 188.744 866.821 188.671 866.911 188.612L867.457 189.45ZM881.414 261L882.356 260.664L882.356 260.664L881.414 261ZM816.49 306.428L815.554 306.782C809.482 290.736 801.57 272.447 798.735 257.409C797.317 249.886 797.132 243.011 799.193 237.56C801.287 232.023 805.649 228.084 812.972 226.408L813.195 227.382L813.418 228.357C806.679 229.9 802.896 233.421 801.063 238.268C799.198 243.201 799.305 249.637 800.7 257.038C803.492 271.848 811.29 289.863 817.425 306.074L816.49 306.428ZM813.195 227.382L812.879 226.434C819.277 224.304 822.195 220.687 823.131 216.442C824.089 212.091 823.009 206.897 820.956 201.613C818.912 196.354 815.961 191.15 813.348 186.835C812.024 184.648 810.847 182.788 809.854 181.157C808.9 179.591 808.131 178.263 807.787 177.365L808.721 177.008L809.656 176.651C809.921 177.345 810.582 178.508 811.562 180.117C812.503 181.661 813.763 183.658 815.059 185.799C817.686 190.137 820.711 195.462 822.82 200.888C824.919 206.291 826.171 211.939 825.084 216.872C823.974 221.91 820.469 226.016 813.511 228.331L813.195 227.382ZM808.721 177.008L807.787 177.365C805.389 171.089 804.991 165.743 806.061 160.99C807.128 156.247 809.636 152.191 812.889 148.456C816.134 144.73 820.167 141.275 824.323 137.759C828.498 134.227 832.81 130.625 836.717 126.553L837.439 127.245L838.16 127.937C834.167 132.1 829.768 135.773 825.615 139.286C821.442 142.816 817.527 146.177 814.397 149.77C811.276 153.353 808.982 157.117 808.012 161.429C807.044 165.731 807.372 170.673 809.656 176.651L808.721 177.008ZM837.439 127.245L836.583 126.729C843.421 115.388 843.203 106.903 843.507 98.5617C843.66 94.3809 843.946 90.1991 845.373 85.7879C846.805 81.364 849.365 76.7631 853.996 71.6779L854.736 72.3513L855.475 73.0246C851.012 77.9259 848.609 82.2833 847.276 86.4037C845.939 90.5367 845.657 94.4851 845.506 98.6346C845.202 106.954 845.431 115.929 838.295 127.761L837.439 127.245ZM854.736 72.3513L853.996 71.6779C862.943 61.854 866.405 52.2402 867.958 43.8814C868.737 39.6879 869.037 35.8073 869.304 32.3328C869.568 28.8937 869.803 25.7772 870.48 23.2532L871.446 23.512L872.412 23.7708C871.794 26.0764 871.567 28.9831 871.298 32.4861C871.031 35.9537 870.725 39.9343 869.924 44.2467C868.317 52.8995 864.718 62.8757 855.475 73.0246L854.736 72.3513ZM871.446 23.512L872.107 22.7618C881.27 30.8375 895.056 44.0129 905.605 57.7909C910.878 64.6778 915.373 71.7551 918.069 78.4518C920.758 85.1327 921.711 91.5752 919.681 97.0941L918.743 96.7489L917.804 96.4037C919.587 91.5562 918.821 85.6752 916.214 79.1986C913.613 72.7376 909.236 65.8231 904.017 59.0067C893.582 45.3782 879.907 32.3016 870.785 24.2622L871.446 23.512ZM918.743 96.7489L919.681 97.0941C914.807 110.347 905.363 117.736 897.289 124.101C889.115 130.546 882.622 135.777 882.414 144.745L881.414 144.722L880.415 144.699C880.648 134.633 888.054 128.836 896.05 122.531C904.147 116.147 913.147 109.066 917.804 96.4037L918.743 96.7489ZM881.414 144.722L882.414 144.745C882.303 149.522 882.397 153.934 882.341 158.257C882.286 162.528 882.083 166.595 881.37 170.417C879.93 178.125 876.414 184.8 868.004 190.287L867.457 189.45L866.911 188.612C874.811 183.458 878.052 177.286 879.404 170.05C880.085 166.399 880.286 162.469 880.341 158.232C880.395 154.047 880.305 149.439 880.415 144.699L881.414 144.722ZM867.457 189.45L868.24 190.072C859.606 200.943 861.523 214.427 866.527 227.441C869.02 233.926 872.249 240.211 875.225 245.891C878.181 251.534 880.923 256.642 882.356 260.664L881.414 261L880.472 261.336C879.099 257.481 876.447 252.534 873.453 246.819C870.478 241.141 867.2 234.764 864.66 228.158C859.597 214.991 857.342 200.577 866.674 188.828L867.457 189.45ZM881.414 261L882.356 260.664C883.847 264.849 884.174 268.409 883.48 271.466C882.783 274.535 881.081 276.995 878.704 279.008C874.016 282.979 866.581 285.307 858.617 287.361C850.557 289.439 841.881 291.254 834.325 294.135C826.775 297.015 820.582 300.879 817.372 306.899L816.49 306.428L815.607 305.958C819.16 299.296 825.911 295.204 833.612 292.267C841.308 289.332 850.189 287.469 858.117 285.424C866.141 283.355 873.125 281.112 877.412 277.482C879.522 275.694 880.946 273.594 881.529 271.023C882.116 268.439 881.877 265.277 880.472 261.336L881.414 261Z" fill="#93B34B"/>
<path d="M816.742 304.943C821.789 286.108 857.026 290.373 853.234 256.228C851.388 239.605 846.258 245.559 840.585 222.298C834.912 199.037 849.896 166.3 864.542 146.413C875.832 131.082 865.252 118.651 901.684 87.0016C918.361 72.5144 883.871 56.3466 871.446 23.512" stroke="#93B34B" stroke-width="2" stroke-miterlimit="2.61313" stroke-linejoin="round"/>
<path d="M817.137 304.014C824.598 285.825 816.637 274.922 826.886 257.968C842.775 231.685 823.097 194.836 847.292 162.496C871.486 130.156 853.979 127.331 864.459 108.085C871.593 94.9854 899.399 85.8716 883.36 58.7978C877.201 48.4021 879.249 42.6849 871.446 23.512" stroke="#93B34B" stroke-width="2" stroke-miterlimit="2.61313" stroke-linejoin="round"/>
<path d="M816.265 305.333C824.504 284.247 798.591 273.945 810.75 258.303C844.717 214.605 827.513 191.878 825.281 173.163C823.049 154.447 846.77 134.922 858.105 110.006C864.282 96.4288 847.533 89.5739 869.234 68.4715C877.897 60.0478 871.936 44.8663 871.446 23.512" stroke="#93B34B" stroke-width="2" stroke-miterlimit="2.61313" stroke-linejoin="round"/>
<path d="M391.727 103.723C381.728 56.7734 424.652 55.2034 435.423 28.6707C432.794 72.378 466.791 67.3046 442.557 91.8696C430.811 103.776 423.997 133.783 443.58 158.053C453.865 174.59 434.895 190.03 427.251 207.468C419.607 224.905 443.067 212.795 440.753 240.311C438.903 262.325 405.914 273.77 389.463 324.687C366.063 298.221 380.792 286.095 372.748 260.306C364.704 234.518 387.254 221.232 384.382 194.324C380.237 171.762 370.973 172.323 402.391 141.143C409.776 133.814 395.547 121.659 391.727 103.723Z" fill="#8AC73B" stroke="#669429" stroke-width="2" stroke-miterlimit="2.61313" stroke-linejoin="round"/>
<path d="M433.31 34.8982C426.19 75.2753 404.205 61.7521 417.474 93.0316C423.589 115.941 408.444 135.61 419.367 162.922C429.651 179.459 410.45 193.336 402.864 213.322C395.22 230.76 414.366 231.597 412.052 259.113C406.176 280.924 393.11 262.881 389.932 321.216" stroke="#669429" stroke-width="2" stroke-miterlimit="2.61313" stroke-linejoin="round"/>
<path d="M433.455 36.9547C430.825 80.6621 421.15 69.3094 429.842 89.1198C435.699 102.469 407.948 109.629 434.986 162.122C445.27 178.659 418.299 189.135 418.244 212.48C418.201 230.75 429.948 226.729 428.705 245.295C422.828 267.106 405.755 269.71 388.5 321.5" stroke="#669429" stroke-width="2" stroke-miterlimit="2.61313" stroke-linejoin="round"/>
<path d="M433.31 34.8983C423.205 60.533 394.706 75.3087 407.976 106.588C414.091 129.498 412.152 143.372 394.574 168.197C382.43 185.349 407.147 186.153 399.562 206.139C391.917 223.577 380.159 227.596 385.029 256.887C387.985 274.67 385.029 287.5 389 324" stroke="#669429" stroke-width="2" stroke-miterlimit="2.61313" stroke-linejoin="round"/>
<path d="M988.053 290.461C1013.51 331.159 973.708 347.316 972.661 375.932C960.184 333.961 929.972 350.357 944.342 318.985C951.308 303.779 936.703 275.053 910 258.945C894.68 246.923 907.224 225.925 908.443 206.925C909.662 187.925 894.5 190.77 894.5 161C894.5 129.5 940 136 923 85.5C956.5 95 936.121 126.018 952.5 147.5C968.879 168.982 946.729 178.509 958.63 202.812C970.242 222.596 978.755 218.9 959.896 258.945C955.464 268.358 978.329 274.913 988.053 290.461Z" fill="#8AC73B" stroke="#669429" stroke-width="2" stroke-miterlimit="2.61313" stroke-linejoin="round"/>
<path d="M972.517 369.357C965.398 328.98 990.683 334.168 967.515 309.314C953.933 289.877 961.438 266.214 941.833 244.286C926.512 232.263 957.692 227.5 940 197.5C924.667 171.5 941.265 166.072 934.5 150.5C927.482 134.345 940 111 925 86.5" stroke="#669429" stroke-width="2" stroke-miterlimit="2.61313" stroke-linejoin="round"/>
<path d="M971.678 367.475C959.2 325.504 972.175 332.862 957.231 317.22C947.162 306.679 970.79 290.459 927.429 250.379C912.109 238.357 933.871 219.288 925.938 197.332C919.729 180.149 912.682 183.872 907.5 166C905.563 143.494 936.5 142.5 925.938 87.5" stroke="#669429" stroke-width="2" stroke-miterlimit="2.61313" stroke-linejoin="round"/>
<path d="M972.517 369.357C973.245 341.813 994.972 318.181 971.804 293.326C958.222 273.889 955.299 260.189 963.326 230.849C968.872 210.578 945.37 218.276 945.662 196.901C946.882 177.9 949.621 174.2 942 148C936.965 130.69 950.861 115.659 924.5 87" stroke="#669429" stroke-width="2" stroke-miterlimit="2.61313" stroke-linejoin="round"/>
<path d="M144.547 142.877C125.809 98.6825 113.435 103.279 89.393 87.7222C116.617 122.017 58.6339 157.514 92.575 163.736C109.026 166.752 109.121 199.887 107 231C108.061 250.445 115.237 256.101 131.5 266C147.763 275.899 140.822 285.287 158.5 306.5C172.642 323.471 154.538 305.215 197.218 337.487C201.207 302.386 216.702 304.739 208.5 279C200.298 253.261 182.581 261.688 169.5 238C159.954 217.14 181 200 149.144 187.071C139.503 183.158 151.706 159.76 144.547 142.877Z" fill="#8AC73B" stroke="#669429" stroke-width="2" stroke-miterlimit="2.61313" stroke-linejoin="round"/>
<path d="M90.4537 88.783C119.445 117.774 106.01 126.967 113.081 160.201C121.213 182.475 137.476 188.839 144.194 217.476C145.254 236.922 157.187 248.429 174.864 260.45C191.128 270.349 160.322 257.287 178 278.5C195.324 292.996 160.437 289.538 196.5 335.5" stroke="#669429" stroke-width="2" stroke-miterlimit="2.61313" stroke-linejoin="round"/>
<path d="M90.4537 89.4901C117.677 123.785 97.8783 135.098 102.121 156.312C104.98 170.606 121.384 170.282 129.345 228.79C130.405 248.236 140.065 240.908 153.5 260C164.014 274.941 154.333 279.004 166 293.5C179.5 313.5 152.659 303.473 196.5 336" stroke="#669429" stroke-width="2" stroke-miterlimit="2.61313" stroke-linejoin="round"/>
<path d="M90.1001 88.4293C113.081 103.632 125.102 126.967 132.173 160.201C140.305 182.475 123.862 191.247 152.5 201.5C172.286 208.584 155.772 240.651 173.45 252.671C189.713 262.571 182.689 253.213 195.5 280C203.278 296.263 186.5 300.5 196.5 334" stroke="#669429" stroke-width="2" stroke-miterlimit="2.61313" stroke-linejoin="round"/>
<path d="M167.359 100C141.86 86.5001 181.36 67.5001 178.359 23C199.359 30.6667 237.46 57.1001 217.86 85.5001C208.36 99.2654 198.36 135 221.86 155.5C234.86 170 223.86 178.5 219.36 197C214.86 215.5 229.36 226.5 231.86 254C233.86 276 200.193 300.667 178.359 311.5C178.359 301.5 172.26 283 159.86 259C147.46 235 179.859 228.5 172.359 202.5C161.359 182.5 153.859 175.5 174.859 146.5C178.859 140.976 190.859 115.5 167.359 100Z" fill="#C1E967"/>
<path d="M178.359 23L178.702 22.0606C178.384 21.9446 178.029 21.9972 177.759 22.2003C177.488 22.4035 177.339 22.7297 177.362 23.0673L178.359 23ZM167.359 100L167.91 99.1653C167.883 99.1476 167.856 99.1313 167.827 99.1163L167.359 100ZM174.859 146.5L175.669 147.086L175.669 147.086L174.859 146.5ZM172.359 202.5L173.32 202.223C173.3 202.152 173.271 202.083 173.236 202.018L172.359 202.5ZM159.86 259L158.971 259.459L159.86 259ZM178.359 311.5H177.359C177.359 311.846 177.538 312.167 177.832 312.35C178.126 312.532 178.494 312.55 178.804 312.396L178.359 311.5ZM221.86 155.5L222.604 154.832C222.577 154.802 222.548 154.773 222.517 154.746L221.86 155.5ZM217.86 85.5001L217.037 84.9321L217.037 84.9321L217.86 85.5001ZM178.359 23L177.362 23.0673C178.84 44.9964 169.864 60.6318 163.537 72.6595C161.959 75.6588 160.534 78.4586 159.496 81.0678C158.458 83.675 157.78 86.1553 157.742 88.5153C157.704 90.9021 158.322 93.1394 159.822 95.2248C161.308 97.29 163.622 99.153 166.892 100.884L167.359 100L167.827 99.1163C164.722 97.4721 162.692 95.7882 161.446 94.0566C160.214 92.3451 159.71 90.5355 159.742 88.5474C159.775 86.5323 160.358 84.3096 161.354 81.8073C162.349 79.3071 163.729 76.5914 165.307 73.5906C171.605 61.6183 180.879 45.5037 179.357 22.9327L178.359 23ZM167.359 100L166.809 100.835C178.215 108.358 180.968 118.233 180.424 126.929C179.875 135.703 175.96 143.275 174.049 145.913L174.859 146.5L175.669 147.086C177.759 144.201 181.844 136.273 182.42 127.053C183.001 117.755 180.004 107.142 167.91 99.1653L167.359 100ZM174.859 146.5L174.049 145.913C163.523 160.451 159.958 169.703 160.612 177.954C160.939 182.068 162.309 185.853 164.258 189.831C166.193 193.778 168.762 198.035 171.483 202.982L172.359 202.5L173.236 202.018C170.457 196.965 167.963 192.847 166.054 188.951C164.159 185.084 162.905 181.557 162.606 177.796C162.011 170.297 165.196 161.549 175.669 147.086L174.859 146.5ZM172.359 202.5L171.399 202.777C175 215.261 169.098 223.006 163.458 230.92C160.663 234.841 157.9 238.855 156.67 243.444C155.423 248.098 155.768 253.259 158.971 259.459L159.86 259L160.748 258.541C157.751 252.741 157.496 248.089 158.602 243.962C159.725 239.771 162.269 236.034 165.086 232.08C170.671 224.244 177.219 215.739 173.32 202.223L172.359 202.5ZM159.86 259L158.971 259.459C165.155 271.428 169.759 282.008 172.815 290.827C175.877 299.667 177.359 306.667 177.359 311.5H178.359H179.359C179.359 306.333 177.792 299.083 174.704 290.173C171.61 281.242 166.964 270.572 160.748 258.541L159.86 259ZM178.359 311.5L178.804 312.396C189.79 306.945 203.752 298.017 214.733 287.665C220.224 282.489 225 276.929 228.28 271.242C231.56 265.557 233.38 259.682 232.856 253.91L231.86 254L230.864 254.091C231.339 259.318 229.701 264.777 226.548 270.243C223.396 275.706 218.766 281.115 213.361 286.21C202.551 296.4 188.762 305.222 177.915 310.604L178.359 311.5ZM231.86 254L232.856 253.91C231.59 239.992 227.28 230.233 223.914 221.756C220.545 213.27 218.162 206.156 220.332 197.236L219.36 197L218.388 196.764C216.058 206.344 218.675 213.981 222.055 222.494C225.44 231.017 229.629 240.509 230.864 254.091L231.86 254ZM219.36 197L220.332 197.236C221.439 192.684 222.948 188.738 224.405 185.124C225.851 181.535 227.274 178.21 228.138 175.011C229.009 171.784 229.336 168.609 228.56 165.274C227.786 161.942 225.933 158.546 222.604 154.832L221.86 155.5L221.115 156.168C224.286 159.704 225.934 162.808 226.612 165.726C227.29 168.641 227.023 171.466 226.207 174.489C225.383 177.54 224.025 180.716 222.55 184.376C221.084 188.012 219.531 192.066 218.388 196.764L219.36 197ZM221.86 155.5L222.517 154.746C211.069 144.76 207.744 131.046 208.483 118.031C209.223 104.994 214.039 92.7967 218.683 86.0681L217.86 85.5001L217.037 84.9321C212.18 91.9688 207.246 104.521 206.486 117.918C205.725 131.337 209.15 145.74 221.202 156.254L221.86 155.5ZM217.86 85.5001L218.683 86.0681C223.724 78.7638 225.086 71.5233 223.895 64.6604C222.71 57.8295 219.012 51.4606 214.088 45.8176C204.251 34.5444 189.32 25.9368 178.702 22.0606L178.359 23L178.016 23.9394C188.399 27.7299 203.017 36.1723 212.581 47.1325C217.357 52.6062 220.822 58.6498 221.924 65.0023C223.021 71.3227 221.796 78.0364 217.037 84.9321L217.86 85.5001Z" fill="#93B34B"/>
<path d="M178.359 23C199.359 30.6667 210.86 48.0001 198.36 80.0001C192.274 95.5789 213.86 143 202.36 164C190.86 185 212.86 197 208.36 215.5C203.86 234 213.36 234 215.86 261.5C217.86 283.5 198.86 283 178.359 311.5" stroke="#93B34B" stroke-width="2" stroke-miterlimit="2.61313" stroke-linejoin="round"/>
<path d="M178.359 23C195.86 41.0001 178.848 45.4707 184.36 64.5001C205.36 137 180.86 129 190.36 166.5C199.86 204 190.218 204.697 195.36 226C198.86 240.5 217.86 254 195.36 276C186.72 284.448 190.86 295 178.359 311.5" stroke="#93B34B" stroke-width="2" stroke-miterlimit="2.61313" stroke-linejoin="round"/>
<path d="M178.359 23C190.36 44.0001 166.664 60.7443 174.36 79.0001C195.86 130 179.36 159.5 172.36 177C165.36 194.5 183.36 197.5 187.86 224.5C190.312 239.214 165.86 240.5 181.36 266.5C187.547 276.879 184.36 291 178.359 311.5" stroke="#93B34B" stroke-width="2" stroke-miterlimit="2.61313" stroke-linejoin="round"/>
<path d="M609 243C627 287.5 635.793 291.574 629.793 319.574C624.793 276.074 525.494 292.9 545.094 264.5C554.594 250.735 557.5 221.574 534 201.074C521 186.574 540.594 165.5 545.094 147C549.594 128.5 528.594 144.5 526.094 117C524.094 94.9999 554.594 77.9999 561.954 24.9999C589.594 46.9999 577.194 61.4999 589.594 85.4999C601.994 109.5 582.094 126.5 589.594 152.5C597.594 174 618.026 170.912 592.5 207.074C586.5 215.574 602.124 226 609 243Z" fill="#8AC73B" stroke="#669429" stroke-width="2" stroke-miterlimit="2.61313" stroke-linejoin="round"/>
<path d="M629.793 318.074C629.793 277.074 603 285 584.5 256.5C574.5 235 585 210.5 569.5 185.5C556.5 171 564.094 158 568.094 137C572.594 118.5 553.594 121 551.094 93.4999C553.094 70.9999 569.094 86.4999 562.094 28.4999" stroke="#669429" stroke-width="2" stroke-miterlimit="2.61313" stroke-linejoin="round"/>
<path d="M629.293 317.574C624.293 274.074 577 284 565 266C556.914 253.871 587.243 242 551.5 195C538.5 180.5 557.094 163.5 553.094 140.5C549.964 122.5 539.094 128.5 537.094 110C539.094 87.4999 553.094 91.9999 561.094 37.9999" stroke="#669429" stroke-width="2" stroke-miterlimit="2.61313" stroke-linejoin="round"/>
<path d="M629.793 318.574C635.294 291.574 613 269.5 594.5 241C584.5 219.5 579.794 209.074 592.794 181.574C601.775 162.574 568.594 164.5 572.594 143.5C577.094 125 587.976 119 578.094 90.9999C572.094 73.9999 569.594 66.4999 564.094 29.9999" stroke="#669429" stroke-width="2" stroke-miterlimit="2.61313" stroke-linejoin="round"/>
</svg>
