<svg width="83" height="101" viewBox="0 0 83 101" fill="none" xmlns="http://www.w3.org/2000/svg">
<g filter="url(#filter0_d_55_129)">
<circle cx="26.5" cy="70.0846" r="21" fill="white" stroke="#72B01E" stroke-width="3"/>
<circle cx="26.5" cy="86.0846" r="1" fill="#72B01E" stroke="#72B01E"/>
<circle cx="42.5" cy="70.0846" r="1" fill="#72B01E" stroke="#72B01E"/>
<circle cx="20.875" cy="85.2289" r="1" fill="#72B01E" stroke="#72B01E" stroke-width="0.596154"/>
<path d="M42.5 70.0846C42.5 72.187 42.0955 74.2689 41.291 76.2113C40.4864 78.1537 39.3072 79.9185 37.8205 81.4052C36.3339 82.8918 34.569 84.0711 32.6266 84.8756C30.6843 85.6802 28.6024 86.0846 26.5 86.0846" stroke="#72B01E" stroke-width="3"/>
<circle cx="64" cy="38.5846" r="14" transform="rotate(5 64 38.5846)" fill="white" stroke="#72B01E" stroke-width="2"/>
<circle cx="63.0704" cy="49.2107" r="0.666667" transform="rotate(5 63.0704 49.2107)" fill="#72B01E" stroke="#72B01E" stroke-width="0.666667"/>
<circle cx="74.6261" cy="39.5143" r="0.666667" transform="rotate(5 74.6261 39.5143)" fill="#72B01E" stroke="#72B01E" stroke-width="0.666667"/>
<circle cx="59.3843" cy="48.3156" r="0.666667" transform="rotate(5 59.3843 48.3156)" fill="#72B01E" stroke="#72B01E" stroke-width="0.397436"/>
<path d="M74.626 39.5143C74.5039 40.9105 74.1143 42.2697 73.4671 43.5129C72.8199 44.7562 71.9342 45.8598 70.8605 46.7607C69.7868 47.6616 68.5461 48.3423 67.2094 48.7637C65.8727 49.1852 64.4666 49.3328 63.0703 49.2107" stroke="#72B01E" stroke-width="2"/>
<circle cx="31" cy="11.5846" r="9.33333" transform="rotate(10 31 11.5846)" fill="white" stroke="#72B01E" stroke-width="1.33333"/>
<circle cx="29.7652" cy="18.5877" r="0.444445" transform="rotate(10 29.7652 18.5877)" fill="#72B01E" stroke="#72B01E" stroke-width="0.444444"/>
<circle cx="38.0031" cy="12.8194" r="0.444445" transform="rotate(10 38.0031 12.8194)" fill="#72B01E" stroke="#72B01E" stroke-width="0.444444"/>
<circle cx="27.3692" cy="17.7789" r="0.444445" transform="rotate(10 27.3692 17.7789)" fill="#72B01E" stroke="#72B01E" stroke-width="0.264957"/>
<path d="M38.0031 12.8194C37.8408 13.7396 37.5031 14.6197 37.0011 15.4077C36.499 16.1958 35.8466 16.8773 35.0812 17.4132C34.3158 17.9492 33.4523 18.3291 32.5401 18.5314C31.6278 18.7336 30.6854 18.7499 29.7652 18.5877" stroke="#72B01E" stroke-width="1.33333"/>
</g>
<defs>
<filter id="filter0_d_55_129" x="0" y="1.58289" width="83.0009" height="99.0017" filterUnits="userSpaceOnUse" color-interpolation-filters="sRGB">
<feFlood flood-opacity="0" result="BackgroundImageFix"/>
<feColorMatrix in="SourceAlpha" type="matrix" values="0 0 0 0 0 0 0 0 0 0 0 0 0 0 0 0 0 0 127 0" result="hardAlpha"/>
<feOffset dy="4"/>
<feGaussianBlur stdDeviation="2"/>
<feComposite in2="hardAlpha" operator="out"/>
<feColorMatrix type="matrix" values="0 0 0 0 0 0 0 0 0 0 0 0 0 0 0 0 0 0 0.25 0"/>
<feBlend mode="normal" in2="BackgroundImageFix" result="effect1_dropShadow_55_129"/>
<feBlend mode="normal" in="SourceGraphic" in2="effect1_dropShadow_55_129" result="shape"/>
</filter>
</defs>
</svg>
