<svg width="901" height="109" viewBox="0 0 901 109" fill="none" xmlns="http://www.w3.org/2000/svg">
<g filter="url(#filter0_d_55_170)">
<circle cx="87.5" cy="30.5" r="21" transform="rotate(25 87.5 30.5)" stroke="#72B01E" stroke-width="3"/>
<circle cx="80.7382" cy="45.0009" r="1" transform="rotate(25 80.7382 45.0009)" fill="#72B01E" stroke="#72B01E"/>
<circle cx="102.001" cy="37.2619" r="1" transform="rotate(25 102.001 37.2619)" fill="#72B01E" stroke="#72B01E"/>
<circle cx="76.0018" cy="41.8481" r="1" transform="rotate(25 76.0018 41.8481)" fill="#72B01E" stroke="#72B01E" stroke-width="0.596154"/>
<path d="M102.001 37.2618C101.112 39.1673 99.866 40.8832 98.316 42.3035C96.7659 43.7239 94.9513 44.8251 92.9757 45.5441C91 46.2632 88.9021 46.5861 86.8017 46.4944C84.7013 46.4027 82.6436 45.8894 80.7382 45.0009" stroke="#72B01E" stroke-width="3"/>
<circle cx="134" cy="85" r="14.9333" transform="rotate(25 134 85)" stroke="#72B01E" stroke-width="2.13333"/>
<circle cx="129.192" cy="95.3117" r="0.711111" transform="rotate(25 129.192 95.3117)" fill="#72B01E" stroke="#72B01E" stroke-width="0.711111"/>
<circle cx="144.312" cy="89.8084" r="0.711111" transform="rotate(25 144.312 89.8084)" fill="#72B01E" stroke="#72B01E" stroke-width="0.711111"/>
<circle cx="125.824" cy="93.0698" r="0.711111" transform="rotate(25 125.824 93.0698)" fill="#72B01E" stroke="#72B01E" stroke-width="0.423931"/>
<path d="M144.312 89.8084C143.68 91.1634 142.794 92.3836 141.691 93.3936C140.589 94.4037 139.299 95.1867 137.894 95.6981C136.489 96.2094 134.997 96.439 133.504 96.3738C132.01 96.3086 130.547 95.9436 129.192 95.3117" stroke="#72B01E" stroke-width="2.13333"/>
<circle cx="15.0001" cy="58" r="10.2667" transform="rotate(20 15.0001 58)" stroke="#72B01E" stroke-width="1.46667"/>
<circle cx="12.3247" cy="65.3505" r="0.488889" transform="rotate(20 12.3247 65.3505)" fill="#72B01E" stroke="#72B01E" stroke-width="0.488889"/>
<circle cx="22.3506" cy="60.6753" r="0.488889" transform="rotate(20 22.3506 60.6753)" fill="#72B01E" stroke="#72B01E" stroke-width="0.488889"/>
<circle cx="9.88363" cy="64.0168" r="0.488889" transform="rotate(20 9.88363 64.0168)" fill="#72B01E" stroke="#72B01E" stroke-width="0.291453"/>
<path d="M22.3505 60.6753C21.999 61.6412 21.4651 62.53 20.7707 63.2878C20.0763 64.0456 19.2394 64.6592 18.3079 65.0936C17.3763 65.528 16.3683 65.7747 15.3415 65.8195C14.3146 65.8643 13.2906 65.702 12.3247 65.3505" stroke="#72B01E" stroke-width="1.46667"/>
<circle cx="704" cy="68" r="28" transform="rotate(60 704 68)" stroke="#72B01E" stroke-width="4"/>
<circle cx="685.525" cy="78.6667" r="1.33333" transform="rotate(60 685.525 78.6667)" fill="#72B01E" stroke="#72B01E" stroke-width="1.33333"/>
<circle cx="714.667" cy="86.4753" r="1.33333" transform="rotate(60 714.667 86.4753)" fill="#72B01E" stroke="#72B01E" stroke-width="1.33333"/>
<circle cx="682.763" cy="71.601" r="1.33333" transform="rotate(60 682.763 71.601)" fill="#72B01E" stroke="#72B01E" stroke-width="0.794872"/>
<path d="M714.667 86.4752C712.239 87.8768 709.566 88.7977 706.786 89.1636C704.007 89.5295 701.183 89.3444 698.475 88.6189C695.768 87.8933 693.229 86.6416 691.005 84.9351C688.781 83.2286 686.927 81.0943 685.525 78.6667" stroke="#72B01E" stroke-width="4"/>
<circle cx="774.5" cy="31.5" r="19.1333" transform="rotate(50 774.5 31.5)" stroke="#72B01E" stroke-width="2.73333"/>
<circle cx="763.333" cy="40.8704" r="0.911111" transform="rotate(50 763.333 40.8704)" fill="#72B01E" stroke="#72B01E" stroke-width="0.911111"/>
<circle cx="783.871" cy="42.6673" r="0.911111" transform="rotate(50 783.871 42.6673)" fill="#72B01E" stroke="#72B01E" stroke-width="0.911111"/>
<circle cx="760.636" cy="36.4433" r="0.911111" transform="rotate(50 760.636 36.4433)" fill="#72B01E" stroke="#72B01E" stroke-width="0.543162"/>
<path d="M783.871 42.6672C782.403 43.8985 780.713 44.8354 778.886 45.4115C777.059 45.9875 775.137 46.198 773.229 46.0311C771.321 45.8641 769.464 45.3229 767.765 44.4384C766.066 43.554 764.564 42.3378 763.333 40.8704" stroke="#72B01E" stroke-width="2.73333"/>
<circle cx="886.5" cy="22.5" r="9.8" transform="rotate(60 886.5 22.5)" stroke="#72B01E" stroke-width="1.4"/>
<circle cx="880.034" cy="26.2334" r="0.466667" transform="rotate(60 880.034 26.2334)" fill="#72B01E" stroke="#72B01E" stroke-width="0.466667"/>
<circle cx="890.233" cy="28.9664" r="0.466667" transform="rotate(60 890.233 28.9664)" fill="#72B01E" stroke="#72B01E" stroke-width="0.466667"/>
<circle cx="879.067" cy="23.7604" r="0.466667" transform="rotate(60 879.067 23.7604)" fill="#72B01E" stroke="#72B01E" stroke-width="0.278205"/>
<path d="M890.233 28.9663C889.384 29.4569 888.448 29.7792 887.475 29.9073C886.502 30.0353 885.514 29.9706 884.566 29.7166C883.619 29.4627 882.73 29.0246 881.952 28.4273C881.173 27.83 880.524 27.083 880.034 26.2334" stroke="#72B01E" stroke-width="1.4"/>
<circle cx="843" cy="68" r="14.9333" transform="rotate(55 843 68)" stroke="#72B01E" stroke-width="2.13333"/>
<circle cx="833.68" cy="74.526" r="0.711111" transform="rotate(55 833.68 74.526)" fill="#72B01E" stroke="#72B01E" stroke-width="0.711111"/>
<circle cx="849.526" cy="77.3201" r="0.711111" transform="rotate(55 849.526 77.3201)" fill="#72B01E" stroke="#72B01E" stroke-width="0.711111"/>
<circle cx="831.884" cy="70.9004" r="0.711111" transform="rotate(55 831.884 70.9004)" fill="#72B01E" stroke="#72B01E" stroke-width="0.423931"/>
<path d="M849.526 77.3201C848.301 78.1776 846.924 78.7912 845.464 79.1148C844.005 79.4384 842.496 79.4713 841.023 79.2117C839.551 78.9521 838.144 78.405 836.883 77.6017C835.622 76.7984 834.538 75.7507 833.68 74.526" stroke="#72B01E" stroke-width="2.13333"/>
</g>
<defs>
<filter id="filter0_d_55_170" x="-0.00292969" y="7.99463" width="901.005" height="101.009" filterUnits="userSpaceOnUse" color-interpolation-filters="sRGB">
<feFlood flood-opacity="0" result="BackgroundImageFix"/>
<feColorMatrix in="SourceAlpha" type="matrix" values="0 0 0 0 0 0 0 0 0 0 0 0 0 0 0 0 0 0 127 0" result="hardAlpha"/>
<feOffset dy="4"/>
<feGaussianBlur stdDeviation="2"/>
<feComposite in2="hardAlpha" operator="out"/>
<feColorMatrix type="matrix" values="0 0 0 0 0 0 0 0 0 0 0 0 0 0 0 0 0 0 0.25 0"/>
<feBlend mode="normal" in2="BackgroundImageFix" result="effect1_dropShadow_55_170"/>
<feBlend mode="normal" in="SourceGraphic" in2="effect1_dropShadow_55_170" result="shape"/>
</filter>
</defs>
</svg>
