<svg width="106" height="148" viewBox="0 0 106 148" fill="none" xmlns="http://www.w3.org/2000/svg">
<g filter="url(#filter0_d_70_197)">
<circle cx="38.9999" cy="65" r="28" transform="rotate(70 38.9999 65)" fill="white" stroke="#72B01E" stroke-width="4"/>
<circle cx="18.9531" cy="72.2965" r="1.33333" transform="rotate(70 18.9531 72.2965)" fill="#72B01E" stroke="#72B01E" stroke-width="1.33333"/>
<circle cx="46.2964" cy="85.0468" r="1.33333" transform="rotate(70 46.2964 85.0468)" fill="#72B01E" stroke="#72B01E" stroke-width="1.33333"/>
<circle cx="17.4602" cy="64.8585" r="1.33333" transform="rotate(70 17.4602 64.8585)" fill="#72B01E" stroke="#72B01E" stroke-width="0.794872"/>
<path d="M46.2963 85.0468C43.6621 86.0055 40.8692 86.4482 38.0687 86.3259C35.2681 86.2036 32.5191 85.5309 29.9785 84.3462C27.4379 83.1615 25.1556 81.4881 23.2618 79.4213C21.3679 77.3546 19.9119 74.9306 18.9531 72.2964" stroke="#72B01E" stroke-width="4"/>
<circle cx="81.9999" cy="121" r="17.7333" transform="rotate(75 81.9999 121)" fill="white" stroke="#72B01E" stroke-width="2.53333"/>
<circle cx="68.9491" cy="124.497" r="0.844444" transform="rotate(75 68.9491 124.497)" fill="#72B01E" stroke="#72B01E" stroke-width="0.844444"/>
<circle cx="85.4969" cy="134.051" r="0.844444" transform="rotate(75 85.4969 134.051)" fill="#72B01E" stroke="#72B01E" stroke-width="0.844444"/>
<circle cx="68.4179" cy="119.722" r="0.844444" transform="rotate(75 68.4179 119.722)" fill="#72B01E" stroke="#72B01E" stroke-width="0.503419"/>
<path d="M85.4968 134.051C83.7819 134.51 81.9954 134.635 80.2352 134.404C78.475 134.172 76.7777 133.596 75.2402 132.708C73.7027 131.82 72.3551 130.639 71.2743 129.23C70.1935 127.822 69.4086 126.212 68.9491 124.497" stroke="#72B01E" stroke-width="2.53333"/>
<circle cx="65.4999" cy="16.4999" r="10.7333" transform="rotate(60 65.4999 16.4999)" fill="white" stroke="#72B01E" stroke-width="1.53333"/>
<circle cx="58.4177" cy="20.5889" r="0.511111" transform="rotate(60 58.4177 20.5889)" fill="#72B01E" stroke="#72B01E" stroke-width="0.511111"/>
<circle cx="69.5889" cy="23.5822" r="0.511111" transform="rotate(60 69.5889 23.5822)" fill="#72B01E" stroke="#72B01E" stroke-width="0.511111"/>
<circle cx="57.3591" cy="17.8803" r="0.511111" transform="rotate(60 57.3591 17.8803)" fill="#72B01E" stroke="#72B01E" stroke-width="0.304701"/>
<path d="M69.5888 23.5822C68.6582 24.1194 67.6333 24.4725 66.5679 24.6127C65.5025 24.753 64.42 24.682 63.382 24.4039C62.3441 24.1258 61.3711 23.6459 60.5185 22.9918C59.666 22.3376 58.955 21.5195 58.4177 20.5889" stroke="#72B01E" stroke-width="1.53333"/>
</g>
<defs>
<filter id="filter0_d_70_197" x="4.9917" y="4.99805" width="100.013" height="143.007" filterUnits="userSpaceOnUse" color-interpolation-filters="sRGB">
<feFlood flood-opacity="0" result="BackgroundImageFix"/>
<feColorMatrix in="SourceAlpha" type="matrix" values="0 0 0 0 0 0 0 0 0 0 0 0 0 0 0 0 0 0 127 0" result="hardAlpha"/>
<feOffset dy="4"/>
<feGaussianBlur stdDeviation="2"/>
<feComposite in2="hardAlpha" operator="out"/>
<feColorMatrix type="matrix" values="0 0 0 0 0 0 0 0 0 0 0 0 0 0 0 0 0 0 0.25 0"/>
<feBlend mode="normal" in2="BackgroundImageFix" result="effect1_dropShadow_70_197"/>
<feBlend mode="normal" in="SourceGraphic" in2="effect1_dropShadow_70_197" result="shape"/>
</filter>
</defs>
</svg>
