<svg width="156" height="156" viewBox="0 0 156 156" fill="none" xmlns="http://www.w3.org/2000/svg">
<circle cx="78" cy="78" r="76.5" fill="#3CB371" stroke="white" stroke-width="3"/>
<circle cx="78" cy="78" r="43" fill="white" stroke="white" stroke-width="3"/>
<line x1="78.5" x2="78.5" y2="154" stroke="white" stroke-width="3"/>
<line x1="155" y1="78.5" x2="1" y2="78.5" stroke="white" stroke-width="3"/>
<line x1="24.9393" y1="130.61" x2="132.61" y2="22.9393" stroke="white" stroke-width="3"/>
<line x1="24.0607" y1="22.9393" x2="132.955" y2="131.834" stroke="white" stroke-width="3"/>
<path d="M50.9242 44.5996C50.3202 42.556 50.1347 41.7204 49.5781 41.1142C49.4436 40.9678 49.3451 40.8359 49.2056 40.8108C49.0661 40.7857 48.8819 40.8778 48.7871 41.1554C48.5465 41.8595 48.8303 42.6439 48.8554 42.9703C48.9398 44.0674 47.208 41.9519 46.7636 41.2775C46.2354 40.4756 44.7918 39.3042 43.952 38.3717C43.3345 37.686 42.6519 37.1615 42.0681 36.6272C41.1712 35.8065 40.3725 34.7454 39.7664 33.9774C39.154 33.2016 38.4669 32.5134 37.8134 31.8843C36.8799 30.9856 35.3059 29.955 34.5358 29.2575C33.6653 28.4689 32.979 27.6783 32.4887 26.955C32.0583 26.3203 31.1181 25.77 30.5594 25.0955C30.042 24.4709 29.5836 23.9091 29.1637 23.1432C28.954 22.7607 28.8833 22.3285 28.9523 21.8647C29.0837 20.9824 30.0886 20.6559 30.7875 20.1656C31.07 19.9674 31.2994 19.5846 31.7165 19.2595C32.1582 18.9154 34.1215 17.7809 36.6318 15.9681C37.9671 15.0038 38.7822 14.4259 39.7608 13.8651C41.4445 12.9002 43.62 11.6777 44.3182 11.2844C45.5287 10.6023 47.1047 10.3302 48.3853 10.0282C48.9614 9.8923 49.9407 9.63408 51.7005 9.28533C54.152 8.7995 55.9895 9.02865 56.7079 8.77336C58.5831 8.10702 60.3125 7.91126 61.7996 7.49485C62.847 7.20156 63.6605 6.28748 64.4752 5.6123C65.9737 4.37038 67.3363 4.23823 67.57 4.28357C67.9562 4.35851 66.7379 4.98037 64.6607 5.4198C62.9631 5.77894 59.9136 6.18146 57.888 6.41861C55.8625 6.65576 54.9418 6.65576 54.5366 6.60973C54.1313 6.56369 54.2694 6.47162 56.9185 6.24005C59.5676 6.00848 64.7235 5.6402 67.7709 5.35842C71.6127 5.00317 72.5913 4.6107 73.3306 4.40215C73.8766 4.24814 74.8065 4.14756 76.2476 4.07641C77.6886 4.00527 79.6221 4.00527 80.7102 4.0513C81.7983 4.09734 81.9824 4.18941 83.9647 4.55908C85.947 4.92876 89.7218 5.57325 91.7585 5.95129C93.9905 6.36557 94.6755 6.60833 95.88 6.88594C98.6525 7.52487 99.5119 8.41904 100.744 9.09491C102.122 9.85016 104.442 10.5143 105.65 10.5848C106.999 10.6634 110.331 11.1616 112.415 11.8382C113.135 12.0721 113.604 12.5594 113.975 12.9074C114.157 13.0775 114.346 13.2095 114.027 13.0965C111.578 12.2304 109.296 11.3123 107.589 10.7257C106.133 10.2255 103.85 9.6829 102.033 8.58923C101.697 8.38698 101.565 8.28512 101.747 8.21467C102.399 7.96269 103.326 8.18886 104.62 8.53622C106.985 9.17062 108.952 9.67453 109.718 10.2786C110.83 11.1561 112.391 11.8117 113.255 12.3969C114.128 12.9885 115.275 13.8149 116.206 14.4412C117.847 15.5457 118.902 16.3705 119.672 17.1385C120.381 17.8463 120.903 18.5104 121.555 19.3928C122.385 20.5163 123.135 21.0689 124.019 21.6499C124.837 22.1879 125.693 22.3244 126.368 22.581C126.981 22.8145 127.599 23.2534 127.951 23.8121C128.438 24.5851 125.386 26.9585 123.748 28.4372C122.239 29.7987 121.561 30.3205 120.932 30.8338C120.564 31.134 119.981 31.6694 118.041 33.2625C116.507 34.5226 113.892 36.743 112.102 38.3877C110.313 40.0324 109.439 41.0452 108.689 42.0273C107.274 43.8808 106.31 45.339 105.659 45.8523C104.725 46.589 105.284 43.3023 104.591 42.3746C104.177 41.821 103.253 41.447 101.261 40.8415C99.2692 40.2361 96.1388 39.4995 94.3421 39.028C92.154 38.4538 91.3833 38.1366 90.2491 38.0669C89.5303 38.0227 88.5166 38.0432 86.7979 37.859C85.0793 37.6749 82.6855 37.3066 82.0968 36.8867C81.5081 36.4668 82.7971 36.0065 85.993 35.8844C89.189 35.7623 94.2528 35.9925 97.5519 35.927C100.851 35.8614 102.232 35.4931 103.013 35.2343C103.793 34.9756 103.931 34.8375 100.343 34.8354C96.754 34.8333 89.4345 34.9714 85.7559 35.0886C82.0773 35.2057 82.2614 35.2978 86.2922 35.2302C90.3231 35.1625 98.195 34.9323 102.642 34.5836C107.088 34.2348 107.871 33.7745 107.215 34.6882C106.559 35.6019 104.442 37.9037 103.443 39.0894C102.444 40.2752 102.628 40.2752 105.416 38.4798C108.204 36.6844 113.59 33.0937 116.388 31.1749C119.186 29.2561 119.232 29.118 119.209 29.1619C119.075 29.4267 117.849 31.2384 115.369 34.0932C113.009 36.8093 110.68 37.5298 110.398 37.3485C110.083 37.1452 111.037 36.0623 112.565 34.368C114.092 32.6738 116.578 30.234 118.526 28.4707C121.714 25.5855 123.277 24.5131 123.486 24.2348C123.595 24.0889 123.74 23.9565 123.857 23.8163C123.975 23.6761 124.067 23.538 123.792 23.628C123.517 23.718 122.873 24.0402 120.262 24.8047C117.651 25.5691 113.094 26.766 110.424 27.6128C107.754 28.4595 107.109 28.9199 106.846 29.1801C106.583 29.4402 106.721 29.4863 108.91 27.8988C111.099 26.3112 115.334 23.0888 117.838 21.2676C120.342 19.4465 120.986 19.1242 120.996 19.4416C121.006 19.759 120.362 20.7257 118.487 22.6508C116.613 24.5759 113.529 27.43 112.124 28.5091C110.719 29.5881 111.088 28.8055 112.589 26.9753C114.091 25.145 116.715 22.2909 118.09 20.7515C119.465 19.2121 119.511 19.074 119.12 19.6704C118.729 20.2667 117.901 21.6017 116.231 23.5785C114.561 25.5552 112.075 28.1331 110.772 29.5302C109.468 30.9273 109.422 31.0654 109.444 30.6762C109.467 30.287 109.559 29.3663 110.228 27.9713C110.896 26.5763 112.139 24.7349 113.332 23.2339C114.525 21.7329 115.63 20.628 116.452 19.7136C117.274 18.7992 117.781 18.1087 116.407 19.8475C115.034 21.5864 111.766 25.7756 109.806 28.486C107.846 31.1965 107.293 32.3014 107.032 32.5943C106.77 32.8873 106.816 32.3348 107.185 31.0375C107.554 29.7401 108.245 27.7146 109.429 25.5203C110.613 23.326 112.271 21.0242 113.354 19.4011C114.438 17.7781 114.899 16.9034 114.745 17.1203C114.59 17.3372 113.808 18.6723 112.484 20.4648C111.16 22.2574 109.319 24.4671 108.002 26.2038C106.685 27.9406 105.948 29.1375 105.546 29.9382C105.144 30.739 105.097 31.1072 105.718 29.0182C106.339 26.9292 107.628 22.3718 108.292 19.8168C108.956 17.2619 108.956 16.8476 108.956 16.7262C108.956 16.6049 108.956 16.789 107.184 19.5769C105.411 22.3648 101.867 27.7509 100.064 30.6636C98.2606 33.5764 98.3066 33.8526 98.3304 33.9028C98.3884 34.0258 99.0906 31.968 101.542 27.9615C103.079 25.4489 105.926 22.436 107.532 20.6392C109.137 18.8424 109.598 18.4742 109.858 18.5837C110.569 18.8829 110.165 20.5067 109.612 22.173C109.24 23.2949 108.139 24.76 106.881 26.3482C105.623 27.9364 104.104 29.5476 103.483 29.7102C102.861 29.8727 103.184 28.5377 104.8 25.8474C106.416 23.1572 109.316 19.1521 110.603 17.0429C111.89 14.9337 111.475 14.8416 109.697 14.9093C107.918 14.9769 104.788 15.2071 104.303 15.0264C103.818 14.8458 106.074 14.2473 107.121 13.916C108.168 13.5847 107.938 13.5387 105.356 13.4689C102.775 13.3992 97.8491 13.3071 95.4267 13.2136C93.0043 13.1202 93.2344 13.0281 95.2635 12.8886C97.2925 12.7491 101.113 12.565 99.445 12.378C97.7765 12.1911 90.503 12.007 88.7586 11.8891C87.0142 11.7712 91.0192 11.7252 90.1592 11.4713C89.2992 11.2174 83.4527 10.757 80.0957 10.4508C76.7386 10.1446 76.0481 10.0065 75.8075 9.91238C75.5668 9.81822 75.797 9.77218 78.6546 9.77148C81.5123 9.77079 86.9904 9.81682 89.5133 9.84054C92.0361 9.86425 91.4377 9.86425 87.4466 9.58804C83.4555 9.31183 76.0899 8.75941 76.1164 8.47484C76.143 8.19026 83.7847 8.19026 87.3531 8.28233C90.1975 8.35571 89.6563 8.88636 90.6725 9.18768C91.4423 9.4159 92.7936 9.53503 94.333 9.88308C95.8724 10.2311 97.5757 10.7375 97.9697 10.8142C98.3638 10.891 97.3971 10.5227 93.5385 9.82659C89.68 9.13048 82.9589 8.11772 77.8393 7.61901C72.7196 7.1203 69.4051 7.16633 67.1452 7.42022C64.8853 7.67411 63.7805 8.13446 62.8431 8.6248C61.1167 9.5278 59.7657 10.4655 57.3161 11.4141C55.5343 12.1041 52.5647 12.9611 50.7938 13.6196C49.0228 14.278 48.5165 14.6463 46.6674 15.4115C44.8183 16.1766 41.6419 17.3275 39.5452 18.1735C36.4789 19.4109 35.3491 20.2319 34.7932 20.6259C33.3189 21.6711 31.7737 22.8768 30.9081 24.2278C30.7205 24.5206 30.7442 24.8772 30.8356 25.1353C31.2478 26.2995 33.9834 27.5221 35.4349 28.5091C35.7879 28.7491 36.5418 28.6493 36.9206 28.4198C37.2993 28.1903 37.3453 27.6839 37.1619 27.0318C36.2999 23.9674 34.7437 22.701 34.7186 22.4206C34.7085 22.308 35.1998 22.6926 36.4253 24.285C37.6508 25.8774 39.7224 28.7776 41.1809 30.9622C42.6393 33.1467 43.4219 34.5278 44.2624 35.7226C45.85 37.9795 47.1549 39.1103 47.7806 39.5972C48.5156 40.1691 49.2014 40.5067 49.5962 40.5772C49.7596 40.6063 49.8529 40.4174 49.9003 40.1391C49.9477 39.8608 49.9477 39.4465 49.5564 38.1973C49.1651 36.9481 48.3825 34.8765 47.45 32.7736C46.5174 30.6706 45.4586 28.599 44.637 27.1636C42.7377 23.8455 41.907 23.2116 41.093 22.6082C39.8369 21.6772 39.4867 20.9321 39.4155 21.0228C39.2954 21.1759 39.7587 21.6659 41.9956 24.6882C44.2324 27.7104 48.4216 33.2806 50.7868 36.3573C53.5065 39.8951 54.2234 40.4133 54.6642 40.7146C54.8842 40.865 55.059 41.0619 53.0132 38.3256C50.9675 35.5894 46.6862 29.9271 44.2966 26.6188C41.907 23.3106 41.5387 22.528 41.3029 21.8947C41.0672 21.2614 40.9751 20.801 40.8816 20.4948C40.7882 20.1886 40.6961 20.0505 41.017 20.2095C41.3378 20.3686 42.0744 20.8289 44.8476 23.1607C47.6209 25.4924 52.4085 29.6816 55.3122 32.369C58.2159 35.0565 59.0905 36.1153 59.8173 37.1441C61.185 39.0801 61.9879 40.5039 62.4992 40.7857C62.6812 40.8861 62.7343 40.1468 62.2516 38.8725C61.7689 37.5982 60.7561 35.6187 58.9224 33.1258C57.0887 30.6329 54.4647 27.6867 52.1693 25.4094C49.8738 23.1321 47.9864 21.6129 46.8069 20.5541C45.6274 19.4953 45.2131 18.9429 44.9997 18.7504C44.7862 18.5579 44.7862 18.742 44.8553 19.2742C44.9243 19.8064 45.0625 20.681 46.1464 23.0421C47.2303 25.4031 49.2558 29.224 50.7596 31.8368C52.2634 34.4497 53.1841 35.7386 53.7275 36.5868C54.9299 38.4637 55.4328 39.5288 55.6658 39.5323C55.8977 39.5358 55.6226 38.6151 55.5521 37.0625C55.4817 35.5098 55.4356 33.116 54.9055 29.0517C54.3754 24.9874 53.3627 19.3251 53.1862 16.5002C53.0097 13.6754 53.7003 13.8595 56.4268 13.7012C59.1533 13.5429 63.8949 13.0365 66.7749 12.6375C69.6548 12.2385 70.5295 11.9623 68.5863 12.2574C66.643 12.5524 61.8554 13.4271 58.5834 14.1308C55.3115 14.8346 53.7003 15.341 52.4329 15.9241C50.1901 16.956 49.2056 18.0919 48.9036 18.5795C48.7761 18.7852 48.7397 18.9289 50.4883 18.7469C52.2369 18.5648 55.7816 18.0585 58.4823 17.4984C61.183 16.9383 62.9323 16.3398 64.9614 15.4561C66.9904 14.5724 69.2461 13.4215 70.4542 12.7596C71.7929 12.026 72.1714 11.5871 72.5906 11.1693C72.7402 11.0202 72.5494 10.8435 72.3402 10.7494C71.8794 10.542 69.6827 10.5617 66.2476 10.6308C64.6986 10.6619 63.5489 10.838 61.4599 12.1981C59.3709 13.5582 56.3787 16.1362 54.2387 18.1317C52.0988 20.1272 50.9019 21.4622 50.2623 22.3111C49.6227 23.16 49.5767 23.4822 56.0208 22.1751C62.465 20.868 75.4008 17.9217 79.4868 16.4961C83.5727 15.0704 78.4168 15.2545 74.6099 15.5335C70.8029 15.8125 68.5012 16.1808 67.1773 16.4165C65.8535 16.6523 65.5773 16.7444 65.7572 16.5616C65.9372 16.3789 66.5817 15.9185 67.8804 15.4512C69.1791 14.9839 71.1126 14.5235 73.6968 14.2173C76.2811 13.9111 79.4575 13.773 81.1859 13.6789C83.1007 13.5745 78.0862 13.8595 75.0151 14.5096C72.9123 14.9547 86.7672 14.9755 91.4474 15.1624C96.1277 15.3494 95.5752 15.5335 89.4673 16.1117C83.3593 16.69 71.7124 17.6567 65.6435 18.2238C59.5746 18.7908 59.4365 18.9289 66.2706 18.8159C73.1047 18.7029 86.9151 18.3347 93.9836 18.214C101.052 18.0933 100.96 18.2314 100.613 18.4637C100.267 18.696 99.6682 19.0182 97.2653 19.7136C94.8624 20.409 90.6732 21.4678 83.1751 22.4506C75.677 23.4334 64.9969 24.308 59.1958 24.8507C53.3948 25.3933 52.7963 25.5775 59.6925 24.3834C66.5886 23.1892 80.9975 20.6113 89.387 19.2372C97.7765 17.8632 99.71 17.7711 100.568 17.8157C101.426 17.8604 101.15 18.0445 92.8592 20.1419C84.5687 22.2393 68.2724 26.2443 65.5626 28.3305C62.8528 30.4167 74.2234 30.4628 79.8739 30.5785C85.5243 30.6943 85.11 30.8785 81.0066 31.5948C76.9032 32.3111 69.1233 33.5541 65.2306 34.0793C61.3379 34.6045 61.568 34.3743 61.8708 34.1176C62.5243 33.5635 63.2895 32.6557 63.8705 31.4951C64.283 30.671 63.7624 29.4026 62.9735 28.032C62.6449 27.461 62.2767 27.2598 62.2028 27.3484C61.8729 27.7437 63.1011 28.9687 64.6754 30.4063C65.5829 31.2349 66.9862 31.9359 67.5819 32.339C68.1775 32.7422 67.9934 32.7422 65.7349 31.8675C63.4764 30.9929 59.1491 29.2435 61.6155 28.4574C64.0818 27.6714 73.4729 27.9015 78.1727 28.0892C82.8724 28.2768 82.5962 28.4149 79.1854 28.5321C75.7747 28.6493 69.2377 28.7413 65.663 28.7657C62.0884 28.7902 61.6741 28.7441 61.6678 28.6514C61.6615 28.5586 62.0758 28.4205 64.4529 28.1652C66.83 27.9099 71.1572 27.5416 69.5425 27.49C67.9278 27.4384 60.24 27.7146 63.2769 27.8569C66.3138 27.9992 80.3084 27.9992 87.4717 28.0682C94.635 28.1373 94.5429 28.2754 91.7795 29.0831C89.016 29.8908 83.5839 31.3639 81.0847 32.1688C78.5856 32.9737 79.184 33.0658 82.2774 32.8831C85.3708 32.7003 90.9411 32.24 92.2224 32.0028C93.5037 31.7657 90.3273 31.7657 84.2025 31.2593C78.0778 30.7529 69.101 29.7401 63.0725 29.2184C57.0441 28.6967 54.2359 28.6967 52.6742 28.6276C51.1125 28.5586 50.8824 28.4205 57.9452 28.3033C65.0081 28.1861 79.371 28.0941 86.5629 28.599C93.7548 29.104 93.3405 30.2089 92.7818 31.2384C92.2231 32.2679 91.5325 33.1886 92.6269 32.6271C93.7213 32.0656 96.6215 29.994 98.4147 28.5816C100.208 27.1692 100.806 26.4786 100.677 26.6984C100.548 26.9181 99.6737 28.0689 98.6017 29.1452C97.5296 30.2214 96.2867 31.1882 95.6234 31.525C94.96 31.8619 94.914 31.5397 95.6269 29.9926C96.3397 28.4456 97.8128 25.6835 98.3185 24.5368C98.5583 23.9931 96.323 24.6498 95.6562 24.0304C94.8456 23.2775 99.5928 21.6157 101.044 20.9001C102.496 20.1844 102.174 20.4606 100.972 21.0863C99.77 21.7119 97.6984 22.6787 94.4906 23.614C91.2828 24.5494 87.0016 25.424 84.9112 25.8056C82.8208 26.1871 83.051 26.049 86.6222 25.1722C90.1933 24.2955 97.0986 22.6843 100.909 21.7392C104.719 20.794 105.226 20.5639 104.566 21.1819C103.906 21.7998 102.065 23.2729 99.574 24.8605C97.0832 26.448 93.9989 28.1052 92.2949 29.0971C90.5909 30.0889 90.3607 30.3651 90.8406 30.1852C91.3205 30.0052 92.5174 29.3607 94.4 28.108C96.2825 26.8553 98.8144 25.0139 100.418 23.605C102.022 22.196 102.62 21.2753 102.859 20.9161C102.95 20.7796 102.128 22.6815 101.058 25.2845C100.671 26.2269 100.633 26.4145 101.392 24.9902C102.151 23.5659 103.716 20.5276 104.592 18.7092C105.467 16.8908 105.605 16.3845 105.676 16.2617C105.761 16.1154 105.471 18.0347 104.777 20.8401C104.409 22.324 103.806 23.8756 103.291 25.8328C102.776 27.7899 102.316 30.0917 102.056 31.6227C101.796 33.1537 101.749 33.8442 101.703 34.1309C101.656 34.4176 101.61 34.2795 101.862 32.2979C102.115 30.3163 102.667 26.4954 102.952 26.1843C104.988 23.9583 103.237 32.3725 103.375 31.2872C103.484 30.4279 103.789 28.9589 104.138 27.5786C104.809 24.9299 105.375 23.3525 105.491 23.5778C105.743 24.0687 105.653 25.5524 105.401 27.9678C105.149 30.3832 104.551 33.7438 104.403 35.2678C104.256 36.7918 104.579 36.3775 105.205 35.7958C106.694 34.4127 108.575 32.798 109.624 32.3007C110.038 32.1045 109.246 34.5194 109.123 35.2141C108.999 35.9088 109.322 35.4485 109.626 34.9351C109.93 34.4218 110.206 33.8693 110.491 33.1607" stroke="white" stroke-width="5" stroke-linecap="round"/>
</svg>
