<svg width="156" height="156" viewBox="0 0 156 156" fill="none" xmlns="http://www.w3.org/2000/svg">
<mask id="path-1-inside-1_6_129" fill="white">
<path d="M156 78C156 57.3131 147.782 37.4735 133.154 22.8457C118.526 8.21784 98.6869 1.56182e-06 78 0C57.3131 -1.56182e-06 37.4735 8.21783 22.8457 22.8457C8.21784 37.4735 3.12363e-06 57.3131 0 78L78 78H156Z"/>
</mask>
<path d="M156 78C156 57.3131 147.782 37.4735 133.154 22.8457C118.526 8.21784 98.6869 1.56182e-06 78 0C57.3131 -1.56182e-06 37.4735 8.21783 22.8457 22.8457C8.21784 37.4735 3.12363e-06 57.3131 0 78L78 78H156Z" fill="#556B2F" stroke="white" stroke-width="6" mask="url(#path-1-inside-1_6_129)"/>
<mask id="path-2-inside-2_6_129" fill="white">
<path d="M156 78C156 88.2431 153.982 98.3859 150.063 107.849C146.143 117.313 140.397 125.911 133.154 133.154C125.911 140.397 117.313 146.143 107.849 150.063C98.3859 153.982 88.2431 156 78 156C67.7569 156 57.6141 153.982 48.1507 150.063C38.6873 146.143 30.0886 140.397 22.8457 133.154C15.6027 125.911 9.85726 117.313 5.93739 107.849C2.01753 98.3859 -8.95481e-07 88.2431 0 78L78 78H156Z"/>
</mask>
<path d="M156 78C156 88.2431 153.982 98.3859 150.063 107.849C146.143 117.313 140.397 125.911 133.154 133.154C125.911 140.397 117.313 146.143 107.849 150.063C98.3859 153.982 88.2431 156 78 156C67.7569 156 57.6141 153.982 48.1507 150.063C38.6873 146.143 30.0886 140.397 22.8457 133.154C15.6027 125.911 9.85726 117.313 5.93739 107.849C2.01753 98.3859 -8.95481e-07 88.2431 0 78L78 78H156Z" fill="white" stroke="white" stroke-width="2" mask="url(#path-2-inside-2_6_129)"/>
<path d="M79.7574 74.8773C79.7251 74.9714 80.0405 75.5386 80.4368 76.1106C80.7898 76.6203 80.9917 76.809 81.1655 76.9036C81.255 76.9522 81.3081 77.0608 81.215 77.0466C81.1218 77.0323 80.871 76.9069 80.7888 76.8736C80.7594 76.8617 81.023 77.0304 81.1503 77.0941C81.5037 77.2707 80.5185 76.715 80.4543 76.6513C79.7948 75.9966 82.416 77.916 82.7965 78.202C83.1489 78.4668 83.5562 78.5507 83.9368 78.7721C84.3321 79.0021 84.7591 79.2786 85.0931 79.5954C85.3914 79.8785 85.8367 79.976 86.2172 80.1817C86.5737 80.3744 87.0073 80.6411 87.4838 80.8468C87.996 81.0679 88.4022 81.1789 88.7827 81.3538C89.2157 81.5527 89.7951 81.5913 90.76 81.8759C91.2675 82.0256 91.6328 82.3191 92.0133 82.5572C92.3682 82.7791 92.8357 82.9216 93.5797 83.1273C94.1412 83.2825 94.6411 83.4917 95.0696 83.7131C95.5608 83.9668 96.1291 84.0941 96.7319 84.2832C97.2601 84.4488 97.809 84.6946 98.3629 84.8538C98.8515 84.9941 99.6105 85.0443 100.311 85.1545C100.97 85.2583 101.325 85.4871 101.784 85.535C102.224 85.581 102.655 85.7721 103.051 85.8833C103.53 86.0177 103.985 86.1522 104.397 86.279C104.956 86.4511 105.41 86.595 105.791 86.7541C106.161 86.9089 106.551 87.0074 106.947 87.1185C107.396 87.2446 107.786 87.3874 108.182 87.5143C108.895 87.7424 109.876 87.6725 110.351 87.7837C110.823 87.7998 111.208 87.8312 111.852 87.8787C112.402 87.8948 113.405 87.8948 114.439 87.8948" stroke="#556B2F" stroke-width="4" stroke-linecap="round"/>
<path d="M114.439 87.8948C114.502 87.8948 114.66 87.8321 115.947 87.7371C117.106 87.6515 119.304 87.7048 120.497 87.6891C122.106 87.668 122.609 87.452 123.068 87.3252C123.521 87.2003 124.16 87.1043 124.62 86.9451C125.122 86.7717 125.649 86.7869 126.109 86.6601C126.532 86.5433 126.98 86.5019 127.455 86.3593C127.969 86.2051 128.468 86.0591 128.959 85.9788C129.366 85.9124 129.923 85.679 130.495 85.5198C130.97 85.3878 131.413 85.2666 131.842 85.1554C132.293 85.0383 132.681 84.8865 133.55 84.8229C134.167 84.7777 134.581 84.5065 134.977 84.3796C135.432 84.2342 135.942 84.1891 136.387 84.0157C136.777 83.8638 137.147 83.5886 137.543 83.4294C138.022 83.2371 138.477 83.0185 139.094 82.9382C139.533 82.881 140.028 82.7638 140.473 82.5904C140.879 82.4322 141.39 82.2583 141.882 81.989C142.319 81.7495 142.658 81.5609 142.959 81.2763C143.133 81.1808 143.355 81.0544 143.608 80.8806C143.735 80.8007 143.861 80.738 144.18 80.4834" stroke="#556B2F" stroke-width="4" stroke-linecap="round"/>
<path d="M82.6207 73.5309C83.3495 74.9484 84.0759 75.7575 85.3942 76.5903C86.101 77.0369 88.0022 77.54 90.5305 78.5328C92.9756 79.493 94.5431 79.2896 94.2639 79.1296C91.7591 77.6943 90.6534 77.7091 90.4088 77.5673C90.1855 77.4379 92.5405 77.585 96.1388 78.0491C98.0983 78.3019 100.299 78.7944 102.16 79.042C105.449 79.4797 107.236 79.3309 107.561 79.25C107.732 79.2075 104.99 79.1277 101.483 79.1679C99.308 79.1928 98.6033 80.0573 97.9736 80.5458C97.4797 80.929 97.1006 81.3981 96.9382 81.6001C96.8576 81.7004 96.9364 81.8823 97.0976 82.0454C97.4829 82.4351 99.7165 82.5746 102.536 82.515C103.473 82.4952 103.387 82.1744 103.266 81.9699C102.763 81.1258 101.769 80.3079 99.9283 79.5366C99.1318 79.2028 97.8148 78.972 96.5708 78.8065C94.1777 78.4882 92.9225 78.7615 92.8617 79.0444C92.715 79.7265 93.4469 80.3809 94.2773 81.0319C94.6482 81.3226 95.3912 81.3981 97.5064 81.5398C99.1373 81.6491 101.91 81.6414 103.538 81.5617C106.17 81.4329 107.471 79.9867 108.413 79.1703C109.019 78.645 109.428 77.9123 109.449 77.6695C109.543 76.5666 105.826 78.5973 105.111 79.2269C104.994 79.3301 105.088 79.4903 105.209 79.5724C105.33 79.6546 105.531 79.6947 106.779 79.6753C108.027 79.6558 110.315 79.5755 111.976 79.4337C113.637 79.292 114.6 79.0912 115.037 78.9477C115.473 78.8041 115.352 78.7238 115.19 78.7226C115.027 78.7214 114.827 78.8017 113.559 79.0237C112.291 79.2458 109.962 79.6071 108.462 79.8937C106.961 80.1802 106.359 80.3809 106.008 80.5647C105.658 80.7484 105.577 80.909 105.536 81.1122C105.495 81.3154 105.495 81.5563 105.555 81.7205C105.817 82.4348 108.159 82.1695 111.068 81.9487C112.782 81.8186 114.941 81.2862 116.299 80.898C118.195 80.3562 118.876 79.6169 119.301 79.1113C119.509 78.8645 119.606 78.5656 119.608 78.3606C119.611 78.0142 118 78.433 115.55 79.264C114.482 79.6263 113.702 79.6534 112.627 79.8353C110.177 80.2495 108.579 80.7484 108.215 81.072C107.893 81.358 107.806 81.9626 107.867 82.6312C107.891 82.9039 108.047 83.0187 108.17 83.1009C108.292 83.183 108.412 83.2231 109.839 83.2238C111.267 83.2244 113.997 83.1842 115.584 83.0832C117.546 82.9584 118.106 82.4554 118.43 82.0709C118.573 81.9017 118.594 81.7266 118.474 81.5636C118.354 81.4005 118.073 81.2399 117.848 81.1572C117.623 81.0745 117.462 81.0745 116.496 81.1949C115.53 81.3154 113.763 81.5563 111.368 81.6804C108.972 81.8045 106.001 81.8045 104.41 81.8446C102.819 81.8848 102.699 81.9651 102.637 82.1068C102.575 82.2486 102.575 82.4493 102.635 82.613C102.872 83.2576 103.424 83.8291 104.011 84.3979C104.481 84.8527 105.208 85.0482 107.26 85.21C108.988 85.3462 112.123 85.3718 114.419 85.2727C116.715 85.1735 118.08 84.8925 119.747 84.3863C121.414 83.8802 123.341 83.1574 124.776 82.5643C127.121 81.5944 128.204 80.8737 128.529 80.4692C128.678 80.2832 128.692 80.0646 128.592 79.921C128.36 79.5863 127.562 79.6546 124.865 80.137C122.603 80.5417 118.555 81.4224 116.104 81.9772C113.654 82.5321 112.931 82.773 112.519 83.0175C112.106 83.2621 112.026 83.503 112.025 83.7275C112.023 83.952 112.104 84.1527 112.205 84.2762C112.381 84.4892 113.716 84.4812 115.862 84.4411C117.61 84.4084 119.114 84.0773 120.551 83.7135C121.27 83.5313 121.947 83.2694 123.061 82.6434C125.767 81.1239 127.354 79.859 127.496 79.5962C127.569 79.4597 127.597 79.2932 127.517 79.1904C127.325 78.9416 126.87 78.9258 125.281 78.8041C123.857 78.695 121.163 78.7627 119.697 78.7828C118.231 78.8029 118.07 78.843 118.128 78.8637C119.038 79.1894 120.533 78.0351 123.871 77.5071C128.071 76.8427 128.732 77.5862 128.835 77.6671C130.47 78.9622 123.706 80.3834 123.623 80.6267C123.587 80.7343 124.023 80.7094 126.376 80.1875C128.73 79.6655 133.106 78.6216 135.321 78.1842C137.535 77.7468 137.455 77.9475 136.912 78.332C136.368 78.7165 135.365 79.2786 133.502 79.8894C131.64 80.5002 128.95 81.1426 127.042 81.5137C125.135 81.8848 124.091 81.9651 123.171 82.0868C121.481 82.3106 120.382 82.6951 119.875 83.0187C119.667 83.1517 119.65 83.3424 119.649 83.5255C119.649 83.7086 119.689 83.9094 119.77 84.0329C119.85 84.1564 119.971 84.1965 120.133 84.2172C120.296 84.2379 120.497 84.2379 124.234 83.475C127.971 82.7121 135.238 81.1864 139.403 80.2599C143.569 79.3334 144.412 79.0523 144.907 78.8674C145.401 78.6824 145.522 78.6021 145.523 78.6411C145.534 78.8729 144.558 79.2871 142.8 79.8334C141.78 80.1505 140.441 80.3396 138.835 80.4637C137.229 80.5878 135.382 80.5878 134.531 80.4874C133.679 80.387 133.88 80.1863 134.405 79.9022C134.93 79.6181 135.773 79.2567 137.051 78.8497C138.328 78.4427 140.015 78.0011 141.205 77.7334C143.024 77.3241 144.301 77.1421 145.133 76.8586C146.408 76.4244 140.944 77.1397 140.558 77.3015C140.694 77.4633 141.663 77.6263 143.622 77.7882C144.818 77.8697 146.424 77.95 148.079 78.0327" stroke="#556B2F" stroke-width="4" stroke-linecap="round"/>
<path d="M132.395 85.5584C132.243 85.5584 131.936 85.6284 131.73 85.6761C131.253 85.7866 130.487 85.7584 130.111 85.788C129.755 85.8159 129.58 85.9352 129.31 85.9823C128.981 86.0397 128.721 86.0999 128.397 86.1297C128.296 86.1472 128.213 86.1709 128.113 86.1944C128.06 86.2062 128.002 86.2179 127.871 86.2653" stroke="#556B2F" stroke-width="4" stroke-linecap="round"/>
<path d="M150.279 78.2423C150.139 78.3123 150.02 78.3833 149.932 78.448C149.89 78.4777 149.855 78.501 149.82 78.5247C149.784 78.5484 149.749 78.5717 149.678 78.5957" stroke="#556B2F" stroke-width="4" stroke-linecap="round"/>
<path d="M74.9575 74.2062C75.0728 74.3221 75.3041 74.3986 75.5361 74.5919C75.5901 74.6367 75.6518 74.6501 75.6431 74.6695C75.5435 74.8919 75.0943 74.6315 74.8425 74.5542C74.7838 74.5362 74.7269 74.5156 74.726 74.5058C74.7106 74.3312 75.2832 74.7648 75.6422 75.0166C75.9303 75.2187 76.2313 75.422 76.752 75.7503C77.08 75.9571 77.3323 76.1371 77.7661 76.3686C78.324 76.6664 78.6072 76.6784 78.7628 76.6984C79.3854 76.7784 77.8562 75.5982 77.7299 75.3661C77.6659 75.2486 77.5659 75.134 77.5268 75.0471C77.4785 74.9398 77.8539 75.1322 78.1917 75.3162C78.2796 75.3641 78.3557 75.422 78.7011 75.4898C79.0465 75.5576 79.6585 75.6341 81.1211 75.6639C82.5838 75.6938 84.8787 75.6747 86.1756 75.6361C87.7043 75.5907 88.1488 75.3855 88.5823 75.2406C89.3293 74.9909 90.785 75.1334 91.2506 75.143C93.9155 75.1977 100.705 75.1716 104.116 75.2006C107.528 75.2296 107.355 75.2678 106.186 75.2876C105.017 75.3073 102.856 75.3073 101.351 75.3646C99.8456 75.422 99.0615 75.5367 98.6289 75.615C98.1963 75.6932 98.1389 75.7315 98.1381 75.7703C98.1372 75.8091 98.1946 75.8474 98.4249 75.9053C98.6553 75.9633 99.0569 76.0398 101.042 76.2417C103.028 76.4437 106.585 76.7688 106.763 76.9362C106.941 77.1037 103.633 77.1037 102.033 77.1037C100.434 77.1037 100.645 77.1037 102.426 76.836C104.208 76.5683 107.555 76.0328 109.508 75.6996C111.462 75.3664 111.921 75.2516 112.195 75.1734C112.47 75.0952 112.547 75.0569 112.538 75.0276C112.507 74.9174 111.303 74.9978 109.71 75.0653C109.149 75.0891 109.092 75.1137 109.091 75.1331C109.09 75.1525 109.147 75.1716 110.496 75.2389C111.845 75.3061 114.484 75.4208 115.787 75.5278C117.089 75.6347 116.974 75.7303 115.968 75.9612C114.963 76.1922 113.069 76.5555 112.123 76.7523C111.176 76.949 111.233 76.9681 111.349 76.978C111.465 76.9878 111.637 76.9878 112.433 76.8444C113.229 76.701 114.644 76.4141 115.488 76.2281C116.332 76.0421 116.561 75.9656 116.718 75.9262C116.874 75.8868 116.951 75.8868 116.972 75.8288" stroke="#556B2F" stroke-width="2" stroke-linecap="round"/>
<path d="M147.28 74.2641C147.242 74.2641 146.973 74.4554 146.09 75.0415C145.467 75.4549 144.441 76.0293 143.68 76.4208C142.919 76.8122 142.441 76.9843 141.965 77.1208C141.039 77.3864 140.099 77.4897 139.442 77.5476C139.243 77.5651 139.32 77.5673 139.388 77.5004C139.557 77.3344 140.051 76.6645 140.976 75.7485C141.411 75.3176 141.824 75.0047 141.993 74.8468C142.162 74.6889 142.085 74.708 141.157 75.0717C140.228 75.4353 138.449 76.1429 136.606 76.6891C134.762 77.2353 132.907 77.5986 131.923 77.7954C130.938 77.9921 130.881 78.0112 130.88 78.0306C130.865 78.3776 132.074 77.9162 133.705 77.4555C134.952 77.1033 137.057 76.5358 138.313 76.2116C139.569 75.8873 139.913 75.83 138.532 75.963C137.151 76.096 134.034 76.4211 131.605 76.5885C129.177 76.756 127.533 76.756 126.752 76.756C125.972 76.756 126.106 76.756 126.299 76.7273C126.492 76.6986 126.741 76.6413 128.256 76.4492C129.77 76.2571 132.543 75.932 134 75.7549C135.457 75.5779 135.515 75.5588 135.477 75.5489C135.312 75.5052 134.92 75.5964 132.621 75.7025C130.573 75.797 126.727 75.7894 125.11 75.723C123.493 75.6567 124.22 75.4846 126.612 75.4055C129.004 75.3264 133.039 75.3455 135.357 75.3936C137.675 75.4417 138.153 75.5182 138.37 75.5767C138.588 75.6352 138.531 75.6735 135.107 75.7028C131.682 75.732 124.894 75.7512 121.358 75.7514C117.822 75.7517 117.746 75.7326 117.726 75.6941C117.705 75.6555 117.744 75.5982 117.811 75.559C117.961 75.4722 118.283 75.4046 118.85 75.2409C119.69 74.9987 120.408 74.9022 121.109 74.7866C121.615 74.7031 122.441 74.671 122.788 74.6988C123.135 74.7266 122.982 74.8413 122.789 74.9482C122.595 75.0552 122.366 75.1508 121.731 75.2957C121.097 75.4405 120.064 75.6318 119.216 75.7399C118.369 75.8479 117.738 75.8671 120.683 75.8482C123.628 75.8294 130.168 75.772 133.939 75.666C137.71 75.5599 138.513 75.4069 140.428 75.3281C142.343 75.2493 145.346 75.2493 146.93 75.2684C148.733 75.2902 148.959 75.4811 149.152 75.4524C149.296 75.4311 149.366 75.269 149.51 75.2111C149.887 75.2296 150.061 75.3264 150.177 75.3649C150.235 75.3843 150.292 75.4034 150.351 75.4811" stroke="#556B2F" stroke-width="2" stroke-linecap="round"/>
<path d="M149.618 76.3764C149.608 76.3717 149.599 76.3671 149.587 76.367C149.496 76.3665 149.435 76.5304 149.438 76.526C149.478 76.442 149.668 76.2934 149.859 76.1136C149.994 75.9869 150.043 75.8863 150.12 75.774C150.242 75.5951 150.435 75.4093 150.519 75.302C150.586 75.2159 150.65 75.1337 150.734 75.0774C150.752 75.0657 150.767 75.0633 150.781 75.0702C150.886 75.1215 150.832 75.3572 150.865 75.474C150.899 75.5964 150.921 75.7357 150.947 75.8293C150.971 75.9165 150.982 76.0298 151.015 76.1121C151.021 76.128 151.019 76.147 151.029 76.1242C151.114 75.9145 151.122 75.7088 151.143 75.5801C151.173 75.4017 151.206 75.2787 151.22 75.1967C151.228 75.151 151.248 75.1148 151.265 75.1007C151.326 75.0475 151.384 75.3098 151.403 75.4716C151.406 75.5024 151.416 75.5254 151.424 75.5512C151.431 75.577 151.435 75.6048 151.454 75.5589C151.573 75.2654 151.561 75.1898 151.594 75.1172C151.622 75.0561 151.646 75.0028 151.69 74.9466C151.712 74.9192 151.734 74.8951 151.758 74.888C151.807 74.8731 151.828 74.9742 151.849 75.0303C151.873 75.096 151.93 75.1657 151.956 75.2614C152.002 75.4308 151.935 75.5021 151.928 75.947C151.926 76.1007 151.926 76.1938 151.945 76.2616C151.961 76.3208 151.982 76.3761 151.989 76.6998C152.001 76.8756 152.005 77.0491 152.012 77.0864C152.015 77.1097 152.015 77.1421 152.015 77.1754" stroke="#556B2F" stroke-width="2" stroke-linecap="round"/>
<path d="M2.77374 80.0776C2.89353 79.8776 3.37631 79.5572 3.84155 79.0355C3.92405 78.943 3.74415 78.8343 3.56265 78.7933C3.38115 78.7523 3.14158 78.7523 3.09802 78.7921C3.05446 78.8319 3.21418 78.9114 3.37631 78.9126C4.01491 78.9173 4.4653 78.4728 4.9499 78.1511C5.43449 77.8295 5.91728 77.509 6.52227 77.027C7.01227 76.6367 7.69111 76.6246 8.31728 76.3638C8.81266 76.1574 9.30523 75.9427 9.80979 75.6608C10.3313 75.3694 10.8782 75.1403 11.3828 74.7776C11.9102 74.3986 12.531 74.3355 13.0767 74.1746C13.6706 73.9996 14.0653 73.574 14.5088 73.2915C15.0191 72.9664 15.4761 72.7692 16.0612 72.7084C16.5828 72.6541 17.0491 72.4078 17.5537 72.2668C18.1258 72.107 18.6221 71.9258 19.1067 71.7451C19.6228 71.5526 19.9543 71.3234 20.0559 71.1831C20.0932 71.1316 19.8781 71.0825 19.676 71.1813C18.7397 71.639 18.6257 72.1656 18.5241 72.1861C18.0037 72.291 19.6288 71.4463 20.3766 71.0228C20.8744 70.7409 21.3639 70.4005 21.8897 70.1788C22.3972 69.9648 22.9369 69.7572 23.6835 69.5963C24.3539 69.4519 24.914 69.2752 25.499 69.1144C26.0841 68.9535 27.0484 68.7138 27.6976 68.512C28.258 68.3378 28.907 68.1909 29.5119 68.0301C30.1472 67.8612 30.8018 67.8295 31.3275 67.6686C32.2182 67.3961 33.7057 67.468 36.5613 67.4072C37.6291 67.3844 38.2625 67.1066 39.3515 67.0457C41.1978 66.9426 44.0317 67.0246 44.6168 67.1855C45.1648 67.3361 45.7257 67.5066 46.9333 67.8674C47.7241 68.1037 48.3877 68.109 48.9927 68.1698C49.6119 68.2321 50.2414 68.4704 50.8082 68.6313C51.2995 68.7706 51.9353 68.8728 52.5421 69.0927C53.2461 69.3478 53.9125 69.4343 54.5386 69.4951C55.099 69.5496 55.6476 69.7957 56.1721 69.9566C56.8463 70.1633 57.5013 70.2776 58.0681 70.4385C58.6328 70.5987 59.3574 70.7596 59.9031 70.9204C60.5105 71.0994 60.9715 71.4825 61.4561 71.7433C61.9407 72.0041 62.5033 72.3258 63.0291 72.4867C63.5174 72.6361 63.9965 72.8078 64.4006 73.1686C64.8475 73.5677 65.4484 73.6102 66.0534 73.8319C66.6734 74.059 67.1424 74.2535 67.647 74.6144C68.1618 74.9826 68.7154 75.1764 69.2 75.3981C69.7008 75.6272 70.1674 75.8993 70.652 76.221C71.119 76.531 71.6193 76.6632 72.1039 76.824C72.2255 76.8644 72.3453 76.9042 72.3471 76.8849C72.3888 76.4429 71.5032 76.3041 71.1384 76.1421C70.7775 75.9818 72.0622 76.7017 72.4875 77.1445C72.8375 77.5089 73.4343 77.5861 73.9189 77.9879C74.3354 78.3332 74.8863 78.4704 75.3709 78.671C75.9303 78.9026 76.3383 79.1933 76.8229 79.3542C77.3208 79.5194 77.7903 79.8752 78.2749 80.1969C78.7595 80.5186 79.2422 80.8391 79.8273 81.0608C80.3776 81.2693 80.8152 81.6825 81.5406 81.9644C82.3014 82.2601 82.9932 82.3258 83.4778 82.4867C83.7192 82.5668 83.9624 82.6475 84.2038 82.7674C84.741 83.0342 84.7295 83.5704 84.77 83.8108C84.7902 83.9302 84.7307 84.0511 84.5305 84.1921C84.0115 84.5574 83.2412 84.656 82.4572 84.7156C82.0295 84.7481 81.5533 84.8945 75.9958 84.956C70.4384 85.0174 59.8172 85.0174 54.0861 84.9379C48.355 84.8584 47.8359 84.6993 40.8803 84.5776C33.9248 84.456 20.5484 84.3764 13.5577 84.3156C6.56704 84.2548 6.36739 84.215 6.08486 84.1945C4.87212 84.1066 3.98857 83.8535 3.38055 83.5529C3.08752 83.4081 2.93588 83.0511 2.81488 82.7307C2.75602 82.5747 2.77374 82.4102 2.8536 82.2487C3.25659 81.434 4.86217 80.8054 5.71582 80.3602C6.60356 79.8972 7.28698 79.3162 8.39532 78.7746C9.62467 78.1739 10.4329 78.2319 11.7603 77.8909C14.6872 77.139 15.3527 76.4656 16.0811 76.2427C16.7015 76.0529 17.6106 75.8632 18.4805 75.4403C19.1282 75.1255 19.9918 75.0584 21.8842 74.9379C22.3001 74.9114 22.4529 74.6993 22.3954 74.6969C22.0239 74.6813 21.491 75.1367 20.0692 75.9933C18.9046 76.695 16.9305 78.0825 15.8022 78.8782C13.9648 80.1742 13.3853 81.3186 11.1529 81.9632C9.08743 82.5596 7.90407 82.3668 7.19139 82.0475C6.82184 81.882 7.16961 81.2837 7.27004 81.0433C7.3773 80.7866 7.73225 80.521 8.17511 80.2403C8.52556 80.0181 9.18181 79.7981 12.8626 78.9608C16.0536 78.2348 21.9737 77.0897 25.0979 76.4156C28.918 75.5913 29.9935 74.8198 29.7412 74.9939C29.0157 75.4946 27.0533 76.7981 24.9473 78.0108C22.8413 79.2234 20.6452 80.2969 18.7752 81.0885C16.9051 81.8801 15.4277 82.3572 14.5469 82.7023C13.666 83.0475 13.4264 83.2463 16.4774 83.3487C19.5284 83.4511 25.8772 83.4511 29.0279 83.3915C32.1787 83.3319 31.9392 83.2126 31.3765 83.1511C30.8139 83.0897 29.9354 83.0897 27.5863 82.7517C25.2371 82.4138 21.4438 81.7379 19.5895 81.3499C17.7352 80.962 17.9348 80.8825 18.3371 80.8415C18.7395 80.8005 19.3384 80.8005 21.2242 80.6017C23.1099 80.4029 26.2643 80.0054 28.9076 79.8005C33.5776 79.4387 35.4058 79.5957 34.7227 79.6554C33.7864 79.7371 31.4685 80.0764 28.8658 80.2373C28.0604 80.2871 28.2995 80.2391 29.4811 79.6819C30.6626 79.1246 32.7789 78.0511 34.488 77.359C37.3632 76.1945 39.1495 75.9029 39.7351 75.5819C39.8781 75.5034 38.9982 75.4981 35.7355 75.6788C33.0353 75.8284 28.2003 75.7403 26.0508 75.6011C23.9013 75.462 24.5801 75.1837 26.3073 74.7222C28.0346 74.2608 30.7897 73.6246 32.2689 73.277C33.7481 72.9295 33.8679 72.8897 31.6736 72.8891C29.4793 72.8885 24.9672 72.9282 22.9423 72.7897C20.9174 72.6511 21.5164 72.3331 21.9447 72.1295C23.0377 71.6099 23.9049 71.6849 25.3139 71.6041C25.9694 71.5666 26.5269 71.4029 27.3896 71.2837C28.8805 71.0775 30.6747 70.521 32.4655 70.2801C34.1235 70.057 35.1589 70.1584 37.2183 70.0981C39.0774 70.0437 42.5919 70.0776 44.3221 70.0379C46.0524 69.9981 45.8927 69.9186 43.6542 69.8776C41.4158 69.8367 37.1034 69.8367 36.9382 69.8566C36.773 69.8764 40.8858 69.9162 44.0227 70.0758C47.1595 70.2355 49.1959 70.5138 50.3049 70.677C51.4138 70.8403 51.5336 70.8801 51.5554 70.9602C51.6099 71.1606 50.297 71.6005 47.6048 72.2017C46.0439 72.5503 44.0342 72.7234 41.5083 72.8463C38.9825 72.9692 35.9878 72.9692 36.0023 72.7108C36.0168 72.4523 39.1313 71.9355 42.9518 71.6692C46.7723 71.4029 51.2045 71.4029 53.6674 71.4626C56.4946 71.531 56.9798 71.8837 57.2212 72.1041C57.6321 72.4795 57.8268 72.927 57.8885 73.2879C57.9175 73.4575 57.5908 73.5692 55.7504 73.6307C53.91 73.6921 50.4761 73.6921 48.6073 73.712C45.7708 73.7422 44.3197 74.1716 43.4927 74.674C42.5681 75.2357 41.2197 76.6584 40.0848 77.3246C39.8714 77.4499 39.7218 77.6246 39.7194 77.627C39.5621 77.7837 40.4405 77.1078 42.3632 76.4288C43.8691 75.8971 46.5219 75.1933 47.7996 74.8041C49.0774 74.415 48.9176 74.415 48.7755 74.4548C48.4982 74.5323 48.0307 74.815 46.1486 75.2945C44.6408 75.6787 41.9506 76.0921 40.233 76.4572C36.8126 77.1842 36.1717 78.068 35.6877 78.809C34.9002 80.0145 34.4354 80.3174 34.3749 80.5776C34.3426 80.7164 34.3543 80.8776 34.5539 80.9993C34.7536 81.121 35.1529 81.2005 37.5347 81.2415C39.9166 81.2825 44.2689 81.2825 47.1698 81.1234C50.0708 80.9644 51.3884 80.6463 52.1471 80.4427C52.9057 80.2391 53.0655 80.1596 51.0115 80.1981C48.9576 80.2367 44.6851 80.3957 42.5241 80.5373C40.3631 80.6788 40.4429 80.7981 40.6637 80.9391C41.2141 81.2904 41.8538 81.4427 45.0717 81.5228C48.0494 81.597 53.76 81.6029 56.9011 81.6035C60.0422 81.6042 60.4415 81.5644 60.7071 81.4843C60.9727 81.4041 61.0925 81.2849 61.1542 81.1439C61.2159 81.0029 61.2159 80.8439 60.5371 80.6427C59.8583 80.4415 58.5007 80.2029 55.0462 79.9409C51.5917 79.6788 46.0814 79.4005 43.143 79.2373C40.0032 79.0628 39.5197 78.9933 39.0563 78.9337C38.8645 78.909 38.7925 78.7548 38.9311 78.6138C39.7727 77.7575 40.6026 77.4295 41.5694 77.1469C41.8889 77.0536 42.2918 76.9475 43.6954 76.8861C45.0989 76.8246 47.4947 76.8246 48.669 76.8644C49.8433 76.9042 49.7235 76.9837 48.5837 77.2035C47.4439 77.4234 45.2877 77.7813 44.5962 77.8066C43.9047 77.8319 44.7432 77.5138 47.1716 76.9126C49.6001 76.3114 53.593 75.4367 56.0493 74.9861C59.2811 74.3932 60.6859 74.615 61.6727 74.7752C62.8463 74.9658 63.4713 75.2969 64.017 75.7186C64.2949 75.9333 62.4465 76.1005 58.8819 76.4005C57.3484 76.5296 56.3953 76.8198 55.3826 77.0023C53.3425 77.37 52.0624 77.5066 51.8996 77.627C51.6436 77.8166 52.8235 77.6282 54.0661 77.4288C54.9912 77.2804 56.5067 76.9909 59.1051 76.8475C61.7035 76.7042 65.3371 76.7041 68.1872 76.8632C71.0373 77.0222 72.9939 77.3403 74.0617 77.524C75.1295 77.7078 75.2493 77.7475 75.2511 77.8078C75.2698 78.4282 73.6436 78.5102 71.1801 78.7307C69.2408 78.9042 65.8816 78.9114 64.0739 78.9325C62.1065 78.9554 61.7822 78.8728 61.62 78.8331C61.4281 78.786 62.1415 78.5921 63.4423 78.5319C64.5424 78.4809 66.5398 78.5114 67.8878 78.5511C70.8643 78.6389 71.9001 79.1523 73.2099 79.474C74.3324 79.7497 75.3703 80.1162 76.2554 80.4578C77.1027 80.7847 77.8713 80.8403 78.2337 80.9602C78.8841 81.1753 78.9216 81.8837 78.9422 82.1439C78.9534 82.2857 78.8429 82.4439 78.5223 82.5656C77.6789 82.8857 76.0285 82.8487 73.5372 82.6301C72.0732 82.5016 70.2472 81.974 67.8037 81.7288C65.3601 81.4837 62.3654 81.4439 60.7428 81.4632C59.1202 81.4825 58.9605 81.562 59.0978 81.6626C60.0843 82.3852 61.2885 82.3656 63.5566 82.5463C65.0228 82.6631 67.1424 82.6078 68.4323 82.5481C69.7221 82.4885 70.1214 82.3692 70.387 82.2879C70.6526 82.2066 70.7724 82.1668 70.8958 82.1258" stroke="white" stroke-width="4" stroke-linecap="round"/>
<path d="M1.24431 78.2627C1.22518 78.2627 1.20606 78.2627 1.20577 78.2245C1.20548 78.1862 1.2246 78.1097 1.2727 78.0512C1.46541 77.8167 1.7647 77.7806 2.00636 77.674C2.28088 77.5528 2.51806 77.4526 2.75015 77.3358C2.99055 77.2149 3.27142 77.0852 3.50351 76.9785C3.77444 76.8541 4.12097 76.7375 4.38233 76.5827C4.65798 76.4196 4.89404 76.2739 5.12613 76.1768C5.35183 76.0824 5.58944 75.9841 5.82154 75.8485C6.04102 75.7203 6.3428 75.6944 6.64212 75.4915C6.97511 75.2659 7.27001 75.1149 7.56933 74.9506C7.91556 74.7605 8.25401 74.5551 8.54522 74.3806C8.79012 74.2339 9.06648 74.1297 9.36551 73.9944C9.94116 73.7339 10.4353 73.5316 10.863 73.376C11.1722 73.2635 11.461 73.1063 11.7806 73.0376C12.0319 72.9836 12.292 72.8351 12.6591 72.7482C13.0961 72.6447 13.5472 72.4109 13.9245 72.1307C14.2246 71.9078 14.4559 71.7537 14.6975 71.5894C14.975 71.4008 15.2475 71.2901 15.5665 71.193C15.9347 71.081 16.3671 71.0386 16.7064 70.8555C16.9466 70.7259 17.3326 70.6527 17.7492 70.5556C18.0873 70.4768 18.5878 70.3247 18.9279 70.2369C19.2427 70.1556 19.4396 69.9572 19.7198 69.7159C19.9265 69.5378 20.2695 69.4357 20.5506 69.281C20.854 69.1139 21.2164 69.0683 21.6316 68.9428C22.0026 68.8307 22.2792 68.7785 22.5113 68.7107C22.5696 68.7009 22.6269 68.7009 22.6852 68.6913C22.7434 68.6818 22.8008 68.6626 22.8599 68.6429" stroke="white" stroke-width="2" stroke-linecap="round"/>
<path d="M2 77.6751C31.0938 60.4605 47.6993 61.0924 77.7572 77.6751C108.041 94.9479 124.685 93.2467 154 77.6751" stroke="white" stroke-width="5"/>
<circle cx="40" cy="89" r="9" fill="#556B2F"/>
<circle cx="136.5" cy="96.5" r="7.5" fill="#556B2F"/>
<circle cx="68.5" cy="143.5" r="3.5" fill="#556B2F"/>
<circle cx="128.5" cy="118.5" r="3.5" fill="#556B2F"/>
<circle cx="77.5" cy="88.5" r="5.5" fill="#556B2F"/>
<circle cx="53" cy="73" r="2" fill="#556B2F"/>
<circle cx="17" cy="98" r="5" fill="#556B2F"/>
<circle cx="100.5" cy="130.5" r="7.5" fill="#556B2F"/>
<circle cx="108.5" cy="106.5" r="10.5" fill="#556B2F"/>
<circle cx="56.5" cy="118.5" r="16.5" fill="#556B2F"/>
<circle cx="84.5" cy="108.5" r="4.5" fill="#556B2F"/>
</svg>
